<svg width="48" height="48" viewBox="0 0 48 48" fill="none" xmlns="http://www.w3.org/2000/svg">
<g clip-path="url(#clip0_631_664)">
<path d="M44.2499 20.25C43.4298 20.2502 42.6327 20.521 41.9822 21.0204C41.9074 20.2445 41.5933 19.5111 41.0832 18.9217C40.5732 18.3323 39.8925 17.9161 39.1354 17.7307C39.5396 17.0642 39.7266 16.2885 39.6705 15.5111C39.6143 14.7337 39.3178 13.9929 38.8221 13.3915C39.6352 13.2846 40.3903 12.9125 40.9705 12.3329C41.393 11.9125 41.7092 11.3972 41.8929 10.8302C42.0766 10.2632 42.1225 9.66051 42.0268 9.0722C41.9311 8.48388 41.6966 7.92686 41.3426 7.4473C40.9886 6.96775 40.5254 6.57948 39.9914 6.31468C39.4574 6.04988 38.868 5.91619 38.272 5.92468C37.676 5.93317 37.0907 6.0836 36.5644 6.3635C36.0382 6.64341 35.5862 7.04472 35.2461 7.53416C34.9059 8.0236 34.6873 8.58708 34.6084 9.17788C34.0069 8.68208 33.2662 8.38557 32.4888 8.32943C31.7114 8.27328 30.9357 8.46027 30.2693 8.8645C30.0838 8.10742 29.6676 7.42673 29.0782 6.91669C28.4888 6.40664 27.7554 6.09248 26.9795 6.01771C27.4041 5.46208 27.6649 4.7988 27.7324 4.10278C27.7999 3.40676 27.6714 2.70573 27.3615 2.07887C27.0516 1.452 26.5726 0.924284 25.9786 0.55531C25.3846 0.186335 24.6992 -0.00919342 23.9999 -0.00919342C23.3006 -0.00919342 22.6153 0.186335 22.0212 0.55531C21.4272 0.924284 20.9482 1.452 20.6383 2.07887C20.3284 2.70573 20.1999 3.40676 20.2674 4.10278C20.3349 4.7988 20.5957 5.46208 21.0203 6.01771C20.2444 6.09248 19.511 6.40664 18.9216 6.91669C18.3322 7.42673 17.916 8.10742 17.7306 8.8645C17.0641 8.46036 16.2884 8.27342 15.511 8.32956C14.7336 8.3857 13.9929 8.68215 13.3914 9.17786C13.3115 8.58817 13.0923 8.02598 12.752 7.5378C12.4117 7.04963 11.9601 6.64951 11.4344 6.37056C10.9088 6.0916 10.3243 5.94183 9.72924 5.93363C9.13421 5.92544 8.54579 6.05905 8.01266 6.32342C7.47954 6.58779 7.01702 6.97532 6.6634 7.45393C6.30978 7.93254 6.07522 8.48849 5.97912 9.07575C5.88302 9.66302 5.92815 10.2647 6.11078 10.8311C6.2934 11.3975 6.60827 11.9122 7.02933 12.3327C7.60948 12.9124 8.36464 13.2847 9.17776 13.3915C8.68198 13.993 8.38549 14.7337 8.32935 15.5111C8.27321 16.2885 8.4602 17.0642 8.86442 17.7306C8.10734 17.916 7.42665 18.3323 6.9166 18.9217C6.40656 19.5111 6.0924 20.2445 6.01763 21.0204C5.462 20.5958 4.79872 20.335 4.10269 20.2675C3.40667 20.2 2.70564 20.3285 2.07878 20.6384C1.45192 20.9483 0.9242 21.4273 0.555226 22.0213C0.186252 22.6153 -0.00927734 23.3007 -0.00927734 24C-0.00927734 24.6993 0.186252 25.3846 0.555226 25.9786C0.9242 26.5727 1.45192 27.0517 2.07878 27.3616C2.70564 27.6715 3.40667 27.8 4.10269 27.7325C4.79872 27.665 5.462 27.4042 6.01763 26.9796C6.0924 27.7555 6.40656 28.4889 6.9166 29.0783C7.42665 29.6677 8.10734 30.0839 8.86442 30.2693C8.46019 30.9358 8.2732 31.7114 8.32934 32.4889C8.38549 33.2663 8.68198 34.0071 9.17778 34.6085C8.58863 34.6889 8.02707 34.9083 7.53952 35.2487C7.05198 35.589 6.65244 36.0406 6.37395 36.5659C6.09546 37.0913 5.94601 37.6754 5.93796 38.2699C5.92991 38.8645 6.06348 39.4524 6.32764 39.9851C6.5918 40.5178 6.97895 40.98 7.4571 41.3334C7.93525 41.6869 8.49066 41.9214 9.07742 42.0177C9.66417 42.114 10.2654 42.0693 10.8315 41.8872C11.3975 41.7051 11.9121 41.3909 12.3326 40.9706C12.9123 40.3904 13.2846 39.6352 13.3914 38.8221C13.9929 39.3179 14.7336 39.6144 15.511 39.6706C16.2885 39.7267 17.0641 39.5397 17.7305 39.1355C17.916 39.8926 18.3322 40.5732 18.9216 41.0833C19.511 41.5933 20.2444 41.9075 21.0203 41.9823C20.5957 42.5379 20.3349 43.2012 20.2674 43.8972C20.1999 44.5932 20.3284 45.2943 20.6383 45.9211C20.9482 46.548 21.4272 47.0757 22.0212 47.4447C22.6153 47.8136 23.3006 48.0092 23.9999 48.0092C24.6992 48.0092 25.3845 47.8136 25.9786 47.4447C26.5726 47.0757 27.0516 46.548 27.3615 45.9211C27.6714 45.2943 27.7999 44.5932 27.7324 43.8972C27.6649 43.2012 27.4041 42.5379 26.9795 41.9823C27.7554 41.9075 28.4888 41.5933 29.0782 41.0833C29.6676 40.5732 30.0838 39.8926 30.2692 39.1355C30.9356 39.5399 31.7113 39.727 32.4888 39.6708C33.2662 39.6147 34.007 39.3182 34.6084 38.8223C34.7153 39.6353 35.0874 40.3904 35.667 40.9706C36.0874 41.3931 36.6027 41.7093 37.1697 41.893C37.7367 42.0767 38.3394 42.1226 38.9277 42.0268C39.516 41.9311 40.073 41.6966 40.5525 41.3426C41.0321 40.9886 41.4203 40.5255 41.6851 39.9915C41.9499 39.4575 42.0836 38.8681 42.0751 38.2721C42.0667 37.6761 41.9163 37.0908 41.6364 36.5645C41.3565 36.0383 40.9552 35.5863 40.4658 35.2462C39.9764 34.906 39.4129 34.6874 38.8221 34.6084C39.3179 34.007 39.6143 33.2662 39.6705 32.4888C39.7266 31.7114 39.5396 30.9358 39.1354 30.2693C39.8925 30.0839 40.5732 29.6677 41.0832 29.0783C41.5933 28.4889 41.9074 27.7555 41.9822 26.9796C42.4557 27.34 43.0082 27.5826 43.594 27.6871C44.1798 27.7916 44.7821 27.7551 45.351 27.5807C45.9199 27.4062 46.4391 27.0988 46.8656 26.6838C47.2921 26.2689 47.6137 25.7583 47.8037 25.1944C47.9937 24.6305 48.0467 24.0295 47.9584 23.441C47.87 22.8525 47.6427 22.2936 47.2954 21.8104C46.9481 21.3272 46.4907 20.9336 45.9612 20.6623C45.4316 20.391 44.845 20.2496 44.2499 20.25ZM40.4999 26.625C40.4992 27.2215 40.262 27.7935 39.8402 28.2153C39.4183 28.6371 38.8464 28.8743 38.2499 28.875H37.5799C37.4316 28.875 37.2866 28.919 37.1633 29.0014C37.0399 29.0838 36.9438 29.2009 36.887 29.3379C36.8302 29.475 36.8154 29.6258 36.8443 29.7712C36.8732 29.9167 36.9446 30.0504 37.0495 30.1553L37.5233 30.6291C37.9447 31.0514 38.1813 31.6236 38.1813 32.2201C38.1813 32.8167 37.9447 33.3889 37.5233 33.8112L33.8111 37.5234C33.3887 37.9447 32.8165 38.1813 32.22 38.1813C31.6235 38.1812 31.0513 37.9446 30.629 37.5232L30.1552 37.0496C30.0503 36.9447 29.9166 36.8733 29.7711 36.8444C29.6257 36.8155 29.4749 36.8303 29.3378 36.8871C29.2008 36.9439 29.0837 37.04 29.0013 37.1634C28.9189 37.2867 28.8749 37.4317 28.8749 37.58V38.25C28.8742 38.8465 28.637 39.4185 28.2152 39.8403C27.7933 40.2621 27.2214 40.4993 26.6249 40.5H21.3749C20.7784 40.4993 20.2064 40.2621 19.7846 39.8403C19.3628 39.4185 19.1255 38.8465 19.1249 38.25V37.58C19.1249 37.4317 19.0809 37.2867 18.9985 37.1634C18.9161 37.04 18.799 36.9439 18.6619 36.8871C18.5249 36.8304 18.3741 36.8155 18.2287 36.8444C18.0832 36.8733 17.9495 36.9447 17.8446 37.0496L17.3707 37.5234C16.9484 37.9447 16.3762 38.1812 15.7797 38.1812C15.1832 38.1812 14.6111 37.9447 14.1887 37.5234L10.4765 33.8112C10.0551 33.3889 9.8185 32.8167 9.81853 32.2201C9.81857 31.6236 10.0552 31.0514 10.4766 30.6292L10.9503 30.1553C11.0552 30.0504 11.1266 29.9167 11.1555 29.7712C11.1844 29.6258 11.1695 29.475 11.1128 29.3379C11.056 29.2009 10.9599 29.0838 10.8365 29.0014C10.7132 28.919 10.5682 28.875 10.4199 28.875H9.74989C9.15335 28.8743 8.58144 28.6371 8.15962 28.2153C7.73781 27.7935 7.50054 27.2215 7.49989 26.625V21.375C7.50054 20.7785 7.73781 20.2065 8.15962 19.7847C8.58144 19.3629 9.15335 19.1257 9.74989 19.125H10.4199C10.5682 19.125 10.7132 19.081 10.8365 18.9986C10.9599 18.9162 11.056 18.7991 11.1128 18.6621C11.1695 18.525 11.1844 18.3742 11.1555 18.2288C11.1266 18.0833 11.0552 17.9496 10.9503 17.8447L10.4765 17.3708C10.0551 16.9486 9.81852 16.3764 9.81852 15.7798C9.81852 15.1833 10.0551 14.6111 10.4765 14.1888L14.1887 10.4766C14.6111 10.0553 15.1832 9.81868 15.7798 9.81872C16.3763 9.81875 16.9485 10.0554 17.3707 10.4767L17.8446 10.9504C17.9495 11.0553 18.0832 11.1267 18.2287 11.1556C18.3741 11.1845 18.5249 11.1697 18.662 11.1129C18.799 11.0561 18.9161 10.96 18.9985 10.8366C19.0809 10.7133 19.1249 10.5683 19.1249 10.42V9.75C19.1255 9.15346 19.3628 8.58154 19.7846 8.15973C20.2064 7.73791 20.7784 7.50065 21.3749 7.5H26.6249C27.2214 7.50065 27.7933 7.73791 28.2152 8.15973C28.637 8.58154 28.8742 9.15346 28.8749 9.75V10.42C28.8749 10.5683 28.9189 10.7133 29.0013 10.8366C29.0837 10.96 29.2008 11.0561 29.3378 11.1129C29.4749 11.1697 29.6257 11.1845 29.7711 11.1556C29.9166 11.1267 30.0503 11.0553 30.1552 10.9504L30.629 10.4766C31.0514 10.0553 31.6235 9.81875 32.22 9.81875C32.8165 9.81875 33.3887 10.0553 33.811 10.4766L37.5233 14.1888C37.9447 14.6111 38.1813 15.1833 38.1813 15.7799C38.1812 16.3764 37.9445 16.9486 37.5231 17.3708L37.0495 17.8447C36.9446 17.9496 36.8732 18.0833 36.8443 18.2288C36.8154 18.3742 36.8302 18.525 36.887 18.6621C36.9438 18.7991 37.0399 18.9162 37.1633 18.9986C37.2866 19.081 37.4316 19.125 37.5799 19.125H38.2499C38.8464 19.1257 39.4183 19.3629 39.8402 19.7847C40.262 20.2065 40.4992 20.7785 40.4999 21.375V26.625Z" fill="#151415"/>
<path d="M24.0001 11.9325C21.6134 11.9325 19.2803 12.6402 17.2958 13.9662C15.3113 15.2922 13.7646 17.1769 12.8512 19.382C11.9378 21.587 11.6989 24.0134 12.1645 26.3543C12.6301 28.6951 13.7794 30.8453 15.4671 32.533C17.1548 34.2207 19.305 35.37 21.6459 35.8356C23.9867 36.3013 26.4131 36.0623 28.6182 35.1489C30.8232 34.2356 32.7079 32.6888 34.0339 30.7043C35.3599 28.7199 36.0676 26.3867 36.0676 24C36.0648 20.8004 34.7924 17.7326 32.53 15.4702C30.2675 13.2077 27.1997 11.9354 24.0001 11.9325ZM25.5001 30.375C25.4995 30.5737 25.4203 30.7642 25.2798 30.9047C25.1393 31.0452 24.9489 31.1244 24.7501 31.125H23.2501C23.0514 31.1244 22.861 31.0452 22.7204 30.9047C22.5799 30.7642 22.5007 30.5737 22.5001 30.375V28.875C22.5007 28.6763 22.5799 28.4858 22.7204 28.3453C22.861 28.2048 23.0514 28.1256 23.2501 28.125H24.7501C24.9489 28.1256 25.1393 28.2048 25.2798 28.3453C25.4203 28.4858 25.4995 28.6763 25.5001 28.875V30.375ZM25.6539 24.4388C25.6385 24.626 25.5531 24.8005 25.4148 24.9277C25.2766 25.0548 25.0955 25.1253 24.9076 25.125H23.0926C22.9048 25.1253 22.7237 25.0548 22.5854 24.9277C22.4471 24.8005 22.3618 24.626 22.3464 24.4388L21.7539 17.6888C21.7453 17.5854 21.7582 17.4814 21.7918 17.3833C21.8254 17.2852 21.8789 17.1951 21.949 17.1186C22.0191 17.0422 22.1042 16.9811 22.1991 16.9392C22.2939 16.8972 22.3964 16.8754 22.5001 16.875H25.5001C25.6038 16.8754 25.7063 16.8972 25.8012 16.9392C25.896 16.9811 25.9812 17.0422 26.0513 17.1186C26.1213 17.1951 26.1749 17.2852 26.2084 17.3833C26.242 17.4814 26.2549 17.5854 26.2464 17.6888L25.6539 24.4388Z" fill="#550055"/>
</g>
<defs>
<clipPath id="clip0_631_664">
<rect width="48" height="48" fill="white"/>
</clipPath>
</defs>
</svg>
