<svg width="242" height="242" viewBox="0 0 242 242" fill="none" xmlns="http://www.w3.org/2000/svg">
<path d="M129.196 214L133.068 234.864H128.236L126.796 225.104C126.668 224.016 126.529 222.917 126.38 221.808C126.23 220.72 126.092 219.621 125.964 218.512H125.836C125.622 219.621 125.42 220.72 125.228 221.808C125.014 222.917 124.801 224.016 124.588 225.104L122.348 234.864H118.348L116.108 225.104C115.894 224.059 115.692 222.981 115.5 221.872C115.286 220.763 115.073 219.643 114.86 218.512H114.732C114.582 219.643 114.444 220.752 114.316 221.84C114.166 222.949 114.017 224.037 113.868 225.104L112.428 234.864H107.916L111.628 214H117.548L119.596 223.472C119.766 224.283 119.926 225.093 120.076 225.904C120.204 226.736 120.321 227.536 120.428 228.304H120.556C120.684 227.536 120.822 226.736 120.972 225.904C121.1 225.093 121.249 224.283 121.42 223.472L123.372 214H129.196Z" fill="#800080"/>
<path d="M100.385 211.293C102.215 211.71 103.729 212.505 104.928 213.675C106.106 214.841 106.91 216.305 107.34 218.066C107.744 219.843 107.694 221.834 107.191 224.039C106.683 226.264 105.869 228.059 104.748 229.422C103.601 230.801 102.249 231.74 100.691 232.238C99.1081 232.752 97.4012 232.8 95.571 232.382C93.7407 231.964 92.2342 231.183 91.0513 230.038C89.843 228.908 89.032 227.476 88.6185 225.741C88.1842 224 88.2187 222.028 88.7219 219.823C89.2251 217.619 90.0546 215.806 91.2105 214.385C92.3408 212.98 93.7 212.01 95.2881 211.475C96.8555 210.936 98.5543 210.875 100.385 211.293ZM99.4802 215.255C98.0867 214.937 96.8467 215.288 95.7603 216.309C94.6738 217.33 93.8979 218.86 93.4327 220.898C92.9675 222.937 93.0099 224.62 93.56 225.949C94.11 227.278 95.0818 228.102 96.4753 228.42C97.8688 228.738 99.1016 228.418 100.174 227.459C101.246 226.5 102.015 225.002 102.48 222.963C102.945 220.925 102.91 219.21 102.374 217.819C101.838 216.427 100.874 215.573 99.4802 215.255Z" fill="#800080"/>
<path d="M88.9588 208.792L79.9063 227.59L75.2645 225.354L76.2637 215.536C76.3306 214.905 76.4211 214.25 76.535 213.571C76.649 212.892 76.7487 212.217 76.8342 211.548L76.7189 211.493C76.249 211.977 75.7937 212.48 75.353 213.002C74.893 213.514 74.4374 213.993 73.986 214.439L66.99 221.37L62.377 219.148L71.4296 200.35L75.2929 202.211L71.9746 209.101C71.6784 209.717 71.321 210.385 70.9023 211.107C70.4552 211.839 70.008 212.57 69.5609 213.302C69.0946 214.025 68.6891 214.67 68.3445 215.238L68.4598 215.294L72.1399 211.561L78.2784 205.673L80.6137 206.798L79.8378 215.268L79.1849 220.459L79.3003 220.514C79.5103 219.881 79.762 219.162 80.0554 218.356C80.3488 217.55 80.6517 216.749 80.9643 215.952C81.2484 215.166 81.5386 214.465 81.8348 213.85L85.1531 206.959L88.9588 208.792Z" fill="#800080"/>
<path d="M67.9422 197.639L54.9337 213.951L44.7261 205.811L47.2001 202.709L53.73 207.916L56.3436 204.639L50.7895 200.209L53.2436 197.132L58.7977 201.561L61.7904 197.809L55.0104 192.402L57.4844 189.299L67.9422 197.639Z" fill="#800080"/>
<path d="M53.388 185.377L37.0758 198.386L34.0631 194.608L38.7774 183.891L41.1031 179.416L41.0233 179.316C40.2092 180.075 39.315 180.938 38.3406 181.906C37.3663 182.874 36.3954 183.744 35.428 184.515L29.6738 189.104L26.8805 185.601L43.1927 172.593L46.2054 176.371L41.4661 187.108L39.1904 191.542L39.2702 191.642C40.1043 190.841 40.9986 189.978 41.9529 189.053C42.8938 188.111 43.848 187.255 44.8154 186.484L50.5947 181.875L53.388 185.377Z" fill="#800080"/>
<path d="M30.8541 143.984L10.5132 148.627L9.46648 144.041L29.8074 139.398L30.8541 143.984Z" fill="#800080"/>
<path d="M28 129.177H7.136L7.136 124.345L17.504 118.905L22.112 116.857V116.729C21.0027 116.814 19.7653 116.931 18.4 117.081C17.0347 117.23 15.7333 117.305 14.496 117.305H7.136V112.825L28 112.825L28 117.657L17.6 123.097L13.056 125.145V125.273C14.208 125.166 15.4453 125.049 16.768 124.921C18.0907 124.771 19.3707 124.697 20.608 124.697L28 124.697L28 129.177Z" fill="#800080"/>
<path d="M36.1848 82.7774L20.962 75.4465L18.4767 80.6073L14.9017 78.8856L21.9271 64.2971L25.5022 66.0188L23.0169 71.1795L38.2397 78.5104L36.1848 82.7774Z" fill="#800080"/>
<path d="M44.361 67.9423L28.0489 54.9338L36.1891 44.7262L39.2914 47.2002L34.0841 53.7301L37.3615 56.3438L41.7908 50.7896L44.8681 53.2437L40.4388 58.7978L44.1916 61.7906L49.5985 55.0105L52.7008 57.4845L44.361 67.9423Z" fill="#800080"/>
<path d="M65.0966 47.1213C63.7289 48.212 62.2169 48.8993 60.5606 49.1833C58.9043 49.4673 57.2338 49.2714 55.549 48.5958C53.8676 47.8903 52.3019 46.6285 50.8521 44.8104C49.4156 43.0091 48.5422 41.1953 48.2318 39.369C47.9248 37.5128 48.0891 35.7856 48.7245 34.1873C49.3634 32.5591 50.3667 31.1996 51.7344 30.109C52.7852 29.271 53.9004 28.7363 55.0802 28.5049C56.2467 28.2568 57.3313 28.1969 58.3339 28.325L58.2579 32.233C57.535 32.1819 56.847 32.2258 56.1937 32.3647C55.5439 32.4737 54.9271 32.7609 54.3433 33.2265C53.6094 33.8117 53.1002 34.5589 52.8156 35.468C52.5477 36.3638 52.5428 37.35 52.801 38.4266C53.0759 39.4898 53.6523 40.5718 54.5302 41.6726C55.8603 43.3405 57.2564 44.3555 58.7184 44.7176C60.1805 45.0797 61.512 44.7819 62.7129 43.8242C63.38 43.2922 63.8524 42.6699 64.1301 41.9573C64.4244 41.2315 64.6054 40.5004 64.6732 39.7642L68.4602 40.5097C68.3694 43.2016 67.2482 45.4055 65.0966 47.1213Z" fill="#800080"/>
<path d="M73.1553 40.8185L64.1027 22.0207L68.3409 19.9797L71.8258 27.2163L78.3128 24.0923L74.8279 16.8557L79.0948 14.8009L88.1474 33.5987L83.8804 35.6535L80.1039 27.8115L73.6169 30.9355L77.3934 38.7775L73.1553 40.8185Z" fill="#800080"/>
<path d="M100.394 30.7054C99.6038 30.8858 98.8765 30.7673 98.2123 30.35C97.5642 29.9071 97.1476 29.2801 96.9624 28.4689C96.7726 27.637 96.8759 26.8913 97.2724 26.2319C97.685 25.5469 98.2865 25.1142 99.0768 24.9338C99.8672 24.7534 100.586 24.8847 101.235 25.3275C101.899 25.7449 102.326 26.3695 102.516 27.2015C102.701 28.0126 102.587 28.7607 102.174 29.4456C101.778 30.1051 101.184 30.525 100.394 30.7054Z" fill="#800080"/>
<path d="M112.804 28L108.932 7.136L113.764 7.136L115.204 16.896C115.332 17.984 115.471 19.0827 115.62 20.192C115.77 21.28 115.908 22.3787 116.036 23.488H116.164C116.378 22.3787 116.58 21.28 116.772 20.192C116.986 19.0827 117.199 17.984 117.412 16.896L119.652 7.136H123.652L125.892 16.896C126.106 17.9413 126.308 19.0187 126.5 20.128C126.714 21.2373 126.927 22.3573 127.14 23.488H127.268C127.418 22.3573 127.556 21.248 127.684 20.16C127.834 19.0507 127.983 17.9627 128.132 16.896L129.572 7.136L134.084 7.136L130.372 28L124.452 28L122.404 18.528C122.234 17.7173 122.074 16.9067 121.924 16.096C121.796 15.264 121.679 14.464 121.572 13.696H121.444C121.316 14.464 121.178 15.264 121.028 16.096C120.9 16.9067 120.751 17.7173 120.58 18.528L118.628 28L112.804 28Z" fill="#800080"/>
<path d="M141.615 30.7075C139.785 30.2898 138.271 29.4955 137.072 28.3247C135.894 27.1586 135.09 25.6951 134.66 23.934C134.256 22.1569 134.306 20.166 134.809 17.9614C135.317 15.7359 136.131 13.9415 137.252 12.578C138.399 11.1986 139.751 10.2599 141.309 9.76206C142.892 9.24818 144.599 9.20011 146.429 9.61785C148.259 10.0356 149.766 10.8171 150.949 11.9623C152.157 13.0915 152.968 14.5239 153.381 16.2594C153.816 17.9997 153.781 19.9722 153.278 22.1768C152.775 24.3814 151.945 26.1943 150.79 27.6154C149.659 29.0204 148.3 29.9903 146.712 30.525C145.145 31.0644 143.446 31.1252 141.615 30.7075ZM142.52 26.7454C143.913 27.0634 145.153 26.7119 146.24 25.6907C147.326 24.6695 148.102 23.1398 148.567 21.1016C149.032 19.0633 148.99 17.3797 148.44 16.0506C147.89 14.7216 146.918 13.898 145.525 13.58C144.131 13.2619 142.898 13.5823 141.826 14.541C140.754 15.4998 139.985 16.9983 139.52 19.0366C139.055 21.0748 139.09 22.7897 139.626 24.1811C140.162 25.5726 141.126 26.4273 142.52 26.7454Z" fill="#800080"/>
<path d="M153.041 33.208L162.094 14.4102L166.736 16.6455L165.736 26.4644C165.669 27.0951 165.579 27.7501 165.465 28.4292C165.351 29.1084 165.251 29.7825 165.166 30.4517L165.281 30.5072C165.751 30.0232 166.206 29.5203 166.647 28.9985C167.107 28.4859 167.563 28.0069 168.014 27.5612L175.01 20.6303L179.623 22.8518L170.57 41.6496L166.707 39.7891L170.025 32.8985C170.322 32.2835 170.679 31.615 171.098 30.8932C171.545 30.1614 171.992 29.4296 172.439 28.6978C172.905 27.9752 173.311 27.3299 173.656 26.7618L173.54 26.7063L169.86 30.4392L163.722 36.3269L161.386 35.2023L162.162 26.7321L162.815 21.5414L162.7 21.4858C162.49 22.1187 162.238 22.838 161.945 23.6439C161.651 24.4497 161.348 25.251 161.036 26.0476C160.752 26.8342 160.461 27.535 160.165 28.1501L156.847 35.0407L153.041 33.208Z" fill="#800080"/>
<path d="M174.058 44.3608L187.066 28.0487L197.274 36.189L194.8 39.2913L188.27 34.0839L185.656 37.3613L191.21 41.7906L188.756 44.8679L183.202 40.4386L180.21 44.1914L186.99 49.5983L184.516 52.7006L174.058 44.3608Z" fill="#800080"/>
<path d="M188.612 56.6227L204.924 43.6142L207.937 47.392L203.223 58.1095L200.897 62.5837L200.977 62.6838C201.791 61.9254 202.685 61.0622 203.659 60.0942C204.634 59.1262 205.605 58.2564 206.572 57.485L212.326 52.8961L215.119 56.3987L198.807 69.4072L195.795 65.6294L200.534 54.8919L202.81 50.4576L202.73 50.3575C201.896 51.1592 201.001 52.0224 200.047 52.9471C199.106 53.8885 198.152 54.745 197.185 55.5164L191.405 60.1253L188.612 56.6227Z" fill="#800080"/>
<path d="M211.146 98.016L231.487 93.3733L232.534 97.9594L212.193 102.602L211.146 98.016Z" fill="#800080"/>
<path d="M214 112.823H234.864V117.655L224.496 123.095L219.888 125.143V125.271C220.997 125.186 222.235 125.069 223.6 124.919C224.965 124.77 226.267 124.695 227.504 124.695H234.864V129.175H214V124.343L224.4 118.903L228.944 116.855V116.727C227.792 116.834 226.555 116.951 225.232 117.079C223.909 117.229 222.629 117.303 221.392 117.303H214V112.823Z" fill="#800080"/>
<path d="M205.815 159.223L221.038 166.553L223.523 161.393L227.098 163.114L220.073 177.703L216.498 175.981L218.983 170.82L203.76 163.49L205.815 159.223Z" fill="#800080"/>
<path d="M197.64 174.058L213.952 187.066L205.811 197.274L202.709 194.8L207.916 188.27L204.639 185.656L200.21 191.21L197.132 188.756L201.562 183.202L197.809 180.209L192.402 186.989L189.3 184.515L197.64 174.058Z" fill="#800080"/>
<path d="M176.903 194.879C178.271 193.788 179.783 193.101 181.439 192.817C183.096 192.533 184.766 192.729 186.451 193.404C188.132 194.11 189.698 195.372 191.148 197.19C192.584 198.991 193.458 200.805 193.768 202.631C194.075 204.487 193.911 206.214 193.275 207.813C192.637 209.441 191.633 210.8 190.266 211.891C189.215 212.729 188.1 213.264 186.92 213.495C185.753 213.743 184.669 213.803 183.666 213.675L183.742 209.767C184.465 209.818 185.153 209.774 185.806 209.635C186.456 209.526 187.073 209.239 187.657 208.774C188.391 208.188 188.9 207.441 189.184 206.532C189.452 205.636 189.457 204.65 189.199 203.573C188.924 202.51 188.348 201.428 187.47 200.327C186.14 198.659 184.744 197.644 183.282 197.282C181.82 196.92 180.488 197.218 179.287 198.176C178.62 198.708 178.148 199.33 177.87 200.043C177.576 200.769 177.395 201.5 177.327 202.236L173.54 201.49C173.631 198.798 174.752 196.595 176.903 194.879Z" fill="#800080"/>
<path d="M168.845 201.182L177.897 219.979L173.659 222.02L170.174 214.784L163.687 217.908L167.172 225.144L162.905 227.199L153.853 208.401L158.12 206.347L161.896 214.189L168.383 211.065L164.607 203.223L168.845 201.182Z" fill="#800080"/>
<path d="M141.606 211.295C142.396 211.114 143.123 211.233 143.788 211.65C144.436 212.093 144.852 212.72 145.038 213.531C145.227 214.363 145.124 215.109 144.728 215.768C144.315 216.453 143.714 216.886 142.923 217.066C142.133 217.247 141.414 217.115 140.765 216.672C140.101 216.255 139.674 215.63 139.484 214.798C139.299 213.987 139.413 213.239 139.826 212.554C140.222 211.895 140.816 211.475 141.606 211.295Z" fill="#800080"/>
<circle cx="121" cy="121" r="75" fill="#C080C0"/>
<circle cx="121" cy="121" r="65" fill="#550055"/>
<path d="M81.232 117V106.568H83.808L85.488 111.208C85.5947 111.507 85.696 111.821 85.792 112.152C85.888 112.483 85.9893 112.808 86.096 113.128H86.16C86.2667 112.808 86.3627 112.483 86.448 112.152C86.544 111.821 86.6453 111.507 86.752 111.208L88.4 106.568H90.96V117H88.816V113.176C88.816 112.835 88.832 112.456 88.864 112.04C88.9067 111.613 88.9493 111.187 88.992 110.76C89.0453 110.333 89.088 109.955 89.12 109.624H89.056L88.208 112.104L86.72 116.088H85.424L83.936 112.104L83.104 109.624H83.04C83.0827 109.955 83.1253 110.333 83.168 110.76C83.2107 111.187 83.248 111.613 83.28 112.04C83.3227 112.456 83.344 112.835 83.344 113.176V117H81.232ZM96.7795 117.192C96.0222 117.192 95.3395 117.027 94.7315 116.696C94.1235 116.365 93.6435 115.891 93.2915 115.272C92.9395 114.653 92.7635 113.907 92.7635 113.032C92.7635 112.168 92.9395 111.427 93.2915 110.808C93.6542 110.189 94.1235 109.715 94.6995 109.384C95.2755 109.043 95.8782 108.872 96.5075 108.872C97.2648 108.872 97.8888 109.043 98.3795 109.384C98.8808 109.715 99.2542 110.168 99.4995 110.744C99.7555 111.309 99.8835 111.955 99.8835 112.68C99.8835 112.883 99.8728 113.085 99.8515 113.288C99.8302 113.48 99.8088 113.624 99.7875 113.72H95.0355C95.1422 114.296 95.3822 114.723 95.7555 115C96.1288 115.267 96.5768 115.4 97.0995 115.4C97.6648 115.4 98.2355 115.224 98.8115 114.872L99.5955 116.296C99.1902 116.573 98.7368 116.792 98.2355 116.952C97.7342 117.112 97.2488 117.192 96.7795 117.192ZM95.0195 112.168H97.8835C97.8835 111.731 97.7768 111.373 97.5635 111.096C97.3608 110.808 97.0248 110.664 96.5555 110.664C96.1928 110.664 95.8675 110.792 95.5795 111.048C95.2915 111.293 95.1048 111.667 95.0195 112.168ZM101.509 117V109.064H103.429L103.589 110.072H103.653C103.994 109.752 104.367 109.475 104.773 109.24C105.189 108.995 105.663 108.872 106.197 108.872C107.061 108.872 107.685 109.16 108.069 109.736C108.463 110.301 108.661 111.08 108.661 112.072V117H106.309V112.376C106.309 111.8 106.229 111.405 106.069 111.192C105.919 110.979 105.674 110.872 105.333 110.872C105.034 110.872 104.778 110.941 104.565 111.08C104.351 111.208 104.117 111.395 103.861 111.64V117H101.509ZM113.721 117.192C112.74 117.192 112.036 116.909 111.609 116.344C111.193 115.779 110.985 115.037 110.985 114.12V110.904H109.897V109.16L111.113 109.064L111.385 106.952H113.337V109.064H115.241V110.904H113.337V114.088C113.337 114.536 113.428 114.861 113.609 115.064C113.801 115.256 114.052 115.352 114.361 115.352C114.489 115.352 114.617 115.336 114.745 115.304C114.884 115.272 115.006 115.235 115.113 115.192L115.481 116.904C115.278 116.968 115.028 117.032 114.729 117.096C114.441 117.16 114.105 117.192 113.721 117.192ZM119.917 117.192C119.245 117.192 118.61 117.032 118.013 116.712C117.426 116.381 116.951 115.907 116.589 115.288C116.226 114.659 116.045 113.907 116.045 113.032C116.045 112.147 116.226 111.395 116.589 110.776C116.951 110.157 117.426 109.688 118.013 109.368C118.61 109.037 119.245 108.872 119.917 108.872C120.589 108.872 121.218 109.037 121.805 109.368C122.391 109.688 122.866 110.157 123.229 110.776C123.591 111.395 123.773 112.147 123.773 113.032C123.773 113.907 123.591 114.659 123.229 115.288C122.866 115.907 122.391 116.381 121.805 116.712C121.218 117.032 120.589 117.192 119.917 117.192ZM119.917 115.288C120.397 115.288 120.759 115.085 121.005 114.68C121.25 114.264 121.373 113.715 121.373 113.032C121.373 112.339 121.25 111.789 121.005 111.384C120.759 110.979 120.397 110.776 119.917 110.776C119.426 110.776 119.058 110.979 118.813 111.384C118.578 111.789 118.461 112.339 118.461 113.032C118.461 113.715 118.578 114.264 118.813 114.68C119.058 115.085 119.426 115.288 119.917 115.288ZM125.384 117V109.064H127.304L127.464 110.456H127.528C127.816 109.923 128.162 109.528 128.568 109.272C128.973 109.005 129.378 108.872 129.784 108.872C130.008 108.872 130.194 108.888 130.344 108.92C130.493 108.941 130.621 108.979 130.728 109.032L130.344 111.064C130.205 111.021 130.066 110.989 129.928 110.968C129.8 110.947 129.65 110.936 129.48 110.936C129.181 110.936 128.866 111.048 128.536 111.272C128.216 111.485 127.949 111.859 127.736 112.392V117H125.384ZM133.97 117.192C133.447 117.192 132.908 117.091 132.354 116.888C131.81 116.685 131.335 116.419 130.93 116.088L131.986 114.616C132.348 114.883 132.695 115.091 133.026 115.24C133.367 115.379 133.703 115.448 134.034 115.448C134.386 115.448 134.642 115.389 134.802 115.272C134.962 115.144 135.042 114.979 135.042 114.776C135.042 114.595 134.962 114.445 134.802 114.328C134.652 114.211 134.455 114.104 134.21 114.008C133.964 113.901 133.703 113.795 133.426 113.688C133.106 113.56 132.786 113.4 132.466 113.208C132.156 113.016 131.895 112.771 131.682 112.472C131.468 112.163 131.362 111.789 131.362 111.352C131.362 110.616 131.639 110.019 132.194 109.56C132.759 109.101 133.495 108.872 134.402 108.872C135.01 108.872 135.543 108.979 136.002 109.192C136.471 109.395 136.871 109.624 137.202 109.88L136.146 111.288C135.868 111.075 135.591 110.909 135.314 110.792C135.036 110.675 134.759 110.616 134.482 110.616C133.874 110.616 133.57 110.824 133.57 111.24C133.57 111.496 133.719 111.693 134.018 111.832C134.327 111.96 134.684 112.099 135.09 112.248C135.431 112.365 135.762 112.52 136.082 112.712C136.412 112.893 136.684 113.139 136.898 113.448C137.122 113.747 137.234 114.141 137.234 114.632C137.234 115.347 136.956 115.955 136.402 116.456C135.847 116.947 135.036 117.192 133.97 117.192ZM138.728 117V105.784H141.08V108.536L140.968 109.96C141.266 109.693 141.613 109.448 142.008 109.224C142.413 108.989 142.882 108.872 143.416 108.872C144.28 108.872 144.904 109.16 145.288 109.736C145.682 110.301 145.88 111.08 145.88 112.072V117H143.528V112.376C143.528 111.8 143.448 111.405 143.288 111.192C143.138 110.979 142.893 110.872 142.552 110.872C142.253 110.872 141.997 110.941 141.784 111.08C141.57 111.208 141.336 111.395 141.08 111.64V117H138.728ZM147.868 117V109.064H150.22V117H147.868ZM149.036 107.896C148.641 107.896 148.321 107.784 148.076 107.56C147.831 107.336 147.708 107.037 147.708 106.664C147.708 106.291 147.831 105.992 148.076 105.768C148.321 105.544 148.641 105.432 149.036 105.432C149.431 105.432 149.751 105.544 149.996 105.768C150.241 105.992 150.364 106.291 150.364 106.664C150.364 107.037 150.241 107.336 149.996 107.56C149.751 107.784 149.431 107.896 149.036 107.896ZM152.29 119.944V109.064H154.21L154.37 109.848H154.434C154.743 109.571 155.09 109.341 155.474 109.16C155.869 108.968 156.274 108.872 156.69 108.872C157.65 108.872 158.407 109.24 158.962 109.976C159.517 110.701 159.794 111.677 159.794 112.904C159.794 113.811 159.634 114.584 159.314 115.224C158.994 115.864 158.578 116.355 158.066 116.696C157.565 117.027 157.026 117.192 156.45 117.192C156.109 117.192 155.778 117.123 155.458 116.984C155.138 116.835 154.839 116.627 154.562 116.36L154.642 117.624V119.944H152.29ZM155.906 115.272C156.311 115.272 156.658 115.085 156.946 114.712C157.234 114.339 157.378 113.747 157.378 112.936C157.378 111.507 156.919 110.792 156.002 110.792C155.543 110.792 155.09 111.032 154.642 111.512V114.76C154.855 114.952 155.069 115.085 155.282 115.16C155.495 115.235 155.703 115.272 155.906 115.272ZM86.8831 130.72L86.6271 131.68H88.8511L88.6111 130.72C88.4725 130.197 88.3285 129.643 88.1791 129.056C88.0405 128.469 87.9018 127.904 87.7631 127.36H87.6991C87.5711 127.915 87.4378 128.485 87.2991 129.072C87.1711 129.648 87.0325 130.197 86.8831 130.72ZM83.1071 136L86.3711 125.568H89.2031L92.4671 136H89.9711L89.3311 133.52H86.1471L85.5071 136H83.1071ZM96.871 136.192C96.135 136.192 95.4683 136.032 94.871 135.712C94.2843 135.381 93.815 134.907 93.463 134.288C93.1217 133.659 92.951 132.907 92.951 132.032C92.951 131.147 93.143 130.395 93.527 129.776C93.911 129.157 94.4177 128.688 95.047 128.368C95.6763 128.037 96.3537 127.872 97.079 127.872C97.5697 127.872 98.0017 127.952 98.375 128.112C98.759 128.272 99.1003 128.475 99.399 128.72L98.295 130.24C97.9217 129.931 97.5643 129.776 97.223 129.776C96.6577 129.776 96.2043 129.979 95.863 130.384C95.5323 130.789 95.367 131.339 95.367 132.032C95.367 132.715 95.5323 133.264 95.863 133.68C96.2043 134.085 96.631 134.288 97.143 134.288C97.399 134.288 97.6497 134.235 97.895 134.128C98.1403 134.011 98.3643 133.872 98.567 133.712L99.495 135.248C99.1003 135.589 98.6737 135.835 98.215 135.984C97.7563 136.123 97.3083 136.192 96.871 136.192ZM103.887 136.192C103.151 136.192 102.484 136.032 101.887 135.712C101.3 135.381 100.831 134.907 100.479 134.288C100.137 133.659 99.9666 132.907 99.9666 132.032C99.9666 131.147 100.159 130.395 100.543 129.776C100.927 129.157 101.433 128.688 102.063 128.368C102.692 128.037 103.369 127.872 104.095 127.872C104.585 127.872 105.017 127.952 105.391 128.112C105.775 128.272 106.116 128.475 106.415 128.72L105.311 130.24C104.937 129.931 104.58 129.776 104.239 129.776C103.673 129.776 103.22 129.979 102.879 130.384C102.548 130.789 102.383 131.339 102.383 132.032C102.383 132.715 102.548 133.264 102.879 133.68C103.22 134.085 103.647 134.288 104.159 134.288C104.415 134.288 104.665 134.235 104.911 134.128C105.156 134.011 105.38 133.872 105.583 133.712L106.511 135.248C106.116 135.589 105.689 135.835 105.231 135.984C104.772 136.123 104.324 136.192 103.887 136.192ZM110.998 136.192C110.241 136.192 109.558 136.027 108.95 135.696C108.342 135.365 107.862 134.891 107.51 134.272C107.158 133.653 106.982 132.907 106.982 132.032C106.982 131.168 107.158 130.427 107.51 129.808C107.873 129.189 108.342 128.715 108.918 128.384C109.494 128.043 110.097 127.872 110.726 127.872C111.484 127.872 112.108 128.043 112.598 128.384C113.1 128.715 113.473 129.168 113.718 129.744C113.974 130.309 114.102 130.955 114.102 131.68C114.102 131.883 114.092 132.085 114.07 132.288C114.049 132.48 114.028 132.624 114.006 132.72H109.254C109.361 133.296 109.601 133.723 109.974 134C110.348 134.267 110.796 134.4 111.318 134.4C111.884 134.4 112.454 134.224 113.03 133.872L113.814 135.296C113.409 135.573 112.956 135.792 112.454 135.952C111.953 136.112 111.468 136.192 110.998 136.192ZM109.238 131.168H112.102C112.102 130.731 111.996 130.373 111.782 130.096C111.58 129.808 111.244 129.664 110.774 129.664C110.412 129.664 110.086 129.792 109.798 130.048C109.51 130.293 109.324 130.667 109.238 131.168ZM118.064 136.192C117.541 136.192 117.002 136.091 116.448 135.888C115.904 135.685 115.429 135.419 115.024 135.088L116.08 133.616C116.442 133.883 116.789 134.091 117.12 134.24C117.461 134.379 117.797 134.448 118.128 134.448C118.48 134.448 118.736 134.389 118.896 134.272C119.056 134.144 119.136 133.979 119.136 133.776C119.136 133.595 119.056 133.445 118.896 133.328C118.746 133.211 118.549 133.104 118.304 133.008C118.058 132.901 117.797 132.795 117.52 132.688C117.2 132.56 116.88 132.4 116.56 132.208C116.25 132.016 115.989 131.771 115.776 131.472C115.562 131.163 115.456 130.789 115.456 130.352C115.456 129.616 115.733 129.019 116.288 128.56C116.853 128.101 117.589 127.872 118.496 127.872C119.104 127.872 119.637 127.979 120.096 128.192C120.565 128.395 120.965 128.624 121.296 128.88L120.24 130.288C119.962 130.075 119.685 129.909 119.408 129.792C119.13 129.675 118.853 129.616 118.576 129.616C117.968 129.616 117.664 129.824 117.664 130.24C117.664 130.496 117.813 130.693 118.112 130.832C118.421 130.96 118.778 131.099 119.184 131.248C119.525 131.365 119.856 131.52 120.176 131.712C120.506 131.893 120.778 132.139 120.992 132.448C121.216 132.747 121.328 133.141 121.328 133.632C121.328 134.347 121.05 134.955 120.496 135.456C119.941 135.947 119.13 136.192 118.064 136.192ZM125.157 136.192C124.635 136.192 124.096 136.091 123.541 135.888C122.997 135.685 122.523 135.419 122.117 135.088L123.173 133.616C123.536 133.883 123.883 134.091 124.213 134.24C124.555 134.379 124.891 134.448 125.221 134.448C125.573 134.448 125.829 134.389 125.989 134.272C126.149 134.144 126.229 133.979 126.229 133.776C126.229 133.595 126.149 133.445 125.989 133.328C125.84 133.211 125.643 133.104 125.397 133.008C125.152 132.901 124.891 132.795 124.613 132.688C124.293 132.56 123.973 132.4 123.653 132.208C123.344 132.016 123.083 131.771 122.869 131.472C122.656 131.163 122.549 130.789 122.549 130.352C122.549 129.616 122.827 129.019 123.381 128.56C123.947 128.101 124.683 127.872 125.589 127.872C126.197 127.872 126.731 127.979 127.189 128.192C127.659 128.395 128.059 128.624 128.389 128.88L127.333 130.288C127.056 130.075 126.779 129.909 126.501 129.792C126.224 129.675 125.947 129.616 125.669 129.616C125.061 129.616 124.757 129.824 124.757 130.24C124.757 130.496 124.907 130.693 125.205 130.832C125.515 130.96 125.872 131.099 126.277 131.248C126.619 131.365 126.949 131.52 127.269 131.712C127.6 131.893 127.872 132.139 128.085 132.448C128.309 132.747 128.421 133.141 128.421 133.632C128.421 134.347 128.144 134.955 127.589 135.456C127.035 135.947 126.224 136.192 125.157 136.192Z" fill="white"/>
</svg>
