<svg width="124" height="141" viewBox="0 0 124 141" fill="none" xmlns="http://www.w3.org/2000/svg">
<path d="M12.2347 111.097C12.2347 111.097 11.8103 94.5758 15.1435 84.7608C18.4754 74.9458 1.94029 60.145 13.6983 50.306C18.8264 46.0154 41.753 20.7834 66.7143 29.4859C85.6647 36.0932 76.972 45.2046 80.724 55.0055C84.4761 64.805 89.9454 75.6296 91.9237 77.7869C93.9019 79.9428 90.0822 69.4679 90.0738 64.8064C90.0653 60.1436 104.189 64.485 108.899 71.59C113.608 78.6949 107.451 101.142 104.983 105.571C102.516 110 96.5048 111.097 96.5048 111.097H12.2347Z" fill="#D5AAD5"/>
<path d="M102.624 111.53L102.17 111.215C104.481 107.876 107.576 102.494 109.187 95.8264L109.723 95.9561C108.092 102.707 104.962 108.151 102.624 111.53Z" fill="#800080"/>
<path d="M111.579 104.802L105.303 106.235L105.425 106.773L111.702 105.339L111.579 104.802Z" fill="#800080"/>
<path d="M102.5 102.694L101.96 102.805L103.35 109.566L103.89 109.455L102.5 102.694Z" fill="#800080"/>
<path d="M96.6786 109.347L96.2212 109.654L97.4753 111.518L97.9327 111.21L96.6786 109.347Z" fill="#800080"/>
<path d="M7.35471 99.8934L7.23193 100.431L15.0822 102.224L15.205 101.687L7.35471 99.8934Z" fill="#800080"/>
<path d="M18.7817 97.1822L17.042 105.638L17.582 105.75L19.3217 97.2932L18.7817 97.1822Z" fill="#800080"/>
<path d="M26.06 105.547L22.0562 111.497L22.5135 111.805L26.5174 105.855L26.06 105.547Z" fill="#800080"/>
<path d="M12.3203 109.243L12.1553 109.769L18.9709 111.907L19.1359 111.381L12.3203 109.243Z" fill="#800080"/>
<path d="M71.6361 34.6987C70.3812 34.6987 69.3604 33.6779 69.3604 32.423C69.3604 31.1681 70.3812 30.1472 71.6361 30.1472C72.891 30.1472 73.9118 31.1681 73.9118 32.423C73.9118 33.6779 72.891 34.6987 71.6361 34.6987ZM71.6361 30.6985C70.6858 30.6985 69.9117 31.4712 69.9117 32.423C69.9117 33.3747 70.6843 34.1474 71.6361 34.1474C72.5864 34.1474 73.3605 33.3747 73.3605 32.423C73.3605 31.4712 72.5878 30.6985 71.6361 30.6985Z" fill="#800080"/>
<path d="M30.3334 40.4078C29.0785 40.4078 28.0576 39.387 28.0576 38.1321C28.0576 36.8772 29.0785 35.8563 30.3334 35.8563C31.5883 35.8563 32.6091 36.8772 32.6091 38.1321C32.6091 39.387 31.5883 40.4078 30.3334 40.4078ZM30.3334 36.4076C29.383 36.4076 28.6089 37.1803 28.6089 38.1321C28.6089 39.0824 29.3816 39.8565 30.3334 39.8565C31.2837 39.8565 32.0578 39.0838 32.0578 38.1321C32.0564 37.1803 31.2837 36.4076 30.3334 36.4076Z" fill="#800080"/>
<path d="M33.015 64.2989C31.7601 64.2989 30.7393 63.278 30.7393 62.0231C30.7393 60.7682 31.7601 59.7474 33.015 59.7474C34.2699 59.7474 35.2907 60.7682 35.2907 62.0231C35.2907 63.278 34.2699 64.2989 33.015 64.2989ZM33.015 60.3001C32.0647 60.3001 31.2906 61.0728 31.2906 62.0245C31.2906 62.9763 32.0632 63.749 33.015 63.749C33.9653 63.749 34.7394 62.9763 34.7394 62.0245C34.7394 61.0728 33.9653 60.3001 33.015 60.3001Z" fill="#800080"/>
<path d="M14.1185 76.5362C12.8636 76.5362 11.8428 75.5154 11.8428 74.2605C11.8428 73.0056 12.8636 71.9847 14.1185 71.9847C15.3734 71.9847 16.3943 73.0056 16.3943 74.2605C16.3943 75.5154 15.3734 76.5362 14.1185 76.5362ZM14.1185 72.5361C13.1682 72.5361 12.3941 73.3087 12.3941 74.2605C12.3941 75.2108 13.1668 75.9849 14.1185 75.9849C15.0689 75.9849 15.8429 75.2122 15.8429 74.2605C15.8429 73.3101 15.0689 72.5361 14.1185 72.5361Z" fill="#800080"/>
<path d="M113.405 113.326H3.87744C3.87744 112.094 4.87572 111.095 6.10806 111.095H111.176C112.407 111.097 113.405 112.095 113.405 113.326Z" fill="#3C3B3C"/>
<path d="M67.7053 58.7265L58.4331 56.8963L53.9648 41.3186L67.1469 42.981L67.7053 58.7265ZM58.8702 56.4197L67.13 58.0497L66.6125 43.4689L54.7262 41.97L58.8702 56.4197Z" fill="#800080"/>
<path d="M68.8331 58.6814L68.145 42.9415L81.1537 40.2414L77.9318 56.1236L68.8331 58.6814ZM68.7161 43.3857L69.3534 57.9609L77.4581 55.6823L80.4459 40.9506L68.7161 43.3857Z" fill="#800080"/>
<path d="M67.2146 58.6729L66.5928 42.9613L68.6951 42.8781L69.3169 58.5897L67.2146 58.6729ZM67.1666 43.4901L67.7447 58.0991L68.7444 58.0596L68.1663 43.4506L67.1666 43.4901Z" fill="#800080"/>
<path d="M67.3796 43.2052L67.3345 42.0561L67.4543 41.9701C67.4938 41.9419 68.4456 41.2566 70.2898 40.6235C71.979 40.0426 74.7736 39.3982 78.4904 39.6252L78.5651 39.6295L79.7312 40.4162L79.4224 40.8731L78.3804 40.1709C72.1863 39.8099 68.5809 41.8967 67.8971 42.3352L67.9309 43.1827L67.3796 43.2052Z" fill="#800080"/>
<path d="M67.3796 43.2052L67.3458 42.3578C67.0271 42.1872 66.1092 41.736 64.6611 41.3666C62.9959 40.9407 60.2704 40.5389 56.7228 41.0296L55.74 41.8121L55.396 41.3807L56.4958 40.505L56.5705 40.4952C60.2577 39.9749 63.0946 40.3965 64.8247 40.8406C66.7127 41.3271 67.7166 41.9334 67.7575 41.9588L67.883 42.0363L67.9281 43.1855L67.3796 43.2052Z" fill="#800080"/>
<path d="M67.8817 42.269L67.3501 42.1195C67.3797 42.0109 68.1369 39.4715 73.1847 38.9033C77.9321 38.3703 79.2928 37.4933 79.3055 37.4834L80.1064 36.949L79.7116 37.8246L78.7232 40.013L78.2198 39.786L78.9008 38.2787C78.0576 38.6058 76.3586 39.1007 73.2453 39.4504C70.8074 39.7239 69.4764 40.4811 68.7883 41.0662C68.0551 41.6951 67.8831 42.2633 67.8817 42.269Z" fill="#800080"/>
<path d="M68.4829 44.5347L66.9092 44.5977L66.9312 45.1486L68.5049 45.0856L68.4829 44.5347Z" fill="#800080"/>
<path d="M68.5337 45.8206L66.96 45.8836L66.982 46.4345L68.5557 46.3715L68.5337 45.8206Z" fill="#800080"/>
<path d="M68.9296 56.1708L67.3555 56.222L67.3734 56.773L68.9475 56.7218L68.9296 56.1708Z" fill="#800080"/>
<path d="M68.8896 54.8782L67.3154 54.9296L67.3334 55.4806L68.9075 55.4292L68.8896 54.8782Z" fill="#800080"/>
<path d="M68.2197 42.5946C68.3819 42.4719 68.5553 42.3676 68.7316 42.2661C68.9078 42.166 69.0883 42.0743 69.2716 41.9883C69.6382 41.8163 70.0161 41.6668 70.3996 41.5357L70.6886 41.4427C70.7845 41.4116 70.8832 41.3848 70.9805 41.3581C71.1751 41.3031 71.3711 41.2523 71.5685 41.2086C71.7645 41.1607 71.9647 41.1268 72.1635 41.0887C72.3637 41.0563 72.5639 41.0281 72.7642 41.007C72.5724 41.0732 72.3792 41.1282 72.1861 41.1874L71.8984 41.2763C71.8025 41.3059 71.7053 41.3327 71.6108 41.3637C71.5149 41.3947 71.419 41.4243 71.3231 41.4525C71.2273 41.4807 71.1328 41.5146 71.0369 41.5442C70.8452 41.6034 70.6562 41.6683 70.4659 41.7317C70.0866 41.8614 69.7101 41.9925 69.335 42.1364C68.9614 42.2816 68.5877 42.4282 68.2197 42.5946Z" fill="#800080"/>
<path d="M71.6025 41.8657C72.0974 41.6232 72.6191 41.4399 73.1451 41.2777C73.6724 41.117 74.2068 40.983 74.7482 40.8731C74.8836 40.8463 75.019 40.8223 75.1543 40.7969L75.3574 40.7603L75.5618 40.7292L75.9707 40.67C76.1075 40.6531 76.2443 40.6376 76.381 40.6235C76.6546 40.5897 76.9295 40.5756 77.2045 40.5558C77.2736 40.5516 77.3412 40.5474 77.4103 40.5459L77.6162 40.5403C77.7544 40.5375 77.8911 40.5347 78.0293 40.5347C77.7572 40.5812 77.4851 40.6136 77.2143 40.6559L76.8083 40.718C76.7406 40.7292 76.6729 40.7363 76.6052 40.749L76.4022 40.7828C76.2668 40.8054 76.1329 40.8279 75.9975 40.8477L75.5942 40.921L75.3926 40.9563L75.191 40.9957C75.057 41.0211 74.9217 41.0465 74.7891 41.0733C74.2533 41.1819 73.7204 41.2989 73.1888 41.43C72.6572 41.564 72.1285 41.7036 71.6025 41.8657Z" fill="#800080"/>
<path d="M67.4501 42.4945C67.0285 42.3944 66.6125 42.2858 66.1966 42.1745L64.9501 41.8417L63.7037 41.5132L62.4502 41.1973C62.8831 41.2199 63.3131 41.2791 63.7389 41.3567C64.1648 41.4356 64.5863 41.5301 65.0037 41.6429C65.4211 41.7543 65.8356 41.8812 66.2445 42.0208C66.652 42.1618 67.0567 42.314 67.4501 42.4945Z" fill="#800080"/>
<path d="M65.1926 42.4438C64.5947 42.3493 63.9983 42.2464 63.4047 42.1421L62.5122 41.987L62.0666 41.908L61.6211 41.8319C61.3235 41.7811 61.026 41.7275 60.7285 41.681C60.5805 41.657 60.431 41.6288 60.283 41.6063C60.1335 41.5837 59.9855 41.5597 59.836 41.5344C59.2396 41.4413 58.6431 41.3539 58.0425 41.2721C58.6488 41.2693 59.2537 41.3116 59.8571 41.375C60.1589 41.4075 60.4592 41.4455 60.7581 41.4878C60.9076 41.509 61.0585 41.5315 61.2065 41.5555L61.6549 41.6274C61.9524 41.6824 62.2513 41.7346 62.5474 41.7938C62.6955 41.8234 62.8435 41.8544 62.9916 41.8855C63.1396 41.9165 63.2877 41.9489 63.4343 41.9827C64.0251 42.1181 64.6131 42.2662 65.1926 42.4438Z" fill="#800080"/>
<path d="M51.517 39.4997C51.2858 38.204 50.5638 37.076 49.4838 36.323C48.4037 35.5701 47.0952 35.2838 45.7994 35.5151L45.7021 34.9722C47.1432 34.7156 48.5983 35.0343 49.7982 35.8718C50.9995 36.7094 51.8018 37.9628 52.0584 39.4039L51.517 39.4997Z" fill="#800080"/>
<path d="M49.8589 39.9482C49.5332 38.1208 47.7806 36.8997 45.9532 37.2255L45.856 36.6826C47.9822 36.3033 50.0225 37.7246 50.4018 39.8509L49.8589 39.9482Z" fill="#800080"/>
<path d="M48.2008 40.3979C48.026 39.4179 47.087 38.7623 46.1056 38.9371L46.0083 38.3943C47.2886 38.1658 48.5153 39.0217 48.7437 40.3006L48.2008 40.3979Z" fill="#800080"/>
<path d="M47.1926 40.8083C46.9769 41.1185 46.5496 41.1946 46.238 40.9789C45.9264 40.7631 45.8517 40.3359 46.0674 40.0257C46.2831 39.7155 46.7104 39.6394 47.0206 39.8551C47.3336 40.0708 47.4097 40.4981 47.1926 40.8083Z" fill="#800080"/>
<path d="M43.0331 108.193C42.2294 108.193 41.5752 108.851 41.5752 109.651C41.5752 110.05 41.7373 110.417 42.001 110.681C42.2647 110.944 42.6313 111.109 43.0331 111.109H71.384C72.1877 111.109 72.8419 110.452 72.8419 109.651C72.8419 109.252 72.677 108.886 72.4133 108.622C72.1496 108.358 71.7859 108.193 71.384 108.193H70.624H68.6824H53.4671H43.0331Z" fill="#D0B79E"/>
<path d="M73.785 108.193H71.3838C71.7856 108.193 72.1494 108.358 72.4131 108.622C72.6768 108.886 72.8417 109.252 72.8417 109.651C72.8417 110.452 72.1875 111.109 71.3838 111.109H73.785C74.1869 111.109 74.5507 110.944 74.8143 110.681C75.078 110.417 75.243 110.05 75.243 109.651C75.2444 108.851 74.5887 108.193 73.785 108.193Z" fill="#400040"/>
<path d="M66.3516 103.731L68.6837 108.193H70.6253L68.2903 103.731H66.3516Z" fill="#952B95"/>
<path d="M51.1362 103.731L53.467 108.193H68.6837L66.3515 103.731H51.1362Z" fill="#400040"/>
<path d="M26.3696 51.8457H90.8545C94.1412 51.8457 96.8061 54.5106 96.8061 57.8001V97.9738C96.8061 101.261 94.1412 103.928 90.8545 103.928H70.0471H68.1084H52.8931H26.3696C23.0829 103.928 20.418 101.261 20.418 97.9738V57.8001C20.418 54.5106 23.0829 51.8457 26.3696 51.8457ZM26.3724 97.125H90.8545C93.1444 97.125 95.0056 95.261 95.0056 92.9712V57.8001C95.0056 55.5103 93.1444 53.6463 90.8545 53.6463H26.3724C24.0826 53.6463 22.2185 55.5103 22.2185 57.8001V92.9698C22.2185 95.261 24.0826 97.125 26.3724 97.125Z" fill="#D0B79E"/>
<path d="M21.4292 44.054C22.4458 44.3346 23.148 45.9026 23.4511 47.9809C23.7543 50.0578 25.2461 52.6649 24.0236 53.5166C22.8011 54.3682 20.4295 52.9215 18.9109 54.5924C17.3924 56.2632 14.9531 56.6735 14.9531 56.6735C14.9531 56.6735 13.2865 55.6301 13.5022 52.0939C13.7179 48.5576 16.1459 49.5107 17.0103 47.9612C17.8746 46.4102 17.9959 43.1065 21.4292 44.054Z" fill="#1A001A"/>
<path d="M95.0043 57.8002V92.9698C95.0043 94.6294 94.0286 96.0647 92.6186 96.7274C92.0814 96.9827 91.4836 97.1237 90.8533 97.1237H26.3726C24.0828 97.1237 22.2188 95.2596 22.2188 92.9698V57.8002C22.2188 55.7387 23.7303 54.0214 25.7029 53.7013C25.9214 53.666 26.1456 53.6463 26.3726 53.6463H90.8547C91.0831 53.6463 91.3073 53.6646 91.5245 53.7013C93.4957 54.0214 95.0043 55.7387 95.0043 57.8002Z" fill="#EFEFEF"/>
<mask id="mask0_66_4302" style="mask-type:luminance" maskUnits="userSpaceOnUse" x="22" y="53" width="74" height="45">
<path d="M95.0043 57.8002V92.9698C95.0043 94.6294 94.0286 96.0633 92.6186 96.7274C92.0814 96.9827 91.4835 97.1237 90.8533 97.1237H26.3711C24.0813 97.1237 22.2173 95.2596 22.2173 92.9698V57.8002C22.2173 55.5103 24.0813 53.6463 26.3711 53.6463H90.8533C93.1445 53.6463 95.0043 55.5103 95.0043 57.8002Z" fill="white"/>
</mask>
<g mask="url(#mask0_66_4302)">
<path d="M58.3456 66.6931V84.201C58.3456 84.4703 58.1256 84.6903 57.8563 84.6903H26.2188C25.9495 84.6903 25.7295 84.4703 25.7295 84.201V66.6931H58.3456Z" fill="#D0B79E"/>
<path d="M58.3456 64.4821V66.693H25.7295V64.4821C25.7295 63.6587 26.4035 62.9833 27.2283 62.9833H56.8468C57.6716 62.9833 58.3456 63.6573 58.3456 64.4821Z" fill="#400040"/>
<path d="M28.9838 64.7599C28.9838 64.9996 28.7892 65.1942 28.5495 65.1942C28.3098 65.1942 28.1152 64.9996 28.1152 64.7599C28.1152 64.5202 28.3098 64.3256 28.5495 64.3256C28.7892 64.3256 28.9838 64.5202 28.9838 64.7599Z" fill="#FE875E"/>
<path d="M43.7801 80.628H29.8253C29.7576 80.628 29.7026 80.573 29.7026 80.5054C29.7026 80.4377 29.7576 80.3827 29.8253 80.3827H43.7801C43.8478 80.3827 43.9027 80.4377 43.9027 80.5054C43.9027 80.573 43.8478 80.628 43.7801 80.628Z" fill="#1A001A"/>
<path d="M43.7804 81.7969H28.1153C28.0477 81.7969 27.9927 81.7419 27.9927 81.6742C27.9927 81.6066 28.0477 81.5516 28.1153 81.5516H43.7804C43.8481 81.5516 43.9031 81.6066 43.9031 81.6742C43.9031 81.7419 43.8481 81.7969 43.7804 81.7969Z" fill="#1A001A"/>
<path d="M43.7804 82.8953H28.1153C28.0477 82.8953 27.9927 82.8403 27.9927 82.7726C27.9927 82.705 28.0477 82.65 28.1153 82.65H43.7804C43.8481 82.65 43.9031 82.705 43.9031 82.7726C43.9031 82.8403 43.8481 82.8953 43.7804 82.8953Z" fill="#1A001A"/>
<path d="M55.8501 69.8232H50.5499C50.4822 69.8232 50.4272 69.7682 50.4272 69.7006C50.4272 69.6329 50.4822 69.5779 50.5499 69.5779H55.8501C55.9178 69.5779 55.9728 69.6329 55.9728 69.7006C55.9728 69.7696 55.9178 69.8232 55.8501 69.8232Z" fill="#1A001A"/>
<path d="M55.8497 70.9935H49.8995C49.8318 70.9935 49.7769 70.9385 49.7769 70.8708C49.7769 70.8032 49.8318 70.7482 49.8995 70.7482H55.8497C55.9174 70.7482 55.9724 70.8032 55.9724 70.8708C55.9724 70.9385 55.9174 70.9935 55.8497 70.9935Z" fill="#1A001A"/>
<path d="M55.8497 72.0905H49.8995C49.8318 72.0905 49.7769 72.0355 49.7769 71.9678C49.7769 71.9001 49.8318 71.8452 49.8995 71.8452H55.8497C55.9174 71.8452 55.9724 71.9001 55.9724 71.9678C55.9724 72.0355 55.9174 72.0905 55.8497 72.0905Z" fill="#1A001A"/>
<path d="M55.8501 75.2433H50.5499C50.4822 75.2433 50.4272 75.1883 50.4272 75.1206C50.4272 75.0529 50.4822 74.9979 50.5499 74.9979H55.8501C55.9178 74.9979 55.9728 75.0529 55.9728 75.1206C55.9728 75.1883 55.9178 75.2433 55.8501 75.2433Z" fill="#1A001A"/>
<path d="M55.8497 76.4136H49.8995C49.8318 76.4136 49.7769 76.3586 49.7769 76.2909C49.7769 76.2233 49.8318 76.1683 49.8995 76.1683H55.8497C55.9174 76.1683 55.9724 76.2233 55.9724 76.2909C55.9724 76.3586 55.9174 76.4136 55.8497 76.4136Z" fill="#1A001A"/>
<path d="M55.8497 77.5105H49.8995C49.8318 77.5105 49.7769 77.4555 49.7769 77.3879C49.7769 77.3202 49.8318 77.2652 49.8995 77.2652H55.8497C55.9174 77.2652 55.9724 77.3202 55.9724 77.3879C55.9724 77.4555 55.9174 77.5105 55.8497 77.5105Z" fill="#1A001A"/>
<path d="M55.8501 80.6633H50.5499C50.4822 80.6633 50.4272 80.6083 50.4272 80.5406C50.4272 80.473 50.4822 80.418 50.5499 80.418H55.8501C55.9178 80.418 55.9728 80.473 55.9728 80.5406C55.9728 80.6097 55.9178 80.6633 55.8501 80.6633Z" fill="#1A001A"/>
<path d="M55.8497 81.8336H49.8995C49.8318 81.8336 49.7769 81.7786 49.7769 81.7109C49.7769 81.6432 49.8318 81.5883 49.8995 81.5883H55.8497C55.9174 81.5883 55.9724 81.6432 55.9724 81.7109C55.9724 81.7786 55.9174 81.8336 55.8497 81.8336Z" fill="#1A001A"/>
<path d="M55.8497 82.9306H49.8995C49.8318 82.9306 49.7769 82.8756 49.7769 82.8079C49.7769 82.7402 49.8318 82.6852 49.8995 82.6852H55.8497C55.9174 82.6852 55.9724 82.7402 55.9724 82.8079C55.9724 82.8756 55.9174 82.9306 55.8497 82.9306Z" fill="#1A001A"/>
<path d="M31.2255 64.7599C31.2255 64.9996 31.0309 65.1942 30.7912 65.1942C30.5515 65.1942 30.3569 64.9996 30.3569 64.7599C30.3569 64.5202 30.5515 64.3256 30.7912 64.3256C31.0309 64.3256 31.2255 64.5202 31.2255 64.7599Z" fill="#FEC65E"/>
<path d="M32.9206 65.1942C33.1605 65.1942 33.3549 64.9998 33.3549 64.7599C33.3549 64.5201 33.1605 64.3256 32.9206 64.3256C32.6808 64.3256 32.4863 64.5201 32.4863 64.7599C32.4863 64.9998 32.6808 65.1942 32.9206 65.1942Z" fill="#800080"/>
<path d="M42.7045 79.4014H29.1896C28.596 79.4014 28.1138 78.9191 28.1138 78.3255V70.2899C28.1138 69.6963 28.596 69.2141 29.1896 69.2141H42.7045C43.2981 69.2141 43.7803 69.6963 43.7803 70.2899V78.3255C43.7803 78.9191 43.2995 79.4014 42.7045 79.4014Z" fill="#F5F3F6"/>
<path d="M48.9565 69.2141H45.7163V72.4543H48.9565V69.2141Z" fill="#F5F3F6"/>
<path d="M48.9565 74.6341H45.7163V77.8743H48.9565V74.6341Z" fill="#F5F3F6"/>
<path d="M48.9565 80.0541H45.7163V83.2943H48.9565V80.0541Z" fill="#F5F3F6"/>
<path d="M40.9361 72.9281C40.9361 73.2918 40.6414 73.5865 40.2776 73.5865C39.9138 73.5865 39.6191 73.2918 39.6191 72.9281C39.6191 72.5643 39.9138 72.2696 40.2776 72.2696C40.6414 72.2696 40.9361 72.5643 40.9361 72.9281Z" fill="#400040"/>
<path d="M29.8369 77.0001L33.565 73.272C33.8117 73.0253 34.2107 73.0253 34.4575 73.272L36.2933 75.1079C36.5401 75.3546 36.9391 75.3546 37.1858 75.1079L38.0431 74.2506C38.2899 74.0038 38.6889 74.0038 38.9356 74.2506L41.6753 76.9902L29.8369 77.0001Z" fill="#400040"/>
</g>
<mask id="mask1_66_4302" style="mask-type:luminance" maskUnits="userSpaceOnUse" x="22" y="53" width="74" height="45">
<path d="M95.0043 57.8002V92.9698C95.0043 94.6294 94.0286 96.0633 92.6186 96.7274C92.0814 96.9827 91.4835 97.1237 90.8533 97.1237H26.3711C24.0813 97.1237 22.2173 95.2596 22.2173 92.9698V57.8002C22.2173 55.5103 24.0813 53.6463 26.3711 53.6463H90.8533C93.1445 53.6463 95.0043 55.5103 95.0043 57.8002Z" fill="white"/>
</mask>
<g mask="url(#mask1_66_4302)">
<path d="M49.4587 82.8615L50.1496 83.4847C51.052 84.2983 52.455 84.2264 53.2686 83.324C54.0821 82.4216 54.0102 81.0186 53.1078 80.205L52.4169 79.5818C51.5145 78.7682 50.1116 78.8402 49.298 79.7426C48.4844 80.645 48.5563 82.0479 49.4587 82.8615Z" fill="#FAE0B2"/>
<path d="M53.2134 81.1582C53.6279 81.0891 53.9959 81.8843 53.9268 81.4698L53.5729 78.6625C53.5038 78.2479 53.109 77.9659 52.6945 78.035C52.28 78.1041 51.998 78.4989 52.0671 78.9134L52.3364 80.5307C52.404 80.9438 52.7988 81.2273 53.2134 81.1582Z" fill="#FAE0B2"/>
<path d="M52.21 80.4236C52.4906 80.112 52.4667 79.6269 52.1551 79.3449L50.9368 78.2465C50.6252 77.9659 50.1402 77.9899 49.8582 78.3015C49.5776 78.6131 49.6015 79.0982 49.9132 79.3802L51.1314 80.4786C51.4444 80.7606 51.9295 80.7366 52.21 80.4236Z" fill="#FAE0B2"/>
<path d="M50.8053 80.4363C51.0858 80.1247 51.0619 79.6396 50.7503 79.3576L49.532 78.2592C49.2204 77.9786 48.7354 78.0026 48.4534 78.3142C48.1728 78.6258 48.1968 79.1109 48.5084 79.3929L49.7266 80.4913C50.0382 80.7733 50.5233 80.7479 50.8053 80.4363Z" fill="#FAE0B2"/>
<path d="M50.4571 81.4077C50.7377 81.0961 50.7137 80.6111 50.4021 80.3291L49.1839 79.2307C48.8723 78.9501 48.3872 78.974 48.1052 79.2857C47.8246 79.5973 47.8486 80.0823 48.1602 80.3643L49.3785 81.4627C49.6901 81.7433 50.1751 81.7193 50.4571 81.4077Z" fill="#FAE0B2"/>
<path d="M50.5162 82.7402C50.7968 82.4286 50.7728 81.9436 50.4612 81.6616L49.243 80.5632C48.9314 80.2826 48.4463 80.3066 48.1643 80.6182C47.8837 80.9298 47.9077 81.4148 48.2193 81.6968L49.4375 82.7952C49.7492 83.0772 50.2342 83.0532 50.5162 82.7402Z" fill="#FAE0B2"/>
<path d="M64.1835 80.9565C67.497 76.3642 72.487 75.4858 73.0989 75.3941C68.7561 76.1499 65.4257 79.8525 65.2466 84.3645C65.2396 84.4928 65.2367 84.6226 65.2367 84.7523V90.4317C57.9372 94.5278 51.1748 84.6493 51.1748 84.6493L54.5475 81.5177C57.2787 84.49 60.6514 85.8549 64.1835 80.9565Z" fill="#400040"/>
<path d="M91.8294 92.3268C91.8294 98.2375 90.3532 103.051 85.7523 107.486C85.5944 107.439 85.1249 107.335 83.9391 106.19C83.1932 105.472 82.6799 103.842 82.6799 103.842C82.6799 103.842 82.921 103.446 83.2623 102.771L81.5942 102.772L71.2603 102.782L65.3764 102.789C64.8829 102.79 64.4909 102.374 64.5234 101.881L65.2382 90.4318V84.7523C65.2382 84.6226 65.2411 84.4928 65.2481 84.3645C65.4272 79.8525 68.7576 76.1499 73.1004 75.3941C73.1215 75.3913 73.1413 75.3885 73.1624 75.3842C73.6743 75.2982 74.2002 75.2545 74.736 75.2545H78.1002C78.6346 75.2545 79.1592 75.2982 79.6696 75.3842C80.3689 75.4999 81.0429 75.693 81.6831 75.9539C87.1722 77.9039 91.828 84.7382 91.8294 92.3268Z" fill="#550055"/>
<path d="M80.1517 102.79H69.8164V102.782L71.531 77.2017C71.531 77.2017 72.752 75.2559 73.2892 75.2559H76.6535C77.1879 75.2559 77.7124 75.2996 78.2228 75.3856L78.354 77.2539L80.1503 102.772L80.1517 102.79Z" fill="#F7CC7F"/>
<path d="M71.6252 75.7128L69.8148 105.964L64.1367 104.752L66.2545 89.8043C66.2545 89.8043 67.0371 85.0258 67.752 82.3736C68.4682 79.7228 71.6252 75.7128 71.6252 75.7128Z" fill="#550055"/>
<path d="M78.2227 75.3856L80.1515 105.949L86.9365 105.185C86.9365 105.185 87.9432 100.243 88.8865 95.6036C89.8298 90.9647 88.9711 82.8643 86.6164 80.597C84.2617 78.3297 78.2227 75.3856 78.2227 75.3856Z" fill="#550055"/>
<path d="M81.1597 84.5958C81.1597 84.5958 82.2341 86.9744 83.0364 90.6686C83.8401 94.3628 82.6811 103.845 82.6811 103.845L83.2648 102.713C83.2648 102.713 85.9043 97.2942 85.5152 93.9624C85.1246 90.6278 83.8189 87.6766 81.1597 84.5958Z" fill="#400040"/>
<path d="M49.805 78.4013L49.6934 78.513L51.4501 80.2697L51.5618 80.1581L49.805 78.4013Z" fill="#FE875E"/>
<path d="M48.3714 79.0664L48.2598 79.1781L49.9807 80.8989L50.0923 80.7873L48.3714 79.0664Z" fill="#FE875E"/>
<path d="M48.4007 80.475L48.2891 80.5867L49.7677 82.0652L49.8793 81.9536L48.4007 80.475Z" fill="#FE875E"/>
<path d="M55.4991 82.3906C55.5005 82.3849 55.502 82.3807 55.502 82.3751C55.502 82.3694 55.5005 82.3652 55.4991 82.361C55.4977 82.3553 55.4977 82.3511 55.4963 82.3455C55.4949 82.3412 55.4907 82.337 55.4879 82.3313C55.485 82.3271 55.4836 82.3229 55.4808 82.3201L55.4794 82.3187L55.478 82.3173L54.6433 81.4924C54.6404 81.4896 54.6362 81.4882 54.632 81.4853C54.6278 81.4825 54.6235 81.4783 54.6179 81.4769C54.6137 81.4755 54.608 81.4741 54.6038 81.4741C54.5981 81.4727 54.5939 81.4713 54.5883 81.4713C54.5826 81.4713 54.5784 81.4727 54.5728 81.4741C54.5685 81.4755 54.5629 81.4755 54.5587 81.4769C54.553 81.4783 54.5488 81.4825 54.5446 81.4853C54.5403 81.4882 54.5375 81.4896 54.5333 81.4924L53.9115 82.0578L53.6013 82.3384L52.9823 82.901L52.6735 83.1816L51.1197 84.593C51.1169 84.5958 51.1154 84.6 51.1126 84.6029C51.1098 84.6071 51.1056 84.6113 51.1042 84.6156C51.1013 84.6198 51.0999 84.6254 51.0985 84.6297C51.0971 84.6339 51.0957 84.6381 51.0957 84.6438C51.0957 84.6494 51.0957 84.6536 51.0971 84.6593C51.0971 84.6635 51.0971 84.6691 51.0985 84.6734C51.0999 84.679 51.1028 84.6832 51.1056 84.6875C51.107 84.6903 51.1084 84.6945 51.1098 84.6973L51.8148 85.642C51.8162 85.6434 51.8162 85.6434 51.8176 85.6448C51.819 85.6463 51.819 85.6477 51.8204 85.6491C51.8247 85.6547 51.8317 85.6575 51.836 85.6604C51.8388 85.6632 51.8416 85.666 51.8458 85.6674C51.8557 85.6716 51.867 85.6745 51.8797 85.6745C51.8952 85.6745 51.9093 85.6688 51.9234 85.6604C51.9248 85.659 51.9262 85.6604 51.9276 85.659C51.929 85.6575 51.929 85.6575 51.9304 85.6561C51.9318 85.6547 51.9332 85.6547 51.9347 85.6533L53.5435 84.1911L53.8664 83.8979L54.5121 83.3113L54.835 83.018L55.478 82.4343L55.4794 82.4329C55.4794 82.4329 55.4808 82.4329 55.4808 82.4315C55.4836 82.4286 55.485 82.4244 55.4879 82.4202C55.4907 82.4159 55.4949 82.4117 55.4963 82.4075C55.4977 82.4004 55.4991 82.3948 55.4991 82.3906ZM55.1043 82.557L54.3937 81.8336L54.5869 81.6574L55.3088 82.3708L55.1043 82.557ZM54.7829 82.8488L54.0821 82.117L54.2767 81.9408L54.9873 82.6641L54.7829 82.8488ZM54.4614 83.1407L53.7705 82.399L53.9651 82.2228L54.6658 82.956L54.4614 83.1407ZM54.1413 83.4326L53.4603 82.681L53.6549 82.5048L54.3458 83.2464L54.1413 83.4326ZM53.8198 83.7244L53.1487 82.963L53.3432 82.7868L54.0243 83.5383L53.8198 83.7244ZM53.4983 84.0177L52.8371 83.2478L53.0316 83.0716L53.7028 83.833L53.4983 84.0177ZM53.1769 84.3096L52.5254 83.5298L52.72 83.3536L53.3813 84.1235L53.1769 84.3096ZM52.8554 84.6015L52.2152 83.8118L52.4084 83.6356L53.0598 84.4153L52.8554 84.6015ZM52.5339 84.8933L51.9036 84.0953L52.0968 83.919L52.7369 84.7086L52.5339 84.8933ZM52.2124 85.1852L51.592 84.3773L51.7852 84.201L52.4155 84.9991L52.2124 85.1852ZM51.8924 85.4771L51.2818 84.6593L51.475 84.483L52.0954 85.2909L51.8924 85.4771Z" fill="#AA55AA"/>
<path d="M78.3638 77.6304C77.5404 78.028 76.2968 78.2226 74.9601 78.2226C73.567 78.2226 72.3206 77.9504 71.4971 77.5232L71.6099 75.8552L71.6198 75.7156C71.6212 75.7142 71.624 75.7142 71.6269 75.7142H71.6198C71.6198 75.7142 71.7016 75.6846 71.8031 75.6155C71.9695 75.5013 72.1852 75.2813 72.1655 74.9133C72.157 74.737 71.9906 74.2309 71.9906 74.2309L71.8059 73.5216L71.8031 73.5132L71.1348 70.9371L77.8393 70.3491C77.8393 70.3491 77.2654 73.4314 77.3557 74.5735C77.4163 75.3307 78.2468 75.2573 78.2468 75.2573L78.3638 77.6304Z" fill="#FAE0B2"/>
<path d="M76.8753 72.3429C76.8753 72.3429 76.3691 75.0473 72.6185 75.7114C72.3817 75.7537 71.9192 75.8214 71.6118 75.8538L71.6217 75.7142C71.6231 75.7128 71.6259 75.7128 71.6287 75.7128H71.6217C71.6217 75.7128 71.7035 75.6832 71.805 75.6141C71.9714 75.4999 72.1871 75.2799 72.1674 74.9119C72.1589 74.7357 71.9798 74.1759 71.9798 74.1759C71.9798 74.1759 75.5852 74.5256 76.8753 72.3429Z" fill="#FE875E"/>
<path d="M79.1254 68.2511C79.014 71.3686 77.0555 74.2492 73.938 74.1378C70.8205 74.0265 68.0766 74.1364 67.8369 67.845C67.6705 63.4782 70.5667 62.2924 73.6828 62.4038C76.8017 62.5166 79.2382 65.1336 79.1254 68.2511Z" fill="#FAE0B2"/>
<path d="M68.6391 65.8315C68.8859 66.0133 69.2652 66.1628 69.8475 66.2248C71.8751 66.4392 75.5594 64.781 75.5594 64.781C75.5594 64.781 75.1984 65.878 75.3197 67.8604C75.3197 67.8604 75.9725 66.6027 76.9031 67.8069C77.735 68.8883 76.5492 70.1686 75.8386 69.8894C75.8386 69.8894 77.9532 74.3309 76.7279 74.5523C75.5012 74.7737 72.5702 74.2927 70.7358 73.8302C68.9028 73.3663 68.5334 71.6618 68.5334 71.6618C70.1196 75.4039 75.4297 74.0348 75.4297 74.0348C75.4297 74.0348 76.0896 74.6975 77.5052 74.5523C78.9208 74.4071 79.2028 71.3544 79.2028 71.3544C80.1602 71.6956 81.2445 69.8147 81.4109 66.9454C81.5773 64.076 78.9194 63.99 78.9194 63.99C78.9194 63.99 79.2367 61.9807 76.1248 60.857C73.0933 59.7628 72.0161 60.9416 71.9611 61.0036C71.9879 60.9106 72.5758 58.9507 70.9854 58.921C69.3568 58.8914 69.5613 60.5595 69.5613 60.5595C68.6391 62.181 70.6568 60.5693 67.6338 62.604L68.2429 64.7246C68.2429 64.7246 68.0272 65.3788 68.6391 65.8315Z" fill="#550055"/>
<path d="M75.3423 66.0571C75.3423 66.0571 75.2591 68.0128 75.3606 69.2479C75.4621 70.4817 75.5453 71.7394 74.7515 72.3471C74.7515 72.3471 76.27 71.9002 75.8569 69.709C75.4438 67.5179 75.565 67.3684 75.8245 66.6634C76.0853 65.9598 75.3423 66.0571 75.3423 66.0571Z" fill="#550055"/>
</g>
<path d="M95.0043 57.8002V58.6321H22.2173V57.8002C22.2173 54.9153 24.7835 53.6463 26.1596 53.6463H91.0887C92.7201 53.6463 95.0043 55.1888 95.0043 57.8002Z" fill="#400040"/>
<path d="M26.4456 57.112C26.9681 57.112 27.3917 56.6884 27.3917 56.1659C27.3917 55.6434 26.9681 55.2198 26.4456 55.2198C25.9231 55.2198 25.4995 55.6434 25.4995 56.1659C25.4995 56.6884 25.9231 57.112 26.4456 57.112Z" fill="black"/>
<path d="M31.3314 57.112C31.8539 57.112 32.2775 56.6884 32.2775 56.1659C32.2775 55.6434 31.8539 55.2198 31.3314 55.2198C30.8088 55.2198 30.3853 55.6434 30.3853 56.1659C30.3853 56.6884 30.8088 57.112 31.3314 57.112Z" fill="black"/>
<path d="M35.9705 57.112C36.493 57.112 36.9166 56.6884 36.9166 56.1659C36.9166 55.6434 36.493 55.2198 35.9705 55.2198C35.448 55.2198 35.0244 55.6434 35.0244 56.1659C35.0244 56.6884 35.448 57.112 35.9705 57.112Z" fill="black"/>
<path d="M60.0743 97.1237H56.3675L42.3647 53.6463H46.0688L60.0743 97.1237Z" fill="white"/>
<path d="M95.0043 92.6314V92.9712C95.0043 94.6308 94.0285 96.0647 92.6185 96.7288L78.7441 53.6477H82.4482L95.0043 92.6314Z" fill="white"/>
<path d="M15.4785 90.9083V107.931C15.4785 108.973 16.3259 109.821 17.3679 109.821H39.856C40.898 109.821 41.7454 108.973 41.7454 107.931V90.9083H15.4785ZM40.9586 107.215C40.9586 108.098 40.2395 108.815 39.3569 108.815H18.118C17.234 108.815 16.5163 108.098 16.5163 107.215V93.717C16.5163 92.833 17.234 92.1153 18.118 92.1153H39.3555C40.2381 92.1153 40.9572 92.833 40.9572 93.717V107.215H40.9586Z" fill="#800080"/>
<path d="M40.9585 93.7171V107.215C40.9585 108.098 40.2394 108.815 39.3567 108.815H18.1179C17.2338 108.815 16.5161 108.098 16.5161 107.215V93.7171C16.5161 92.833 17.2338 92.1153 18.1179 92.1153H39.3553C40.238 92.1153 40.9585 92.8344 40.9585 93.7171Z" fill="#AA55AA"/>
<path d="M41.7454 88.9639V90.9083H15.4785V88.9639C15.4785 87.9219 16.3259 87.0745 17.3679 87.0745H39.856C40.898 87.0745 41.7454 87.9233 41.7454 88.9639Z" fill="#400040"/>
<path d="M38.3936 88.8666C38.3936 89.119 38.598 89.3249 38.8518 89.3249C39.1042 89.3249 39.3101 89.1204 39.3101 88.8666C39.3101 88.6142 39.1056 88.4084 38.8518 88.4084C38.5994 88.4084 38.3936 88.6142 38.3936 88.8666Z" fill="#800080"/>
<path d="M36.0264 88.8666C36.0264 89.119 36.2308 89.3249 36.4846 89.3249C36.7384 89.3249 36.9429 89.1204 36.9429 88.8666C36.9429 88.6142 36.7384 88.4084 36.4846 88.4084C36.2308 88.4084 36.0264 88.6142 36.0264 88.8666Z" fill="#FEC65E"/>
<path d="M26.3343 92.3028C26.3343 92.3028 26.5148 93.1573 26.5614 93.7086C26.6079 94.2599 26.6643 94.8182 27.0577 95.0269C27.0577 95.0269 26.3569 94.9423 26.3766 93.9483C26.3978 92.9542 26.3329 92.8964 26.1666 92.6059C26.0002 92.3141 26.3343 92.3028 26.3343 92.3028Z" fill="#1A001A"/>
<path d="M33.7803 88.8666C33.7803 89.119 33.9861 89.3249 34.2385 89.3249C34.4909 89.3249 34.6968 89.1204 34.6968 88.8666C34.6968 88.6142 34.4923 88.4084 34.2385 88.4084C33.9847 88.4084 33.7803 88.6142 33.7803 88.8666Z" fill="#FE875E"/>
<path d="M31.6777 107.542C32.1146 107.542 32.4687 107.188 32.4687 106.751C32.4687 106.314 32.1146 105.96 31.6777 105.96C31.2409 105.96 30.8867 106.314 30.8867 106.751C30.8867 107.188 31.2409 107.542 31.6777 107.542Z" fill="white"/>
<path d="M27.1587 106.318C27.1587 106.994 27.7072 107.542 28.3826 107.542C29.058 107.542 29.6064 106.994 29.6064 106.318C29.6064 105.643 29.058 105.094 28.3826 105.094C27.7058 105.094 27.1587 105.643 27.1587 106.318Z" fill="white"/>
<path d="M25.5459 107.542C25.9828 107.542 26.3369 107.188 26.3369 106.751C26.3369 106.314 25.9828 105.96 25.5459 105.96C25.109 105.96 24.7549 106.314 24.7549 106.751C24.7549 107.188 25.109 107.542 25.5459 107.542Z" fill="white"/>
<path d="M6.64941 44.8972V61.9201C6.64941 62.9621 7.49682 63.8095 8.53881 63.8095H31.0269C32.0689 63.8095 32.9163 62.9621 32.9163 61.9201V44.8972H6.64941ZM7.43619 47.7059C7.43619 46.8219 8.15529 46.1042 9.03795 46.1042H30.2754C31.1594 46.1042 31.8771 46.8219 31.8771 47.7059V61.2039C31.8771 62.0865 31.1594 62.8042 30.2754 62.8042H9.03795C8.15529 62.8042 7.43619 62.0865 7.43619 61.2039V47.7059Z" fill="#FBE7D3"/>
<path d="M7.43604 47.7059V61.2039C7.43604 62.0865 8.15514 62.8042 9.0378 62.8042H30.2752C31.1593 62.8042 31.877 62.0865 31.877 61.2039V47.7059C31.877 46.8219 31.1593 46.1042 30.2752 46.1042H9.0378C8.15514 46.1042 7.43604 46.8233 7.43604 47.7059Z" fill="#FCEDDE"/>
<path d="M6.64941 42.9528V44.8972H32.9163V42.9528C32.9163 41.9108 32.0689 41.0634 31.0269 41.0634H8.53881C7.49682 41.0634 6.64941 41.9122 6.64941 42.9528Z" fill="#8A8A8A"/>
<path d="M10.001 42.8555C10.001 43.1079 9.79652 43.3137 9.54272 43.3137C9.28892 43.3137 9.08447 43.1093 9.08447 42.8555C9.08447 42.6031 9.28892 42.3972 9.54272 42.3972C9.79652 42.3972 10.001 42.6031 10.001 42.8555Z" fill="#FE875E"/>
<path d="M12.3667 42.8555C12.3667 43.1079 12.1622 43.3137 11.9084 43.3137C11.6546 43.3137 11.4502 43.1093 11.4502 42.8555C11.4502 42.6031 11.6546 42.3972 11.9084 42.3972C12.1622 42.3972 12.3667 42.6031 12.3667 42.8555Z" fill="#FEC65E"/>
<path d="M14.6143 42.8555C14.6143 43.1079 14.4098 43.3137 14.156 43.3137C13.9022 43.3137 13.6978 43.1093 13.6978 42.8555C13.6978 42.6031 13.9022 42.3972 14.156 42.3972C14.4098 42.3972 14.6143 42.6031 14.6143 42.8555Z" fill="#800080"/>
<path d="M21.4292 44.054C22.4458 44.3346 23.148 45.9026 23.4511 47.9809C23.7543 50.0578 25.2461 52.6649 24.0236 53.5166C22.8011 54.3682 20.4295 52.9215 18.9109 54.5924C17.3924 56.2632 14.9531 56.6735 14.9531 56.6735C14.9531 56.6735 13.2865 55.6301 13.5022 52.0939C13.7179 48.5576 16.1459 49.5107 17.0103 47.9612C17.8746 46.4102 17.9959 43.1065 21.4292 44.054Z" fill="#1A001A"/>
<path d="M18.3496 48.7944L20.9229 48.9467L20.6944 49.9408L20.693 49.9436L20.6296 50.2171L20.5704 50.4808L20.5577 50.5358L20.2573 50.6049L20.4801 50.7769C20.4801 50.7769 20.4265 51.183 19.6313 51.2718C18.8361 51.3606 18.5103 51.0039 18.5103 51.0039L18.3496 48.7944Z" fill="#FAE0B2"/>
<path d="M18.1817 48.0316C18.2579 49.2245 19.0207 50.1297 20.1952 50.3426C21.0948 50.5048 21.7279 50.0648 22.4977 47.7538C22.8756 46.6202 21.3923 45.6572 20.2008 45.7347C19.0094 45.8109 18.1056 46.8388 18.1817 48.0316Z" fill="#FAE0B2"/>
<path d="M19.3226 50.4935C19.5581 50.6782 19.9035 50.839 20.4083 50.9264C20.4083 50.9264 20.459 50.8742 20.4788 50.7769C20.483 50.7586 20.4887 50.7346 20.4971 50.7064C20.5352 50.5753 20.6141 50.3666 20.6141 50.3666C20.6141 50.3666 19.2323 50.3582 18.8136 49.4825C18.815 49.4825 18.7572 50.0536 19.3226 50.4935Z" fill="#FE875E"/>
<path d="M18.0899 47.5311C18.0899 47.5311 20.8676 48.1233 22.1437 46.5258C22.1437 46.5258 21.3456 47.6651 20.7012 47.6256C20.7012 47.6256 21.629 47.8032 22.1634 46.7119C22.1634 46.7119 22.4482 47.6298 22.9361 47.7694C22.9361 47.7694 23.07 45.1101 20.7844 45.0368C18.4988 44.9621 18.0843 46.4877 18.0899 47.5311Z" fill="#1A001A"/>
<path d="M18.1251 51.0533L17.2072 64.0901L15.0062 63.842C15.0062 63.842 14.5734 61.7213 14.1687 59.7304C13.764 57.7395 14.132 54.2624 15.143 53.2895C16.1554 52.3181 18.1251 51.0533 18.1251 51.0533Z" fill="#F8C558"/>
<path d="M31.3592 54.0834L31.0575 54.4119C30.6627 54.8405 29.9901 54.8687 29.5614 54.4739C29.1328 54.0791 29.1046 53.4066 29.4994 52.9779L29.8011 52.6494C30.1959 52.2208 30.8685 52.1926 31.2971 52.5874C31.7244 52.9807 31.7526 53.6547 31.3592 54.0834Z" fill="#FAE0B2"/>
<path d="M29.4912 53.4375C29.291 53.4234 29.15 53.8182 29.1641 53.618L29.2078 52.2616C29.2219 52.0614 29.3981 51.9077 29.5983 51.9232C29.7986 51.9373 29.9522 52.1135 29.9367 52.3152L29.8803 53.0991C29.8676 53.2994 29.6914 53.4516 29.4912 53.4375Z" fill="#FAE0B2"/>
<path d="M29.9365 53.0428C29.7885 52.906 29.7786 52.6734 29.9154 52.5253L30.4484 51.9472C30.5851 51.7992 30.8178 51.7893 30.9658 51.9261C31.1139 52.0628 31.1238 52.2955 30.987 52.4435L30.454 53.0216C30.3172 53.1683 30.0846 53.1782 29.9365 53.0428Z" fill="#FAE0B2"/>
<path d="M30.6079 52.985C30.4599 52.8482 30.45 52.6156 30.5868 52.4675L31.1198 51.8894C31.2565 51.7414 31.4892 51.7315 31.6372 51.8683C31.7853 52.005 31.7952 52.2377 31.6584 52.3857L31.1254 52.9638C30.9886 53.1119 30.756 53.1218 30.6079 52.985Z" fill="#FAE0B2"/>
<path d="M30.8179 53.4333C30.6698 53.2965 30.66 53.0639 30.7967 52.9158L31.3297 52.3377C31.4665 52.1897 31.6991 52.1798 31.8472 52.3166C31.9952 52.4534 32.0051 52.686 31.8683 52.834L31.3354 53.4121C31.1986 53.5602 30.9659 53.5701 30.8179 53.4333Z" fill="#FAE0B2"/>
<path d="M30.8487 54.072C30.7006 53.9353 30.6907 53.7026 30.8275 53.5546L31.3605 52.9765C31.4973 52.8284 31.7299 52.8185 31.878 52.9553C32.026 53.0921 32.0359 53.3247 31.8991 53.4728L31.3661 54.0509C31.2294 54.1989 30.9967 54.2088 30.8487 54.072Z" fill="#FAE0B2"/>
<path d="M30.9911 51.9678L30.231 52.8853L30.2896 52.9339L31.0497 52.0164L30.9911 51.9678Z" fill="#FE875E"/>
<path d="M31.7077 52.2263L30.9634 53.124L31.022 53.1726L31.7663 52.2749L31.7077 52.2263Z" fill="#FE875E"/>
<path d="M31.7566 52.9L31.1167 53.6718L31.1753 53.7204L31.8152 52.9486L31.7566 52.9Z" fill="#FE875E"/>
<path d="M16.2553 65.6185L15.9691 65.2773C15.594 64.8317 15.6533 64.1606 16.0988 63.7855C16.5444 63.4105 17.2155 63.4697 17.5906 63.9152L17.8768 64.2565C18.2519 64.702 18.1927 65.3732 17.7471 65.7482C17.3016 66.1233 16.6304 66.0655 16.2553 65.6185Z" fill="#FAE0B2"/>
<path d="M17.1351 63.849C17.1746 63.6516 16.801 63.4612 16.9984 63.5021L18.3379 63.7193C18.5353 63.7587 18.6636 63.9533 18.6241 64.1507C18.5846 64.3481 18.39 64.4764 18.1926 64.4369L17.4214 64.2804C17.224 64.241 17.0956 64.0464 17.1351 63.849Z" fill="#FAE0B2"/>
<path d="M17.4691 64.3411C17.6228 64.2113 17.8554 64.2311 17.9851 64.3862L18.4913 64.9883C18.621 65.1419 18.6013 65.3746 18.4462 65.5043C18.2925 65.634 18.0599 65.6143 17.9301 65.4592L17.4239 64.8571C17.2956 64.7034 17.3154 64.4708 17.4691 64.3411Z" fill="#FAE0B2"/>
<path d="M17.4413 65.015C17.595 64.8853 17.8276 64.905 17.9574 65.0601L18.4635 65.6622C18.5933 65.8159 18.5735 66.0485 18.4184 66.1783C18.2647 66.308 18.0321 66.2882 17.9024 66.1331L17.3962 65.5311C17.2665 65.376 17.2862 65.1447 17.4413 65.015Z" fill="#FAE0B2"/>
<path d="M16.9701 65.1659C17.1238 65.0362 17.3564 65.0559 17.4862 65.211L17.9924 65.8131C18.1221 65.9668 18.1023 66.1994 17.9472 66.3291C17.7935 66.4589 17.5609 66.4391 17.4312 66.284L16.925 65.6819C16.7953 65.5268 16.815 65.2942 16.9701 65.1659Z" fill="#FAE0B2"/>
<path d="M16.3315 65.1152C16.4852 64.9855 16.7178 65.0052 16.8475 65.1603L17.3537 65.7624C17.4834 65.916 17.4637 66.1487 17.3086 66.2784C17.1549 66.4081 16.9222 66.3884 16.7925 66.2333L16.2863 65.6312C16.1566 65.4761 16.1778 65.2435 16.3315 65.1152Z" fill="#FAE0B2"/>
<path d="M17.5869 64.6553L17.5312 64.7072L18.3438 65.5786L18.3995 65.5267L17.5869 64.6553Z" fill="#FE875E"/>
<path d="M17.2603 65.3478L17.2046 65.3997L17.9994 66.2529L18.0551 66.201L17.2603 65.3478Z" fill="#FE875E"/>
<path d="M16.6983 65.4294L16.6426 65.4813L17.3259 66.2148L17.3816 66.1629L16.6983 65.4294Z" fill="#FE875E"/>
<path d="M24.7706 53.4446C23.3494 51.4734 21.2076 51.097 20.9453 51.0575C22.8093 51.3818 24.2377 52.9709 24.3152 54.9068C24.318 54.9618 24.3194 55.0182 24.3194 55.0732V57.5111C27.4525 59.2693 30.3542 55.0295 30.3542 55.0295L28.9062 53.6857C27.7345 54.9618 26.2878 55.5469 24.7706 53.4446Z" fill="#400040"/>
<path d="M12.9067 58.3246C12.9067 60.8612 13.5398 62.9269 15.5152 64.8304C15.5829 64.8107 15.7845 64.7655 16.2936 64.2749C16.6136 63.9675 16.8336 63.2681 16.8336 63.2681C16.8336 63.2681 16.7307 63.0989 16.584 62.8085H17.3003L21.7347 62.8127L24.2601 62.8155C24.4716 62.8155 24.6393 62.6378 24.6267 62.4263L24.3207 57.5125V55.0746C24.3207 55.0182 24.3193 54.9632 24.3165 54.9082C24.2403 52.9723 22.8106 51.3832 20.9466 51.0589C20.9381 51.0575 20.9282 51.0561 20.9198 51.0547C20.6998 51.018 20.4742 50.9983 20.2444 50.9983H18.8005C18.5721 50.9983 18.3465 51.0166 18.1266 51.0547C17.8262 51.104 17.5372 51.1872 17.2622 51.3C14.9061 52.1347 12.9081 55.0675 12.9067 58.3246Z" fill="#F47458"/>
<path d="M17.2974 62.8155H21.7332V62.8127L20.9972 51.8344L20.945 51.0589C20.9366 51.0575 20.9267 51.0561 20.9182 51.0547C20.6983 51.018 20.4727 50.9983 20.2429 50.9983H18.799C18.5706 50.9983 18.345 51.0166 18.125 51.0547L18.0686 51.857L17.2974 62.8085V62.8155Z" fill="#F8C558"/>
<path d="M18.0684 51.8555C18.4223 52.0261 18.9369 52.9976 19.5094 52.9976C20.1086 52.9976 20.643 52.0163 20.9969 51.833C20.9969 51.833 20.4061 51.637 20.4978 50.8446C20.4893 50.8728 20.4837 50.8967 20.4795 50.9151C20.4597 51.0124 20.409 51.0645 20.409 51.0645C19.9042 50.9771 19.5587 50.8164 19.3233 50.6317C19.2598 50.6105 19.202 50.5922 19.1512 50.5823C18.9256 50.5414 18.4533 50.4173 18.4787 50.6387C18.5478 51.2972 18.0684 51.8555 18.0684 51.8555Z" fill="#FAE0B2"/>
<path d="M20.9453 51.0575L21.7335 64.1761L25.1443 63.7531L24.2348 57.3376C24.2348 57.3376 22.925 55.1902 22.6176 54.0523C22.3116 52.9145 20.9453 51.0575 20.9453 51.0575Z" fill="#F47458"/>
<path d="M17.486 55.0055C17.486 55.0055 17.0249 56.0263 16.6809 57.6112C16.3369 59.196 16.8332 63.2653 16.8332 63.2653L16.5836 62.7788C16.5836 62.7788 15.4514 60.4537 15.6178 59.024C15.7841 57.5957 16.3439 56.3281 17.486 55.0055Z" fill="#400040"/>
<path d="M16.7168 61.531C17.1537 61.531 17.5078 61.1768 17.5078 60.74C17.5078 60.3031 17.1537 59.949 16.7168 59.949C16.2799 59.949 15.9258 60.3031 15.9258 60.74C15.9258 61.1768 16.2799 61.531 16.7168 61.531Z" fill="white"/>
<path d="M21.2358 60.3071C21.2358 60.9825 20.6874 61.531 20.012 61.531C19.3366 61.531 18.7881 60.9825 18.7881 60.3071C18.7881 59.6317 19.3366 59.0832 20.012 59.0832C20.6874 59.0832 21.2358 59.6317 21.2358 60.3071Z" fill="white"/>
<path d="M22.8472 61.531C23.284 61.531 23.6382 61.1768 23.6382 60.74C23.6382 60.3031 23.284 59.949 22.8472 59.949C22.4103 59.949 22.0562 60.3031 22.0562 60.74C22.0562 61.1768 22.4103 61.531 22.8472 61.531Z" fill="white"/>
<path d="M85.3779 46.3862V63.4091C85.3779 64.4511 86.2253 65.2985 87.2673 65.2985H109.755C110.797 65.2985 111.645 64.4511 111.645 63.4091V46.3862H85.3779ZM110.858 62.6942C110.858 63.5769 110.139 64.2946 109.256 64.2946H88.0175C87.1334 64.2946 86.4157 63.5769 86.4157 62.6942V49.1963C86.4157 48.3122 87.1334 47.5945 88.0175 47.5945H109.256C110.139 47.5945 110.858 48.3122 110.858 49.1963V62.6942Z" fill="#F286CB"/>
<path d="M110.858 49.1963V62.6942C110.858 63.5769 110.139 64.2946 109.256 64.2946H88.0173C87.1332 64.2946 86.4155 63.5769 86.4155 62.6942V49.1963C86.4155 48.3122 87.1332 47.5945 88.0173 47.5945H109.256C110.137 47.5945 110.858 48.3122 110.858 49.1963Z" fill="#FFB6E8"/>
<path d="M111.645 44.4432V46.3876H85.3779V44.4432C85.3779 43.4012 86.2253 42.5538 87.2673 42.5538H109.755C110.797 42.5538 111.645 43.4012 111.645 44.4432Z" fill="#B6468A"/>
<path d="M108.752 44.8041C109.005 44.8041 109.21 44.599 109.21 44.3459C109.21 44.0928 109.005 43.8876 108.752 43.8876C108.499 43.8876 108.293 44.0928 108.293 44.3459C108.293 44.599 108.499 44.8041 108.752 44.8041Z" fill="#FE875E"/>
<path d="M105.926 44.3459C105.926 44.5983 106.132 44.8041 106.384 44.8041C106.636 44.8041 106.842 44.5997 106.842 44.3459C106.842 44.0921 106.638 43.8876 106.384 43.8876C106.132 43.8876 105.926 44.0935 105.926 44.3459Z" fill="#FEC65E"/>
<path d="M104.138 44.8041C104.391 44.8041 104.596 44.599 104.596 44.3459C104.596 44.0928 104.391 43.8876 104.138 43.8876C103.885 43.8876 103.68 44.0928 103.68 44.3459C103.68 44.599 103.885 44.8041 104.138 44.8041Z" fill="#800080"/>
<path d="M100.167 52.5436L101.085 65.5805L103.286 65.3323C103.286 65.3323 103.719 63.2117 104.124 61.2208C104.529 59.2299 104.161 55.7528 103.15 54.7813C102.139 53.807 100.167 52.5436 100.167 52.5436Z" fill="#F9DBBD"/>
<path d="M86.9345 55.5723L87.2362 55.9008C87.631 56.3295 88.3036 56.3577 88.7322 55.9629C89.1608 55.5681 89.189 54.8955 88.7942 54.4669L88.4925 54.1383C88.0977 53.7097 87.4251 53.6815 86.9965 54.0763C86.5679 54.4711 86.5397 55.1437 86.9345 55.5723Z" fill="#FAE0B2"/>
<path d="M88.8025 54.9265C89.0028 54.9124 89.1438 55.3072 89.1297 55.107L89.086 53.7506C89.0719 53.5504 88.8956 53.3967 88.694 53.4122C88.4938 53.4263 88.3401 53.6026 88.3556 53.8028L88.412 54.5867C88.4261 54.7884 88.6023 54.9421 88.8025 54.9265Z" fill="#FAE0B2"/>
<path d="M88.357 54.5318C88.505 54.395 88.5149 54.1623 88.3781 54.0143L87.8451 53.4362C87.7084 53.2881 87.4757 53.2783 87.3277 53.415C87.1796 53.5518 87.1697 53.7845 87.3065 53.9325L87.8395 54.5106C87.9763 54.6587 88.2089 54.6685 88.357 54.5318Z" fill="#FAE0B2"/>
<path d="M87.6846 54.4753C87.8327 54.3385 87.8425 54.1059 87.7057 53.9578L87.1728 53.3797C87.036 53.2317 86.8033 53.2218 86.6553 53.3586C86.5072 53.4953 86.4974 53.728 86.6341 53.876L87.1671 54.4541C87.3039 54.6022 87.5366 54.6107 87.6846 54.4753Z" fill="#FAE0B2"/>
<path d="M87.4761 54.9237C87.6241 54.7869 87.634 54.5543 87.4972 54.4062L86.9643 53.8282C86.8275 53.6801 86.5948 53.6702 86.4468 53.807C86.2987 53.9438 86.2889 54.1764 86.4257 54.3245L86.9586 54.9026C87.0954 55.0492 87.328 55.0591 87.4761 54.9237Z" fill="#FAE0B2"/>
<path d="M87.4449 55.5624C87.5929 55.4257 87.6028 55.193 87.466 55.045L86.933 54.4669C86.7963 54.3188 86.5636 54.309 86.4156 54.4457C86.2675 54.5825 86.2576 54.8151 86.3944 54.9632L86.9274 55.5413C87.0642 55.6893 87.2968 55.6992 87.4449 55.5624Z" fill="#FAE0B2"/>
<path d="M87.3003 53.4642L87.2417 53.5128L88.0023 54.4299L88.0609 54.3813L87.3003 53.4642Z" fill="#FE875E"/>
<path d="M86.586 53.7068L86.5273 53.7554L87.2716 54.653L87.3302 54.6044L86.586 53.7068Z" fill="#FE875E"/>
<path d="M86.5337 54.3882L86.4751 54.4368L87.1148 55.2087L87.1734 55.1601L86.5337 54.3882Z" fill="#FE875E"/>
<path d="M102.037 67.1089L102.323 66.7677C102.698 66.3222 102.639 65.651 102.193 65.2759C101.748 64.9009 101.077 64.9601 100.702 65.4057L100.415 65.7469C100.04 66.1924 100.1 66.8636 100.545 67.2387C100.991 67.6137 101.663 67.5545 102.037 67.1089Z" fill="#FAE0B2"/>
<path d="M101.157 65.3394C101.118 65.142 101.491 64.9516 101.294 64.9925L99.9545 65.2097C99.7571 65.2491 99.6288 65.4437 99.6683 65.6411C99.7077 65.8385 99.9023 65.9668 100.1 65.9274L100.871 65.7708C101.068 65.73 101.198 65.5354 101.157 65.3394Z" fill="#FAE0B2"/>
<path d="M100.823 65.8315C100.669 65.7018 100.436 65.7215 100.307 65.8766L99.8005 66.4787C99.6708 66.6324 99.6905 66.865 99.8456 66.9947C99.9993 67.1245 100.232 67.1047 100.362 66.9496L100.868 66.3475C100.998 66.1924 100.976 65.9612 100.823 65.8315Z" fill="#FAE0B2"/>
<path d="M100.853 66.5054C100.699 66.3757 100.466 66.3954 100.336 66.5505L99.8303 67.1526C99.7005 67.3063 99.7203 67.539 99.8754 67.6687C100.029 67.7984 100.262 67.7787 100.391 67.6236L100.898 67.0215C101.027 66.8664 101.006 66.6337 100.853 66.5054Z" fill="#FAE0B2"/>
<path d="M101.324 66.6549C101.17 66.5252 100.937 66.5449 100.808 66.7L100.301 67.3021C100.172 67.4558 100.191 67.6884 100.347 67.8182C100.5 67.9479 100.733 67.9281 100.863 67.773L101.369 67.171C101.499 67.0173 101.477 66.7846 101.324 66.6549Z" fill="#FAE0B2"/>
<path d="M101.961 66.6041C101.807 66.4744 101.575 66.4941 101.445 66.6492L100.939 67.2513C100.809 67.405 100.829 67.6377 100.984 67.7674C101.137 67.8971 101.37 67.8774 101.5 67.7223L102.006 67.1202C102.136 66.9665 102.116 66.7338 101.961 66.6041Z" fill="#FAE0B2"/>
<path d="M100.707 66.1385L99.8945 67.0101L99.9502 67.062L100.763 66.1904L100.707 66.1385Z" fill="#FE875E"/>
<path d="M101.031 66.8434L100.236 67.6966L100.292 67.7485L101.087 66.8952L101.031 66.8434Z" fill="#FE875E"/>
<path d="M101.594 66.9255L100.911 67.6591L100.967 67.711L101.65 66.9774L101.594 66.9255Z" fill="#FE875E"/>
<path d="M93.5221 54.935C94.9434 52.9639 97.0851 52.5874 97.3474 52.5479C95.4834 52.8722 94.0551 54.4613 93.9775 56.3972C93.9747 56.4522 93.9733 56.5086 93.9733 56.5636V59.0015C90.8403 60.7598 87.9385 56.5199 87.9385 56.5199L89.3865 55.1762C90.5583 56.4508 92.0063 57.0374 93.5221 54.935Z" fill="#2B002B"/>
<path d="M105.386 59.8137C105.386 62.3503 104.753 64.4159 102.777 66.3194C102.709 66.2997 102.508 66.2545 101.999 65.7639C101.679 65.4565 101.459 64.7571 101.459 64.7571C101.459 64.7571 101.562 64.5865 101.708 64.2975H100.992L96.5576 64.3017L94.0323 64.3045C93.8208 64.3045 93.653 64.1269 93.6657 63.9154L93.9717 59.0015V56.5636C93.9717 56.5072 93.9731 56.4522 93.9759 56.3972C94.0521 54.4613 95.4818 52.8722 97.3458 52.5479C97.3543 52.5465 97.3641 52.5451 97.3726 52.5437C97.5926 52.507 97.8182 52.4873 98.048 52.4873H99.4918C99.7203 52.4873 99.9459 52.507 100.166 52.5437C100.466 52.5931 100.755 52.6762 101.03 52.789C103.388 53.6252 105.386 56.5566 105.386 59.8137Z" fill="#F9DBBD"/>
<path d="M100.995 64.3045H96.5591V64.3017L97.2951 53.3234L97.3473 52.5479C97.3557 52.5465 97.3656 52.5451 97.3741 52.5437C97.594 52.507 97.8196 52.4873 98.0494 52.4873H99.4933C99.7217 52.4873 99.9473 52.507 100.167 52.5437L100.224 53.346L100.995 64.2975V64.3045Z" fill="#F858E3"/>
<path d="M100.224 53.346C99.8701 53.5166 99.3554 54.4881 98.783 54.4881C98.1837 54.4881 97.6493 53.5067 97.2954 53.3234C97.2954 53.3234 97.8862 53.1274 97.7945 52.335C97.803 52.3632 97.8086 52.3872 97.8129 52.4055C97.8326 52.5028 97.8834 52.5549 97.8834 52.5549C98.3882 52.4675 98.7336 52.3068 98.9691 52.1221C99.0325 52.1009 99.0903 52.0826 99.1411 52.0727C99.3667 52.0318 99.839 51.9078 99.8137 52.1291C99.746 52.7862 100.224 53.346 100.224 53.346Z" fill="#FAE0B2"/>
<path d="M97.3489 52.5479L96.5607 65.6666L93.1499 65.2436L94.0594 58.8281C94.0594 58.8281 95.3692 56.6806 95.6766 55.5428C95.9812 54.4049 97.3489 52.5479 97.3489 52.5479Z" fill="#F9DBBD"/>
<path d="M100.807 56.4959C100.807 56.4959 101.268 57.5168 101.612 59.1016C101.956 60.6864 101.46 64.7557 101.46 64.7557L101.71 64.2692C101.71 64.2692 102.842 61.9442 102.675 60.5144C102.509 59.0847 101.948 57.8185 100.807 56.4959Z" fill="#2B002B"/>
<path d="M89.7953 55.5498C89.7953 55.5469 89.7967 55.5455 89.7967 55.5441C89.7967 55.5413 89.7967 55.5399 89.7953 55.5385C89.7953 55.5357 89.7953 55.5343 89.7939 55.5314C89.7925 55.53 89.791 55.5272 89.791 55.5258C89.7896 55.5244 89.7896 55.5216 89.7882 55.5202C89.7882 55.5202 89.7882 55.5202 89.7868 55.5202C89.7868 55.5202 89.7868 55.5202 89.7868 55.5187L89.4287 55.1648C89.4273 55.1634 89.4259 55.1634 89.4244 55.162C89.423 55.1606 89.4202 55.1592 89.4188 55.1578C89.4174 55.1564 89.4146 55.1564 89.4132 55.1564C89.4103 55.1564 89.4089 55.155 89.4061 55.155C89.4033 55.155 89.4019 55.155 89.3991 55.1564C89.3977 55.1564 89.3948 55.1564 89.3934 55.1578C89.3906 55.1592 89.3892 55.1606 89.3878 55.162C89.3864 55.1634 89.385 55.1634 89.3836 55.1648L88.9831 55.5286L88.8506 55.6499L88.718 55.7711L88.5855 55.891L87.9186 56.4973C87.9172 56.4987 87.9171 56.5001 87.9157 56.5015C87.9143 56.5029 87.9129 56.5057 87.9115 56.5072C87.9101 56.5086 87.9101 56.5114 87.9101 56.5128C87.9101 56.5156 87.9087 56.517 87.9087 56.5198C87.9087 56.5213 87.9087 56.5241 87.9087 56.5255C87.9087 56.5283 87.9087 56.5297 87.9101 56.5325C87.9101 56.5354 87.9115 56.5368 87.9129 56.5382C87.9143 56.5396 87.9143 56.541 87.9157 56.5424L88.2189 56.9485C88.2189 56.9485 88.2203 56.9485 88.2203 56.9499C88.2203 56.9499 88.2203 56.9513 88.2217 56.9513C88.2231 56.9541 88.2259 56.9541 88.2288 56.9569C88.2302 56.9584 88.2316 56.9598 88.233 56.9598C88.2372 56.9612 88.2429 56.9626 88.2471 56.9626C88.2513 56.9626 88.2541 56.9612 88.2584 56.9612C88.2598 56.9612 88.2612 56.9598 88.2612 56.9598C88.2626 56.9584 88.2654 56.9584 88.2668 56.9569C88.2668 56.9569 88.2668 56.9555 88.2682 56.9555C88.2682 56.9555 88.2697 56.9555 88.2697 56.9541L89.0987 56.1998L89.2369 56.0743L89.3751 55.9488L89.6514 55.6964L89.7882 55.5723C89.7882 55.5723 89.7882 55.5723 89.7882 55.5709C89.7882 55.5695 89.7882 55.5709 89.7896 55.5709C89.791 55.5695 89.791 55.5681 89.7924 55.5667C89.7939 55.5653 89.7953 55.5625 89.7967 55.561C89.7939 55.554 89.7953 55.5512 89.7953 55.5498ZM89.6261 55.6217L89.3215 55.3115L89.4047 55.2353L89.7149 55.5413L89.6261 55.6217ZM89.4879 55.7472L89.1876 55.4327L89.2708 55.3566L89.5753 55.6668L89.4879 55.7472ZM89.3497 55.8712L89.0536 55.5526L89.1368 55.4764L89.4371 55.7909L89.3497 55.8712ZM89.2115 55.9967L88.9197 55.6738L89.0029 55.5977L89.2989 55.9164L89.2115 55.9967ZM89.0748 56.1222L88.7871 55.7951L88.8703 55.719L89.1622 56.0419L89.0748 56.1222ZM88.9366 56.2477L88.6532 55.9178L88.7364 55.8416L89.024 56.1688L88.9366 56.2477ZM88.7984 56.3732L88.5192 56.039L88.6024 55.9629L88.8858 56.2928L88.7984 56.3732ZM88.6602 56.4987L88.3853 56.1603L88.4685 56.0842L88.7476 56.4183L88.6602 56.4987ZM88.522 56.6242L88.2513 56.2816L88.3345 56.2054L88.6095 56.5438L88.522 56.6242ZM88.3853 56.7497L88.1188 56.4028L88.202 56.3267L88.4727 56.6693L88.3853 56.7497ZM88.2471 56.8752L87.9848 56.5241L88.068 56.4479L88.3345 56.7948L88.2471 56.8752Z" fill="black"/>
<path d="M101.577 63.0199C102.014 63.0199 102.368 62.6658 102.368 62.2289C102.368 61.7921 102.014 61.4379 101.577 61.4379C101.14 61.4379 100.786 61.7921 100.786 62.2289C100.786 62.6658 101.14 63.0199 101.577 63.0199Z" fill="white"/>
<path d="M97.0581 61.7974C97.0581 62.4728 97.6066 63.0213 98.282 63.0213C98.9574 63.0213 99.5059 62.4728 99.5059 61.7974C99.5059 61.122 98.9574 60.5735 98.282 60.5735C97.6052 60.5735 97.0581 61.1206 97.0581 61.7974Z" fill="white"/>
<path d="M94.6543 62.2289C94.6543 62.666 95.0082 63.0199 95.4453 63.0199C95.8824 63.0199 96.2363 62.666 96.2363 62.2289C96.2363 61.7918 95.8824 61.4379 95.4453 61.4379C95.0082 61.4379 94.6543 61.7932 94.6543 62.2289Z" fill="white"/>
<path d="M99.7259 50.2271L97.1851 50.6642L97.522 51.6258L97.5235 51.6286L97.6165 51.8937L97.7053 52.1489L97.7237 52.2011L98.0296 52.2363L97.828 52.4323C97.828 52.4323 97.9267 52.8299 98.7262 52.8299C99.5257 52.8299 99.8105 52.4393 99.8105 52.4393L99.7259 50.2271Z" fill="#FAE0B2"/>
<path d="M99.8077 49.4501C99.8641 50.643 99.207 51.6285 98.0621 51.9698C97.1851 52.2306 96.5083 51.864 95.4861 49.6531C94.9841 48.5688 96.3518 47.4465 97.5461 47.3915C98.7389 47.3337 99.7513 48.2558 99.8077 49.4501Z" fill="#FAE0B2"/>
<path d="M97.9154 52.5732C97.9154 52.5732 97.859 52.5267 97.828 52.4322C97.7942 52.3293 97.6489 52.0389 97.6489 52.0389C97.6489 52.0389 99.0209 51.8781 99.3395 50.9616C99.3395 50.9616 99.5834 52.091 97.9154 52.5732Z" fill="#FE875E"/>
<path d="M99.843 48.9411C99.843 48.9411 97.1485 49.8378 95.7019 48.3926C95.7019 48.3926 96.6212 49.436 97.2571 49.3246C97.2571 49.3246 96.3547 49.6038 95.7019 48.5787C95.7019 48.5787 95.52 49.522 95.0519 49.7152C95.0519 49.7152 94.6232 47.0869 96.8877 46.7598C99.1521 46.4341 99.7331 47.9047 99.843 48.9411Z" fill="#1A001A"/>
<path d="M95.0251 49.4106C95.0251 49.4106 95.1266 50.5922 95.613 50.9616C96.0995 51.331 96.1545 51.5284 96.1545 51.5284C96.1545 51.5284 96.1855 51.3014 95.8555 50.399C95.5256 49.4966 95.7738 48.7733 95.7019 48.3926C95.63 48.0105 94.9517 48.9467 95.0251 49.4106Z" fill="#1A001A"/>
<path d="M98.5005 49.13C98.5005 49.13 99.2661 49.3824 99.2675 50.306C99.2675 51.2281 98.6514 53.0118 99.3521 53.3798C99.3521 53.3798 98.8347 52.82 99.4269 51.9106C100.019 51.0011 100.14 49.1794 99.6031 47.9922C99.0645 46.8064 98.5005 49.13 98.5005 49.13Z" fill="#1A001A"/>
<path d="M98.5006 46.8896C98.5006 46.8896 98.2708 45.9646 99.6342 45.8081C100.998 45.6502 100.823 48.9905 101.784 49.1301C101.784 49.1301 101.693 49.68 100.806 48.8847C99.9191 48.0895 99.7217 46.6118 98.9349 47.0841C98.1481 47.5565 98.5006 46.8896 98.5006 46.8896Z" fill="#1A001A"/>
<path d="M80.8951 66.3699C80.8951 66.3699 80.6653 65.4449 82.0288 65.2884C83.3922 65.1305 83.2174 68.4708 84.179 68.6103C84.179 68.6103 84.0874 69.1602 83.2005 68.365C82.3136 67.5698 82.1162 66.0921 81.3294 66.5644C80.5426 67.0368 80.8951 66.3699 80.8951 66.3699Z" fill="#550055"/>
<path d="M94.4313 69.3309C94.4313 69.3309 94.2014 68.4059 95.5649 68.2494C96.9284 68.0915 96.7535 71.4318 97.7152 71.5713C97.7152 71.5713 97.6235 72.1212 96.7366 71.326C95.8497 70.5308 95.6523 69.0531 94.8655 69.5254C94.0788 69.9978 94.4313 69.3309 94.4313 69.3309Z" fill="#1A001A"/>
<path d="M86.8148 107.491C86.8148 107.491 87.3351 109.188 86.7951 111.269L84.986 111.118L79.8438 110.724V110.723C79.8438 110.723 80.0003 109.901 80.0003 108.939C80.0003 108.055 79.8438 107.154 79.8438 107.154L84.9113 107.395L86.8148 107.491Z" fill="#FAE0B2"/>
<path d="M87.3564 106.696C87.3564 106.696 88.3631 109.037 87.3564 112.067L79.7043 111.562C79.5393 111.551 79.411 111.355 79.4167 111.123C79.4237 110.895 79.5591 110.715 79.7198 110.715C79.7255 110.715 79.7283 110.715 79.7339 110.715L79.8425 110.723L84.9848 111.116L86.7938 111.267C87.3338 109.186 86.8135 107.49 86.8135 107.49L84.91 107.394L79.8425 107.153L79.7184 107.146C79.5563 107.137 79.4266 106.951 79.4266 106.723C79.4266 106.49 79.5619 106.301 79.7269 106.301C79.7325 106.301 79.7353 106.301 79.741 106.301L87.3564 106.696Z" fill="#F79C8D"/>
<path d="M110.176 105.963H109.445L87.3561 106.696L79.7407 106.303L101.968 105.86L110.176 105.963Z" fill="#F47458"/>
<path d="M110.176 105.963C110.176 105.963 111.239 109.103 110.294 111.434H109.446L87.3564 112.067C88.3632 109.037 87.3564 106.696 87.3564 106.696L109.446 105.963H110.176Z" fill="#F47458"/>
<path d="M86.9318 108.567C86.1351 108.604 85.3413 108.578 84.5489 108.539C83.7564 108.492 82.9654 108.429 82.1772 108.304C82.9739 108.265 83.7677 108.291 84.5601 108.332C85.3526 108.378 86.1436 108.442 86.9318 108.567Z" fill="#E5BD83"/>
<path d="M82.867 109.839C82.4228 109.878 81.9843 109.856 81.5486 109.818C81.1129 109.774 80.6786 109.713 80.25 109.591C80.6942 109.551 81.1327 109.574 81.5684 109.612C82.004 109.657 82.4383 109.716 82.867 109.839Z" fill="#E5BD83"/>
<path d="M83.4538 110.5C83.1252 109.99 83.1859 108.829 83.5666 108.357C84.2363 108.392 84.9046 108.428 85.5744 108.463C85.1937 108.935 85.1331 110.096 85.4616 110.606C85.0485 110.447 84.6494 110.245 84.2772 110.02C83.9797 110.211 83.709 110.378 83.4538 110.5Z" fill="#F8C558"/>
<path d="M89.2216 112.008C90.1677 109.677 89.106 106.635 89.106 106.635H91.1716C91.1716 106.635 92.2333 109.677 91.2872 112.008H89.2216Z" fill="#F8C558"/>
<path d="M106.572 111.535C107.518 109.205 106.456 106.163 106.456 106.163H108.522C108.522 106.163 109.583 109.205 108.637 111.535H106.572Z" fill="#F8C558"/>
<path d="M100.588 101.227L100.065 101.275C101.366 101.368 102.345 102.496 102.252 103.796L102.201 104.516C102.124 105.602 101.323 106.463 100.302 106.662L108.704 105.988C110.104 105.853 111.125 104.601 110.981 103.202L110.942 102.814C110.799 101.434 109.577 100.426 108.195 100.548H108.194L100.588 101.227Z" fill="#952B95"/>
<path d="M80.3574 100.826L100.065 101.275L100.588 101.227L108.192 100.55H108.194L108.285 100.541L80.3574 100.826Z" fill="#952B95"/>
<path d="M80.924 101.62L100.022 102.121C100.454 102.156 100.843 102.37 101.108 102.72C101.337 103.024 101.431 103.409 101.403 103.792L101.354 104.457C101.299 105.233 100.647 105.85 99.8716 105.863C99.8279 105.864 99.7814 105.861 99.7377 105.859L99.7179 105.857L80.8973 105.43L80.4291 105.419C80.2092 105.413 80.0287 105.595 80.0329 105.815L80.0343 105.884C80.0372 106.093 80.2049 106.26 80.4136 106.266L99.677 106.703C99.8914 106.719 100.1 106.705 100.302 106.665C101.321 106.466 102.123 105.605 102.201 104.519L102.252 103.799C102.345 102.497 101.366 101.369 100.065 101.277L80.3572 100.829C80.1373 100.823 79.9568 101.003 79.961 101.225C79.9638 101.434 80.1302 101.602 80.3375 101.607L80.924 101.62Z" fill="#400040"/>
<path d="M80.8989 105.429L99.7196 105.856L99.7393 105.857C99.7831 105.86 99.8296 105.863 99.8733 105.861C100.649 105.849 101.3 105.231 101.355 104.456L101.405 103.79C101.433 103.408 101.338 103.023 101.11 102.719C100.845 102.369 100.456 102.155 100.024 102.119L80.9257 101.619C80.9328 101.653 81.1753 102.789 81.1866 103.519C81.1964 104.247 80.8989 105.429 80.8989 105.429Z" fill="#FAE0B2"/>
<path d="M99.7473 103.223C99.196 103.132 98.6432 103.072 98.0905 103.026C97.5378 102.977 96.9837 102.948 96.4295 102.923C95.8754 102.905 95.3213 102.889 94.7657 102.895C94.2102 102.898 93.6561 102.913 93.0991 102.961C93.6504 103.054 94.2032 103.112 94.7559 103.158C95.3086 103.208 95.8627 103.236 96.4169 103.261C96.971 103.28 97.5251 103.295 98.0807 103.29C98.6362 103.287 99.1917 103.271 99.7473 103.223Z" fill="#E5BD83"/>
<path d="M95.1921 104.773C94.6408 104.681 94.0881 104.622 93.5353 104.575C92.9826 104.526 92.4285 104.498 91.8744 104.473C91.3202 104.454 90.7661 104.439 90.2106 104.444C89.655 104.447 89.1009 104.463 88.5439 104.511C89.0953 104.604 89.648 104.661 90.2007 104.708C90.7534 104.757 91.3075 104.786 91.8617 104.811C92.4158 104.829 92.9699 104.845 93.5255 104.839C94.081 104.835 94.6351 104.821 95.1921 104.773Z" fill="#E5BD83"/>
<path d="M94.4419 107.648C93.6763 106.623 93.6269 104.088 94.3601 103.039C95.7715 103.016 97.0279 103.165 98.4393 103.143C97.7075 104.192 97.9133 106.555 98.679 107.58C97.7864 107.307 96.9179 106.939 96.1043 106.518C95.5051 106.961 94.9622 107.352 94.4419 107.648Z" fill="#550055"/>
<path d="M90.3119 103.782C89.5534 103.69 88.7934 103.631 88.0334 103.584C87.2734 103.535 86.5134 103.507 85.752 103.481C84.9906 103.463 84.2306 103.448 83.4692 103.453C82.7078 103.456 81.9464 103.471 81.1836 103.519C81.9422 103.611 82.7022 103.67 83.4622 103.717C84.2221 103.766 84.9821 103.794 85.7435 103.82C86.5049 103.838 87.2649 103.852 88.0263 103.848C88.7877 103.845 89.5491 103.83 90.3119 103.782Z" fill="#E5BD83"/>
<path d="M91.1677 96.7527C91.1677 96.7527 91.8981 98.449 91.141 100.53L88.266 100.372L81.0566 99.9788V99.9774C81.0566 99.9774 81.2752 99.1554 81.2752 98.1938C81.2752 97.3097 81.0566 96.4087 81.0566 96.4087V96.4073L88.163 96.6498L91.1677 96.7527Z" fill="#FAE0B2"/>
<path d="M80.9058 99.9704L81.0566 99.9788L88.266 100.372L91.141 100.53C91.8981 98.449 91.1678 96.7527 91.1678 96.7527L88.163 96.6498L81.0566 96.4073L80.886 96.4017C80.6576 96.3932 80.4771 96.2071 80.4771 95.9787C80.4771 95.746 80.6675 95.5571 80.8973 95.5571C80.9044 95.5571 80.9086 95.5571 80.9156 95.5571L91.5894 95.9519C91.5894 95.9519 92.9994 98.2925 91.5894 101.323L80.8649 100.818C80.6351 100.806 80.4546 100.611 80.4616 100.379C80.4701 100.151 80.6604 99.9704 80.8874 99.9704C80.8945 99.9704 80.9001 99.9704 80.9058 99.9704Z" fill="#BF50A7"/>
<path d="M80.917 95.557L110.165 95.1876L110.004 95.1947L91.5893 95.9518L80.917 95.557Z" fill="#F9DBBD"/>
<path d="M91.9461 95.9364L110.004 95.1947C110.904 95.1595 111.654 95.8772 111.659 96.7782L111.671 99.0271C111.676 99.8872 110.998 100.595 110.139 100.627L91.5894 101.323C92.9994 98.2925 91.5894 95.9519 91.5894 95.9519L91.9461 95.9364Z" fill="#F9DBBD"/>
<path d="M91.1142 98.2051C90.5573 98.2445 90.0018 98.2502 89.4462 98.2445C88.8907 98.2403 88.338 98.2178 87.7838 98.1896C87.2311 98.1557 86.677 98.1176 86.1257 98.0598C85.5729 98.0048 85.0216 97.9372 84.4731 97.8356C85.0301 97.7962 85.5856 97.7905 86.1412 97.7962C86.6967 97.8004 87.2494 97.8229 87.8036 97.8511C88.3563 97.885 88.9104 97.9231 89.4617 97.9809C90.013 98.0373 90.5643 98.1049 91.1142 98.2051Z" fill="#E5BD83"/>
<path d="M85.2245 99.0933C84.6069 99.1328 83.995 99.1103 83.383 99.0722C82.7711 99.0285 82.162 98.9678 81.5557 98.8452C82.1732 98.8043 82.7852 98.8283 83.3971 98.8663C84.0077 98.9114 84.6182 98.9707 85.2245 99.0933Z" fill="#E5BD83"/>
<path d="M86.2131 101.523C85.6505 100.694 85.7069 98.7239 86.3174 97.9301C87.4242 97.9625 88.4888 98.0993 89.5956 98.1303C88.9851 98.9256 88.9696 100.79 89.5322 101.619C88.8441 101.372 88.1758 101.055 87.554 100.697C87.0703 101.024 86.6304 101.31 86.2131 101.523Z" fill="#952B95"/>
<path d="M102.702 91.4582C102.702 91.4582 102.201 93.1601 102.764 95.2356L104.571 95.065L109.709 94.6138V94.6124C109.709 94.6124 109.544 93.7932 109.533 92.8302C109.523 91.9461 109.669 91.0437 109.669 91.0437L104.604 91.3412L102.702 91.4582Z" fill="#FAE0B2"/>
<path d="M102.152 90.67C102.152 90.67 101.172 93.0219 102.212 96.0407L109.857 95.4499C110.021 95.4358 110.148 95.2398 110.141 95.0086C110.131 94.7802 109.994 94.6025 109.833 94.6039C109.828 94.6039 109.825 94.6039 109.819 94.6039L109.711 94.6138L104.572 95.065L102.765 95.2356C102.201 93.1601 102.703 91.4582 102.703 91.4582L104.605 91.3398L109.67 91.0423L109.794 91.0338C109.956 91.0239 110.083 90.8364 110.08 90.6066C110.077 90.3739 109.94 90.1864 109.775 90.1878C109.77 90.1878 109.767 90.1878 109.761 90.1878L102.152 90.67Z" fill="#F79C8D"/>
<path d="M79.3267 90.1921L80.0556 90.1836L102.152 90.6701L109.762 90.1907L87.5315 89.9975L79.3267 90.1921Z" fill="#F47458"/>
<path d="M79.3265 90.1921C79.3265 90.1921 78.2986 93.3448 79.2687 95.6643L80.1175 95.6544L102.212 96.0407C101.172 93.0219 102.152 90.67 102.152 90.67L80.0569 90.1836L79.3265 90.1921Z" fill="#F47458"/>
<path d="M102.597 92.5355C103.394 92.5637 104.188 92.5299 104.979 92.4805C105.77 92.4241 106.561 92.3536 107.347 92.2197C106.551 92.1915 105.757 92.2253 104.966 92.2746C104.174 92.3296 103.384 92.4016 102.597 92.5355Z" fill="#E5BD83"/>
<path d="M106.675 93.7622C107.119 93.7974 107.558 93.7692 107.994 93.7255C108.429 93.6762 108.864 93.6113 109.289 93.4844C108.845 93.4492 108.407 93.4774 107.971 93.5211C107.537 93.5704 107.103 93.6339 106.675 93.7622Z" fill="#E5BD83"/>
<path d="M106.097 94.4305C106.42 93.9173 106.346 92.7569 105.96 92.2888C105.292 92.3311 104.622 92.3748 103.954 92.4171C104.34 92.8852 104.413 94.0456 104.09 94.5589C104.502 94.3953 104.898 94.1894 105.268 93.9596C105.568 94.1457 105.84 94.3093 106.097 94.4305Z" fill="#F8C558"/>
<path d="M100.346 96.0013C99.3727 93.6804 100.402 90.6277 100.402 90.6277L98.3363 90.6503C98.3363 90.6503 97.3084 93.703 98.2799 96.0238L100.346 96.0013Z" fill="#F8C558"/>
<path d="M82.9911 95.7235C82.0182 93.4026 83.0475 90.35 83.0475 90.35L80.9818 90.3725C80.9818 90.3725 79.9539 93.4252 80.9254 95.746L82.9911 95.7235Z" fill="#F8C558"/>
<path d="M94.1243 71.9749L93.8282 74.3549L91.6709 74.0236L91.6554 73.963L91.5792 73.6654L91.4974 73.3567V73.3524L91.2056 72.2315L94.1243 71.9749Z" fill="#FAE0B2"/>
<path d="M94.2908 71.1021C94.2414 72.4599 93.3898 73.7148 92.0319 73.6654C90.6741 73.6161 89.6251 73.6231 89.3755 70.9258C89.25 69.5736 90.5641 68.5077 91.922 68.557C93.2784 68.6049 94.3401 69.7442 94.2908 71.1021Z" fill="#FAE0B2"/>
<path d="M92.672 67.6602C92.672 67.6602 92.6423 65.7045 89.7335 65.8399C87.0545 65.964 86.9262 72.0636 91.7414 69.7935C92.1601 69.5961 92.6395 69.5595 93.078 69.7061C93.1457 69.7287 93.2078 69.7527 93.2543 69.7752C93.5137 69.9021 93.4757 70.624 93.4757 70.624C93.4757 70.624 93.8197 70.3519 93.9198 70.8243C94.0199 71.2966 93.5786 71.3685 93.5786 71.3685L93.869 72.598C93.869 72.598 94.3301 71.8479 94.646 70.5423C94.9505 69.2747 93.9113 67.2739 92.672 67.6602Z" fill="#1A001A"/>
<path d="M91.7271 74.2999L91.5776 73.6654C91.5776 73.6654 93.1427 73.7937 93.7039 72.8434C93.7053 72.8434 93.6955 74.1364 91.7271 74.2999Z" fill="#FE875E"/>
<path d="M89.6644 74.4734C89.6644 74.4734 93.0808 73.7345 92.9793 74.8541C92.9356 75.332 91.4692 77.4809 91.4353 77.6585C91.4128 77.7883 91.3846 77.9208 91.3578 78.0519C91.331 78.1831 91.3028 78.3142 91.2704 78.4481C91.2379 78.5807 91.2083 78.7132 91.1717 78.8458L91.0574 79.2476C91.0391 79.3139 91.018 79.3816 90.994 79.4507L90.9263 79.6551L90.8572 79.8581L90.7769 80.0668L90.6937 80.2741C90.6796 80.3093 90.6669 80.3432 90.6514 80.3784L90.602 80.4856L90.5019 80.6999L90.4511 80.8071L90.4258 80.8607L90.3835 80.941C90.3214 81.051 90.2608 81.1624 90.1903 81.2667C90.117 81.3683 90.0422 81.4684 89.9633 81.5642C89.8815 81.6531 89.7983 81.7405 89.7123 81.8251C89.6263 81.9041 89.5375 81.976 89.4472 82.0479C89.0863 82.3186 88.7197 82.492 88.3742 82.6105C88.2882 82.6373 88.1994 82.6711 88.1176 82.6908L87.8666 82.7543C87.7045 82.7881 87.5409 82.8177 87.3858 82.8375C87.0728 82.8784 86.7696 82.8939 86.4806 82.8911C85.8983 82.8882 85.3512 82.8177 84.821 82.7204C84.5559 82.6669 84.2951 82.6105 84.0385 82.54C83.9102 82.5033 83.7818 82.4681 83.6535 82.4286L83.4618 82.3651L83.2573 82.2946L83.5971 80.4236C83.6126 80.4193 83.6451 80.4193 83.6705 80.4165L83.7536 80.4109L83.9228 80.3982C84.0356 80.3911 84.1499 80.3827 84.2641 80.3728C84.4911 80.3516 84.7167 80.3333 84.938 80.3023C85.3808 80.2501 85.8094 80.174 86.1972 80.0725C86.3918 80.0245 86.5722 79.9625 86.7344 79.899C86.7739 79.8821 86.8162 79.868 86.8514 79.8497C86.8881 79.8314 86.9233 79.8144 86.96 79.7989L87.0559 79.7453C87.0897 79.7284 87.1109 79.7087 87.1391 79.6918C87.2406 79.6199 87.2927 79.3773 87.2927 79.3773L87.3266 79.2518L87.3435 79.1898C87.3491 79.1687 87.3534 79.1433 87.359 79.1207L87.3886 78.9811L87.4211 78.8429L87.4478 78.6935C87.4648 78.592 87.4859 78.4989 87.5 78.3932C87.5339 78.1873 87.6015 77.4738 87.6847 76.5277C87.7679 75.5182 88.4983 74.7342 89.6644 74.4734Z" fill="#F8C558"/>
<path d="M97.6378 82.2157L97.8085 79.1574C97.9466 76.704 97.8155 74.1364 93.8746 74.1392C93.8703 74.1378 93.8647 74.1378 93.859 74.1364C93.5982 74.0941 93.405 74.0757 93.3148 74.0687C93.2767 74.0659 93.2556 74.0645 93.2556 74.0645C88.1753 74.0645 88.3121 75.9524 88.1626 78.6159L88.0019 81.4811L87.7622 85.7562L97.408 86.2962L97.6378 82.2157Z" fill="#F47458"/>
<path d="M93.3149 74.0687C93.4066 74.0757 93.5983 74.094 93.8592 74.1363C93.6815 74.1039 93.4997 74.0814 93.3149 74.0687Z" fill="#AA55AA"/>
<path d="M90.402 85.1076H91.3087C91.7007 85.1076 92.0193 84.789 92.0193 84.397C92.0193 84.005 91.7007 83.6863 91.3087 83.6863H90.402C90.0101 83.6863 89.6914 84.005 89.6914 84.397C89.6914 84.7904 90.0101 85.1076 90.402 85.1076Z" fill="#FAE0B2"/>
<path d="M90.5161 83.995C90.4724 83.8174 90.2905 83.7074 90.1143 83.7525L89.0427 84.0176C88.865 84.0613 88.7551 84.2432 88.8002 84.4194C88.8439 84.5971 89.0258 84.7071 89.202 84.662L90.2736 84.3969C90.4499 84.3546 90.5598 84.1727 90.5161 83.995Z" fill="#FAE0B2"/>
<path d="M90.2045 84.4138C90.1608 84.2362 89.9789 84.1262 89.8026 84.1713L88.6267 84.4618C88.449 84.5055 88.339 84.6874 88.3842 84.8636C88.4279 85.0413 88.6098 85.1513 88.786 85.1062L89.9619 84.8157C90.1396 84.772 90.2482 84.5915 90.2045 84.4138Z" fill="#FAE0B2"/>
<path d="M79.3163 98.0161C79.3163 98.0161 79.7407 98.4913 79.3374 98.9679L78.1699 98.4899C78.2841 98.284 78.4886 98.1402 78.7255 98.1063C78.9567 98.0725 79.1471 98.0443 79.3163 98.0161Z" fill="#F8A492"/>
<path d="M84.8423 99.3966L84.5053 100.22C83.4407 99.7688 83.9469 98.8664 83.9469 98.8664C84.3869 99.0144 84.6576 99.0821 84.7055 99.0948C84.7112 99.0962 84.714 99.0962 84.714 99.0962L84.7182 99.0976C84.8338 99.147 84.8902 99.2795 84.8423 99.3966Z" fill="#F8A492"/>
<path d="M80.8985 97.7411C81.0085 97.7214 81.1255 97.7002 81.2552 97.6791C81.2552 97.6791 81.3511 97.7355 81.5259 97.8285C81.815 97.9822 82.3212 98.236 82.95 98.4927C83.0036 98.5138 83.0558 98.5364 83.1065 98.5547C83.4308 98.6844 83.7157 98.7873 83.9511 98.8677C83.9511 98.8677 83.4449 99.7687 84.5095 100.221L84.2063 100.963L79.339 98.9692C79.7423 98.4912 79.3179 98.0175 79.3179 98.0175C79.6718 97.9611 79.9383 97.9145 80.2992 97.8497C80.4698 97.8173 80.663 97.7834 80.8985 97.7411Z" fill="#F47458"/>
<path d="M84.205 100.963L84.1937 100.99C84.1331 101.138 83.9653 101.208 83.8173 101.148L78.2534 98.8692C78.1956 98.8452 78.1533 98.8001 78.1307 98.7465C78.1082 98.6929 78.1068 98.6309 78.1307 98.573C78.142 98.5448 78.1561 98.5181 78.1702 98.4913L79.3377 98.9693L84.205 100.963Z" fill="#400040"/>
<path d="M84.965 98.4927L84.7168 99.0975C84.7168 99.0975 84.714 99.0961 84.7084 99.0961C84.6223 99.0708 83.868 98.8691 83.1277 98.5773C83.077 98.5575 83.0023 98.5152 82.9487 98.4927C82.3184 98.2346 81.8136 97.9808 81.5246 97.8285C81.3568 97.7383 81.2651 97.6847 81.2651 97.6847L81.5133 97.0798L84.7027 98.3855L84.965 98.4927Z" fill="#FAE0B2"/>
<path d="M81.1623 98.4589C81.1538 98.456 81.1468 98.449 81.1426 98.4391L80.8648 97.7524C80.8577 97.7341 80.8662 97.7144 80.8831 97.7073C80.9015 97.7003 80.9212 97.7087 80.9282 97.7257L81.206 98.4109C81.2131 98.4292 81.2046 98.449 81.1877 98.456C81.1792 98.4631 81.1708 98.4631 81.1623 98.4589Z" fill="#F8A492"/>
<path d="M80.8562 98.5237C80.8477 98.5209 80.8407 98.5139 80.8364 98.504L80.5586 97.8173C80.5516 97.799 80.5601 97.7793 80.577 97.7722C80.5953 97.7652 80.615 97.7736 80.6221 97.7905L80.8999 98.4772C80.9069 98.4955 80.8985 98.5153 80.8815 98.5223C80.8745 98.528 80.8646 98.528 80.8562 98.5237Z" fill="#F8A492"/>
<path d="M80.5616 98.5632C80.5531 98.5604 80.5461 98.5533 80.5419 98.5434L80.2655 97.861C80.2655 97.8596 80.2641 97.8553 80.2627 97.8539C80.2571 97.8356 80.2683 97.8173 80.2867 97.8116C80.305 97.806 80.3233 97.8173 80.329 97.8356L80.3304 97.8384L80.6053 98.5166C80.6124 98.535 80.6039 98.5547 80.587 98.5618C80.5785 98.5674 80.5701 98.5674 80.5616 98.5632Z" fill="#F8A492"/>
<path d="M89.5585 100.217C89.5585 100.217 90.193 100.265 90.2339 100.89L89.0607 101.354C89.0001 101.125 89.048 100.881 89.1961 100.691C89.3371 100.506 89.4555 100.354 89.5585 100.217Z" fill="#F8A492"/>
<path d="M94.4991 97.3845L94.8263 98.2121C93.7448 98.6238 93.4854 97.6228 93.4854 97.6228C93.9041 97.4254 94.1481 97.2872 94.1904 97.2618C94.1946 97.259 94.1974 97.2576 94.1974 97.2576L94.2016 97.2562C94.3201 97.2096 94.4526 97.2674 94.4991 97.3845Z" fill="#F8A492"/>
<path d="M90.5076 98.9228C90.5724 98.8325 90.6443 98.7367 90.7219 98.6309C90.7219 98.6309 90.8305 98.6041 91.0208 98.5505C91.3367 98.4603 91.8753 98.2939 92.5084 98.0429C92.5619 98.0218 92.6141 98.0006 92.6649 97.9795C92.9892 97.8484 93.2655 97.7257 93.4911 97.6199C93.4911 97.6199 93.7506 98.621 94.8321 98.2093L95.1267 98.9552L90.2354 100.89C90.1946 100.267 89.5601 100.217 89.5601 100.217C89.7772 99.9309 89.9351 99.7138 90.1508 99.4163C90.2524 99.2753 90.3666 99.1159 90.5076 98.9228Z" fill="#F47458"/>
<path d="M95.1235 98.9552L95.1348 98.982C95.194 99.13 95.1207 99.2978 94.9726 99.357L89.382 101.568C89.3242 101.59 89.2621 101.588 89.2085 101.565C89.155 101.541 89.1112 101.499 89.0873 101.44C89.076 101.411 89.0675 101.382 89.0591 101.354L90.2322 100.89L95.1235 98.9552Z" fill="#400040"/>
<path d="M93.9618 96.647L94.2015 97.2547C94.2015 97.2547 94.1987 97.2562 94.1945 97.259C94.1155 97.3013 93.4302 97.6777 92.6956 97.9795C92.6449 98.0006 92.5617 98.0218 92.5081 98.0429C91.875 98.2939 91.335 98.4603 91.0206 98.5505C90.8373 98.6013 90.7343 98.6267 90.7343 98.6267L90.4946 98.019L93.6996 96.7514L93.9618 96.647Z" fill="#FAE0B2"/>
<path d="M91.1956 99.2583C91.1871 99.2611 91.1772 99.2611 91.1688 99.2583L90.4934 98.9551C90.4765 98.9467 90.468 98.9269 90.4765 98.91C90.4849 98.8931 90.5047 98.8846 90.5216 98.8931L91.197 99.1962C91.2139 99.2047 91.2224 99.2244 91.2139 99.2414C91.2111 99.2484 91.204 99.2541 91.1956 99.2583Z" fill="#F8A492"/>
<path d="M91.0208 99.5164C91.0123 99.5192 91.0024 99.5192 90.994 99.5164L90.3186 99.2147C90.3017 99.2076 90.2932 99.1865 90.3017 99.1695C90.3101 99.1526 90.3299 99.1442 90.3468 99.1526L91.0222 99.4543C91.0391 99.4614 91.0475 99.4825 91.0391 99.4995C91.0349 99.5065 91.0292 99.5136 91.0208 99.5164Z" fill="#F8A492"/>
<path d="M90.8343 99.749C90.8258 99.7519 90.8159 99.7519 90.8075 99.749L90.1349 99.4487C90.1335 99.4487 90.1293 99.4459 90.1278 99.4445C90.1109 99.4346 90.1067 99.4135 90.1166 99.3965C90.1264 99.3796 90.1476 99.3754 90.1645 99.3852L90.1673 99.3867L90.8357 99.6856C90.8526 99.694 90.861 99.7138 90.8526 99.7307C90.8498 99.7406 90.8427 99.7462 90.8343 99.749Z" fill="#F8A492"/>
<path d="M93.6477 85.305C93.6477 85.305 89.2062 85.0751 85.7447 85.0751C82.2831 85.0751 81.134 86.2017 81.5824 89.4659C82.0378 92.7766 81.3525 97.0305 81.3525 97.0305L85.3062 98.6266C85.3062 98.6266 87.0024 91.736 86.6358 90.1427C86.6358 90.1427 94.2681 90.9689 93.6477 85.305Z" fill="#952B95"/>
<path d="M97.4819 87.2987C96.8911 91.1874 91.8926 90.2766 91.8926 90.2766C92.2592 91.8685 94.1712 96.5779 94.1712 96.5779L90.2218 98.1162C90.2218 98.1162 87.5738 92.8104 86.8392 89.5998C86.1046 86.3892 87.5385 85.209 91.0015 85.209C92.9417 85.209 94.7465 85.3768 95.9591 85.5263C96.9108 85.6419 97.496 85.7463 97.496 85.7463C97.5594 86.3342 97.5509 86.8489 97.4819 87.2987Z" fill="#400040"/>
<path d="M93.5773 96.7866L93.5011 96.6132L93.5646 96.585L93.6365 96.7499C93.6421 96.764 93.6435 96.7654 93.6435 96.7739H93.5744H93.6083L93.5773 96.7866ZM93.4165 96.4214L93.3333 96.231L93.3968 96.2028L93.48 96.3932L93.4165 96.4214ZM93.2516 96.0407L93.1698 95.8503L93.2332 95.8236L93.315 96.0139L93.2516 96.0407ZM93.0866 95.66L93.0048 95.4697L93.0683 95.4429L93.15 95.6332L93.0866 95.66ZM92.923 95.2779L92.8412 95.0875L92.9047 95.0607L92.9865 95.2511L92.923 95.2779ZM92.7595 94.8972L92.6791 94.7068L92.7425 94.68L92.8229 94.8704L92.7595 94.8972ZM92.5987 94.5151L92.5183 94.3247L92.5818 94.2979L92.6622 94.4883L92.5987 94.5151ZM92.438 94.133L92.3576 93.9412L92.4211 93.9144L92.5014 94.1062L92.438 94.133ZM92.2772 93.7509L92.1983 93.5591L92.2617 93.5323L92.3407 93.7241L92.2772 93.7509ZM92.1193 93.3673L92.0404 93.1756L92.1038 93.1488L92.1828 93.3405L92.1193 93.3673ZM91.9614 92.9838C91.9346 92.9204 91.9092 92.8555 91.8838 92.7921L91.9473 92.7667C91.9727 92.8301 91.9995 92.895 92.0248 92.9584L91.9614 92.9838ZM91.8063 92.6003C91.7809 92.5354 91.7541 92.472 91.7288 92.4085L91.7922 92.3832C91.8176 92.4466 91.843 92.5115 91.8698 92.5749L91.8063 92.6003ZM91.6526 92.2154C91.6272 92.1505 91.6019 92.0871 91.5765 92.0222L91.6413 91.9968C91.6667 92.0603 91.6921 92.1251 91.7175 92.19L91.6526 92.2154ZM91.5003 91.829C91.475 91.7642 91.4496 91.6993 91.4256 91.6359L91.4905 91.6105C91.5144 91.6739 91.5398 91.7388 91.5652 91.8037L91.5003 91.829ZM91.3509 91.4427C91.3255 91.3778 91.3015 91.313 91.2776 91.2481L91.3424 91.2241C91.3664 91.2876 91.3903 91.3524 91.4157 91.4173L91.3509 91.4427ZM91.2042 91.0535C91.1803 90.9873 91.1563 90.9224 91.1323 90.8589L91.1972 90.835C91.2197 90.8984 91.2437 90.9633 91.2691 91.0296L91.2042 91.0535ZM91.0618 90.6644C91.0378 90.5981 91.0153 90.5318 90.9927 90.4684L91.0576 90.4458C91.0802 90.5093 91.1027 90.5741 91.1267 90.6418L91.0618 90.6644ZM90.9265 90.2724C90.9039 90.2047 90.8813 90.1384 90.8616 90.075L90.9279 90.0538C90.9476 90.1173 90.9702 90.1821 90.9927 90.2498L90.9265 90.2724ZM90.7996 89.8748C90.7784 89.8043 90.7587 89.7366 90.7432 89.6745L90.8094 89.6562C90.8263 89.7183 90.8447 89.7845 90.8658 89.855L90.7996 89.8748ZM91.8077 89.6167C91.7429 89.6167 91.6808 89.6167 91.6216 89.6153L91.623 89.5462C91.6822 89.5477 91.7443 89.5477 91.8077 89.5477H91.8289V89.6167H91.8077ZM92.0375 89.6139L92.0361 89.5448C92.1038 89.5434 92.1715 89.5406 92.242 89.5378L92.2448 89.6069C92.1743 89.6097 92.1052 89.6125 92.0375 89.6139ZM91.4143 89.6083C91.3396 89.6055 91.2705 89.6012 91.2071 89.597L91.2113 89.5279C91.2747 89.5321 91.3438 89.535 91.4171 89.5392L91.4143 89.6083ZM92.4521 89.5942L92.4478 89.5251C92.5155 89.5209 92.5846 89.5152 92.6537 89.5082L92.6608 89.5773C92.5903 89.5843 92.5212 89.5899 92.4521 89.5942ZM90.9998 89.5829C90.9067 89.5744 90.8362 89.5674 90.7925 89.5617L90.801 89.4927C90.8433 89.4983 90.9138 89.5053 91.0054 89.5138L90.9998 89.5829ZM92.8666 89.5547L92.8582 89.4856C92.9258 89.4772 92.9935 89.4687 93.0626 89.4588L93.0725 89.5265C93.0034 89.5378 92.9343 89.5476 92.8666 89.5547ZM93.2783 89.4941L93.2656 89.4264C93.3333 89.4137 93.401 89.401 93.4687 89.3869L93.4828 89.4546C93.4151 89.4687 93.346 89.4828 93.2783 89.4941ZM93.6858 89.4095L93.6689 89.3418C93.7366 89.3249 93.8043 89.3079 93.8677 89.2896L93.8861 89.3559C93.8226 89.3756 93.7549 89.3925 93.6858 89.4095ZM94.0877 89.2981L94.0665 89.2318C94.1328 89.2107 94.1977 89.1881 94.2611 89.1655L94.2851 89.2304C94.2202 89.253 94.1539 89.2755 94.0877 89.2981ZM94.4797 89.1543L94.4529 89.0908C94.5177 89.064 94.5798 89.0358 94.6404 89.0076L94.67 89.0697C94.608 89.0993 94.5445 89.1275 94.4797 89.1543ZM94.8561 88.978L94.8237 88.9174C94.8843 88.8849 94.945 88.8511 95.0028 88.8173L95.038 88.8765C94.9802 88.9103 94.9182 88.9442 94.8561 88.978ZM95.2143 88.7623L95.1762 88.7045C95.2326 88.6664 95.289 88.6255 95.3426 88.5846L95.3849 88.6396C95.3299 88.6819 95.2721 88.7242 95.2143 88.7623ZM95.5456 88.5071L95.5005 88.4549C95.5513 88.4098 95.602 88.3632 95.65 88.3153L95.6993 88.3647C95.65 88.414 95.5978 88.462 95.5456 88.5071ZM95.8417 88.2124L95.7896 88.1673C95.8347 88.1165 95.8784 88.0629 95.9193 88.0093L95.9743 88.0516C95.932 88.1052 95.8868 88.1602 95.8417 88.2124ZM96.0941 87.8796L96.0363 87.8415C96.073 87.7851 96.1096 87.7259 96.1421 87.6667L96.2027 87.7005C96.1688 87.7612 96.1322 87.8218 96.0941 87.8796ZM96.2986 87.5158L96.2365 87.4862C96.2647 87.4256 96.2929 87.3621 96.3183 87.2987L96.3818 87.3241C96.355 87.3889 96.3282 87.4538 96.2986 87.5158ZM96.4523 87.1281L96.386 87.1069C96.4071 87.0435 96.4255 86.9772 96.4438 86.9109L96.5101 86.9279C96.4931 86.9955 96.4734 87.0618 96.4523 87.1281Z" fill="black"/>
<path d="M97.4816 87.2987C96.63 87.2916 95.9419 86.5993 95.9419 85.7449C95.9419 85.6701 95.9475 85.5968 95.9574 85.5249C96.9092 85.6405 97.4943 85.7449 97.4943 85.7449C97.5592 86.3342 97.5507 86.8489 97.4816 87.2987Z" fill="#952B95"/>
<path d="M97.4818 87.3325C96.6146 87.3254 95.9082 86.6134 95.9082 85.7448C95.9082 85.6701 95.9138 85.5954 95.9251 85.5206L95.9928 85.5305C95.9829 85.6024 95.9773 85.6743 95.9773 85.7448C95.9773 86.5753 96.6527 87.2563 97.4818 87.2634V87.3325Z" fill="black"/>
<path d="M89.9692 97.6044L89.9438 97.5409L90.0764 97.4873L90.1018 97.5508L89.9692 97.6044ZM90.2949 97.4732L90.2696 97.4098L90.4613 97.3322L90.4867 97.3957L90.2949 97.4732ZM90.6785 97.3181L90.6531 97.2547L90.8448 97.1771L90.8702 97.2406L90.6785 97.3181ZM91.062 97.163L91.0366 97.0996L91.2284 97.022L91.2537 97.0855L91.062 97.163ZM91.4455 97.0079L91.4201 96.9445L91.6119 96.8669L91.6373 96.9304L91.4455 97.0079ZM91.829 96.8528L91.8036 96.7894L91.9954 96.7118L92.0208 96.7753L91.829 96.8528ZM92.2125 96.6977L92.1872 96.6343L92.3789 96.5567L92.4043 96.6202L92.2125 96.6977ZM92.5961 96.5426L92.5707 96.4792L92.7624 96.4016L92.7878 96.4651L92.5961 96.5426ZM92.981 96.3875L92.9556 96.3241L93.1474 96.2465L93.1728 96.31L92.981 96.3875ZM93.3645 96.2324L93.3391 96.169L93.5309 96.0914L93.5563 96.1549L93.3645 96.2324ZM93.748 96.0773L93.7227 96.0139L93.9144 95.9363L93.9398 95.9998L93.748 96.0773Z" fill="black"/>
<path d="M85.0413 85.0836H88.8793C88.799 85.0836 88.7256 85.1104 88.6721 85.1555C88.6185 85.1992 88.586 85.2613 88.586 85.329C88.586 85.4643 88.7186 85.5757 88.8793 85.5757H80.9862C80.8254 85.5757 80.6929 85.4643 80.6929 85.329C80.6929 85.2613 80.7267 85.1992 80.7789 85.1555C80.8325 85.1104 80.9058 85.0836 80.9862 85.0836H85.0413Z" fill="#D1D1D1"/>
<path d="M93.181 85.0836C93.3163 85.0836 93.4277 85.1936 93.4277 85.3304C93.4277 85.398 93.4009 85.4601 93.3558 85.5052C93.3107 85.5489 93.2486 85.5771 93.181 85.5771H88.8283C88.6929 85.5771 88.5815 85.4657 88.5815 85.3304C88.5815 85.2627 88.6083 85.2007 88.6535 85.1569C88.6986 85.1118 88.7606 85.085 88.8283 85.085H93.0893H93.181V85.0836Z" fill="#9E9E9E"/>
<path d="M89.0891 84.9553C89.0228 85.0371 88.9241 85.0836 88.8198 85.0836H88.5082C88.6139 85.0836 88.7112 85.0357 88.7775 84.9553C88.8438 84.8735 88.8692 84.7678 88.848 84.6648L87.8173 79.7369C87.7835 79.5761 87.6396 79.4605 87.4761 79.4605H87.7877C87.9512 79.4605 88.0951 79.5775 88.1289 79.7369L89.1596 84.6648C89.1808 84.7678 89.1554 84.8721 89.0891 84.9553Z" fill="#D1D1D1"/>
<path d="M88.7776 84.9553C88.7113 85.0371 88.6126 85.0836 88.5083 85.0836H81.0184C80.8548 85.0836 80.711 84.9666 80.6771 84.8072L79.6464 79.8793C79.6253 79.7764 79.6507 79.6706 79.7169 79.5888C79.7832 79.507 79.8819 79.4605 79.9862 79.4605H87.4748C87.6383 79.4605 87.7821 79.5775 87.816 79.7369L88.8467 84.6648C88.8707 84.7678 88.8453 84.8721 88.7776 84.9553Z" fill="#F4F4F4"/>
<path d="M84.6535 82.2706C84.6535 82.4948 84.4716 82.6767 84.2474 82.6767C84.0232 82.6767 83.8413 82.4948 83.8413 82.2706C83.8413 82.0465 84.0232 81.8646 84.2474 81.8646C84.4716 81.8646 84.6535 82.0465 84.6535 82.2706Z" fill="white"/>
<path d="M97.6224 76.0187C97.7973 76.6772 97.958 77.3159 97.9905 77.5655C98.6532 80.2939 97.9383 82.3919 97.3898 83.3183C95.9417 85.3304 91.0039 85.0836 91.0039 85.0836L91.1393 83.4565C91.1393 83.4565 93.0583 83.2774 94.5797 82.5202C95.8176 81.9337 94.9674 78.7837 94.3146 77.0974C93.9649 76.195 94.4175 75.1812 95.3227 74.8386C96.2886 74.4748 97.356 75.0233 97.6224 76.0187Z" fill="#F8C558"/>
</svg>
