<svg width="620" height="171" viewBox="0 0 620 171" fill="none" xmlns="http://www.w3.org/2000/svg">
<mask id="path-1-inside-1_220_13006" fill="white">
<path d="M10 35H609V161H10V35Z"/>
</mask>
<path d="M10 35H609V161H10V35Z" fill="#F5F3F6"/>
<path d="M10 35V34C9.44772 34 9 34.4477 9 35H10ZM609 35H610C610 34.4477 609.552 34 609 34V35ZM608 161C608 161.552 608.448 162 609 162C609.552 162 610 161.552 610 161H608ZM9 161C9 161.552 9.44772 162 10 162C10.5523 162 11 161.552 11 161H9ZM9 39C9 39.5523 9.44772 40 10 40C10.5523 40 11 39.5523 11 39H9ZM11 45C11 44.4477 10.5523 44 10 44C9.44772 44 9 44.4477 9 45H11ZM9 53C9 53.5523 9.44772 54 10 54C10.5523 54 11 53.5523 11 53H9ZM11 59C11 58.4477 10.5523 58 10 58C9.44772 58 9 58.4477 9 59H11ZM9 67C9 67.5523 9.44772 68 10 68C10.5523 68 11 67.5523 11 67H9ZM11 73C11 72.4477 10.5523 72 10 72C9.44772 72 9 72.4477 9 73H11ZM9 81C9 81.5523 9.44772 82 10 82C10.5523 82 11 81.5523 11 81H9ZM11 87C11 86.4477 10.5523 86 10 86C9.44772 86 9 86.4477 9 87H11ZM9 95C9 95.5523 9.44772 96 10 96C10.5523 96 11 95.5523 11 95H9ZM11 101C11 100.448 10.5523 100 10 100C9.44772 100 9 100.448 9 101H11ZM9 109C9 109.552 9.44772 110 10 110C10.5523 110 11 109.552 11 109H9ZM11 115C11 114.448 10.5523 114 10 114C9.44772 114 9 114.448 9 115H11ZM9 123C9 123.552 9.44772 124 10 124C10.5523 124 11 123.552 11 123H9ZM11 129C11 128.448 10.5523 128 10 128C9.44772 128 9 128.448 9 129H11ZM9 137C9 137.552 9.44772 138 10 138C10.5523 138 11 137.552 11 137H9ZM11 143C11 142.448 10.5523 142 10 142C9.44772 142 9 142.448 9 143H11ZM9 151C9 151.552 9.44772 152 10 152C10.5523 152 11 151.552 11 151H9ZM11 157C11 156.448 10.5523 156 10 156C9.44772 156 9 156.448 9 157H11ZM610 157C610 156.448 609.552 156 609 156C608.448 156 608 156.448 608 157H610ZM608 151C608 151.552 608.448 152 609 152C609.552 152 610 151.552 610 151H608ZM610 143C610 142.448 609.552 142 609 142C608.448 142 608 142.448 608 143H610ZM608 137C608 137.552 608.448 138 609 138C609.552 138 610 137.552 610 137H608ZM610 129C610 128.448 609.552 128 609 128C608.448 128 608 128.448 608 129H610ZM608 123C608 123.552 608.448 124 609 124C609.552 124 610 123.552 610 123H608ZM610 115C610 114.448 609.552 114 609 114C608.448 114 608 114.448 608 115H610ZM608 109C608 109.552 608.448 110 609 110C609.552 110 610 109.552 610 109H608ZM610 101C610 100.448 609.552 100 609 100C608.448 100 608 100.448 608 101H610ZM608 95C608 95.5523 608.448 96 609 96C609.552 96 610 95.5523 610 95H608ZM610 87C610 86.4477 609.552 86 609 86C608.448 86 608 86.4477 608 87H610ZM608 81C608 81.5523 608.448 82 609 82C609.552 82 610 81.5523 610 81H608ZM610 73C610 72.4477 609.552 72 609 72C608.448 72 608 72.4477 608 73H610ZM608 67C608 67.5523 608.448 68 609 68C609.552 68 610 67.5523 610 67H608ZM610 59C610 58.4477 609.552 58 609 58C608.448 58 608 58.4477 608 59H610ZM608 53C608 53.5523 608.448 54 609 54C609.552 54 610 53.5523 610 53H608ZM610 45C610 44.4477 609.552 44 609 44C608.448 44 608 44.4477 608 45H610ZM608 39C608 39.5523 608.448 40 609 40C609.552 40 610 39.5523 610 39H608ZM605.02 34C604.468 34 604.02 34.4477 604.02 35C604.02 35.5523 604.468 36 605.02 36V34ZM599.05 36C599.602 36 600.05 35.5523 600.05 35C600.05 34.4477 599.602 34 599.05 34V36ZM591.09 34C590.537 34 590.09 34.4477 590.09 35C590.09 35.5523 590.537 36 591.09 36V34ZM585.12 36C585.672 36 586.12 35.5523 586.12 35C586.12 34.4477 585.672 34 585.12 34V36ZM577.159 34C576.607 34 576.159 34.4477 576.159 35C576.159 35.5523 576.607 36 577.159 36V34ZM571.189 36C571.742 36 572.189 35.5523 572.189 35C572.189 34.4477 571.742 34 571.189 34V36ZM563.229 34C562.677 34 562.229 34.4477 562.229 35C562.229 35.5523 562.677 36 563.229 36V34ZM557.259 36C557.811 36 558.259 35.5523 558.259 35C558.259 34.4477 557.811 34 557.259 34V36ZM549.299 34C548.747 34 548.299 34.4477 548.299 35C548.299 35.5523 548.747 36 549.299 36V34ZM543.329 36C543.881 36 544.329 35.5523 544.329 35C544.329 34.4477 543.881 34 543.329 34V36ZM535.369 34C534.816 34 534.369 34.4477 534.369 35C534.369 35.5523 534.816 36 535.369 36V34ZM529.399 36C529.951 36 530.399 35.5523 530.399 35C530.399 34.4477 529.951 34 529.399 34V36ZM521.439 34C520.886 34 520.439 34.4477 520.439 35C520.439 35.5523 520.886 36 521.439 36V34ZM515.468 36C516.021 36 516.468 35.5523 516.468 35C516.468 34.4477 516.021 34 515.468 34V36ZM507.508 34C506.956 34 506.508 34.4477 506.508 35C506.508 35.5523 506.956 36 507.508 36V34ZM501.538 36C502.09 36 502.538 35.5523 502.538 35C502.538 34.4477 502.09 34 501.538 34V36ZM493.578 34C493.026 34 492.578 34.4477 492.578 35C492.578 35.5523 493.026 36 493.578 36V34ZM487.608 36C488.16 36 488.608 35.5523 488.608 35C488.608 34.4477 488.16 34 487.608 34V36ZM479.648 34C479.096 34 478.648 34.4477 478.648 35C478.648 35.5523 479.096 36 479.648 36V34ZM473.678 36C474.23 36 474.678 35.5523 474.678 35C474.678 34.4477 474.23 34 473.678 34V36ZM465.718 34C465.165 34 464.718 34.4477 464.718 35C464.718 35.5523 465.165 36 465.718 36V34ZM459.748 36C460.3 36 460.748 35.5523 460.748 35C460.748 34.4477 460.3 34 459.748 34V36ZM451.787 34C451.235 34 450.787 34.4477 450.787 35C450.787 35.5523 451.235 36 451.787 36V34ZM445.817 36C446.37 36 446.817 35.5523 446.817 35C446.817 34.4477 446.37 34 445.817 34V36ZM437.857 34C437.305 34 436.857 34.4477 436.857 35C436.857 35.5523 437.305 36 437.857 36V34ZM431.887 36C432.439 36 432.887 35.5523 432.887 35C432.887 34.4477 432.439 34 431.887 34V36ZM423.927 34C423.375 34 422.927 34.4477 422.927 35C422.927 35.5523 423.375 36 423.927 36V34ZM417.957 36C418.509 36 418.957 35.5523 418.957 35C418.957 34.4477 418.509 34 417.957 34V36ZM409.997 34C409.444 34 408.997 34.4477 408.997 35C408.997 35.5523 409.444 36 409.997 36V34ZM404.027 36C404.579 36 405.027 35.5523 405.027 35C405.027 34.4477 404.579 34 404.027 34V36ZM396.066 34C395.514 34 395.066 34.4477 395.066 35C395.066 35.5523 395.514 36 396.066 36V34ZM390.096 36C390.649 36 391.096 35.5523 391.096 35C391.096 34.4477 390.649 34 390.096 34V36ZM382.136 34C381.584 34 381.136 34.4477 381.136 35C381.136 35.5523 381.584 36 382.136 36V34ZM376.166 36C376.718 36 377.166 35.5523 377.166 35C377.166 34.4477 376.718 34 376.166 34V36ZM368.206 34C367.654 34 367.206 34.4477 367.206 35C367.206 35.5523 367.654 36 368.206 36V34ZM362.236 36C362.788 36 363.236 35.5523 363.236 35C363.236 34.4477 362.788 34 362.236 34V36ZM354.276 34C353.724 34 353.276 34.4477 353.276 35C353.276 35.5523 353.724 36 354.276 36V34ZM348.306 36C348.858 36 349.306 35.5523 349.306 35C349.306 34.4477 348.858 34 348.306 34V36ZM340.346 34C339.793 34 339.346 34.4477 339.346 35C339.346 35.5523 339.793 36 340.346 36V34ZM334.375 36C334.928 36 335.375 35.5523 335.375 35C335.375 34.4477 334.928 34 334.375 34V36ZM326.415 34C325.863 34 325.415 34.4477 325.415 35C325.415 35.5523 325.863 36 326.415 36V34ZM320.445 36C320.998 36 321.445 35.5523 321.445 35C321.445 34.4477 320.998 34 320.445 34V36ZM312.485 34C311.933 34 311.485 34.4477 311.485 35C311.485 35.5523 311.933 36 312.485 36V34ZM306.515 36C307.067 36 307.515 35.5523 307.515 35C307.515 34.4477 307.067 34 306.515 34V36ZM298.555 34C298.003 34 297.555 34.4477 297.555 35C297.555 35.5523 298.003 36 298.555 36V34ZM292.585 36C293.137 36 293.585 35.5523 293.585 35C293.585 34.4477 293.137 34 292.585 34V36ZM284.625 34C284.072 34 283.625 34.4477 283.625 35C283.625 35.5523 284.072 36 284.625 36V34ZM278.655 36C279.207 36 279.655 35.5523 279.655 35C279.655 34.4477 279.207 34 278.655 34V36ZM270.694 34C270.142 34 269.694 34.4477 269.694 35C269.694 35.5523 270.142 36 270.694 36V34ZM264.724 36C265.277 36 265.724 35.5523 265.724 35C265.724 34.4477 265.277 34 264.724 34V36ZM256.764 34C256.212 34 255.764 34.4477 255.764 35C255.764 35.5523 256.212 36 256.764 36V34ZM250.794 36C251.346 36 251.794 35.5523 251.794 35C251.794 34.4477 251.346 34 250.794 34V36ZM242.834 34C242.282 34 241.834 34.4477 241.834 35C241.834 35.5523 242.282 36 242.834 36V34ZM236.864 36C237.416 36 237.864 35.5523 237.864 35C237.864 34.4477 237.416 34 236.864 34V36ZM228.904 34C228.351 34 227.904 34.4477 227.904 35C227.904 35.5523 228.351 36 228.904 36V34ZM222.934 36C223.486 36 223.934 35.5523 223.934 35C223.934 34.4477 223.486 34 222.934 34V36ZM214.973 34C214.421 34 213.973 34.4477 213.973 35C213.973 35.5523 214.421 36 214.973 36V34ZM209.003 36C209.556 36 210.003 35.5523 210.003 35C210.003 34.4477 209.556 34 209.003 34V36ZM201.043 34C200.491 34 200.043 34.4477 200.043 35C200.043 35.5523 200.491 36 201.043 36V34ZM195.073 36C195.625 36 196.073 35.5523 196.073 35C196.073 34.4477 195.625 34 195.073 34V36ZM187.113 34C186.561 34 186.113 34.4477 186.113 35C186.113 35.5523 186.561 36 187.113 36V34ZM181.143 36C181.695 36 182.143 35.5523 182.143 35C182.143 34.4477 181.695 34 181.143 34V36ZM173.183 34C172.63 34 172.183 34.4477 172.183 35C172.183 35.5523 172.63 36 173.183 36V34ZM167.213 36C167.765 36 168.213 35.5523 168.213 35C168.213 34.4477 167.765 34 167.213 34V36ZM159.253 34C158.7 34 158.253 34.4477 158.253 35C158.253 35.5523 158.7 36 159.253 36V34ZM153.282 36C153.835 36 154.282 35.5523 154.282 35C154.282 34.4477 153.835 34 153.282 34V36ZM145.322 34C144.77 34 144.322 34.4477 144.322 35C144.322 35.5523 144.77 36 145.322 36V34ZM139.352 36C139.904 36 140.352 35.5523 140.352 35C140.352 34.4477 139.904 34 139.352 34V36ZM131.392 34C130.84 34 130.392 34.4477 130.392 35C130.392 35.5523 130.84 36 131.392 36V34ZM125.422 36C125.974 36 126.422 35.5523 126.422 35C126.422 34.4477 125.974 34 125.422 34V36ZM117.462 34C116.91 34 116.462 34.4477 116.462 35C116.462 35.5523 116.91 36 117.462 36V34ZM111.492 36C112.044 36 112.492 35.5523 112.492 35C112.492 34.4477 112.044 34 111.492 34V36ZM103.532 34C102.979 34 102.532 34.4477 102.532 35C102.532 35.5523 102.979 36 103.532 36V34ZM97.5614 36C98.1137 36 98.5614 35.5523 98.5614 35C98.5614 34.4477 98.1137 34 97.5614 34V36ZM89.6013 34C89.049 34 88.6013 34.4477 88.6013 35C88.6013 35.5523 89.049 36 89.6013 36V34ZM83.6312 36C84.1835 36 84.6312 35.5523 84.6312 35C84.6312 34.4477 84.1835 34 83.6312 34V36ZM75.6711 34C75.1188 34 74.6711 34.4477 74.6711 35C74.6711 35.5523 75.1188 36 75.6711 36V34ZM69.701 36C70.2533 36 70.701 35.5523 70.701 35C70.701 34.4477 70.2533 34 69.701 34V36ZM61.7408 34C61.1886 34 60.7408 34.4477 60.7408 35C60.7408 35.5523 61.1886 36 61.7408 36V34ZM55.7708 36C56.3231 36 56.7708 35.5523 56.7708 35C56.7708 34.4477 56.3231 34 55.7708 34V36ZM47.8106 34C47.2583 34 46.8106 34.4477 46.8106 35C46.8106 35.5523 47.2583 36 47.8106 36V34ZM41.8405 36C42.3928 36 42.8405 35.5523 42.8405 35C42.8405 34.4477 42.3928 34 41.8405 34V36ZM33.8804 34C33.3281 34 32.8804 34.4477 32.8804 35C32.8804 35.5523 33.3281 36 33.8804 36V34ZM27.9103 36C28.4626 36 28.9103 35.5523 28.9103 35C28.9103 34.4477 28.4626 34 27.9103 34V36ZM19.9501 34C19.3978 34 18.9501 34.4477 18.9501 35C18.9501 35.5523 19.3978 36 19.9501 36V34ZM13.98 36C14.5323 36 14.98 35.5523 14.98 35C14.98 34.4477 14.5323 34 13.98 34V36ZM9 35V39H11V35H9ZM9 45V53H11V45H9ZM9 59V67H11V59H9ZM9 73V81H11V73H9ZM9 87V95H11V87H9ZM9 101V109H11V101H9ZM9 115V123H11V115H9ZM9 129V137H11V129H9ZM9 143V151H11V143H9ZM9 157V161H11V157H9ZM610 161V157H608V161H610ZM610 151V143H608V151H610ZM610 137V129H608V137H610ZM610 123V115H608V123H610ZM610 109V101H608V109H610ZM610 95V87H608V95H610ZM610 81V73H608V81H610ZM610 67V59H608V67H610ZM610 53V45H608V53H610ZM610 39V35H608V39H610ZM609 34H605.02V36H609V34ZM599.05 34H591.09V36H599.05V34ZM585.12 34H577.159V36H585.12V34ZM571.189 34H563.229V36H571.189V34ZM557.259 34H549.299V36H557.259V34ZM543.329 34H535.369V36H543.329V34ZM529.399 34H521.439V36H529.399V34ZM515.468 34H507.508V36H515.468V34ZM501.538 34H493.578V36H501.538V34ZM487.608 34H479.648V36H487.608V34ZM473.678 34H465.718V36H473.678V34ZM459.748 34H451.787V36H459.748V34ZM445.817 34H437.857V36H445.817V34ZM431.887 34H423.927V36H431.887V34ZM417.957 34H409.997V36H417.957V34ZM404.027 34H396.066V36H404.027V34ZM390.096 34H382.136V36H390.096V34ZM376.166 34H368.206V36H376.166V34ZM362.236 34H354.276V36H362.236V34ZM348.306 34H340.346V36H348.306V34ZM334.375 34H326.415V36H334.375V34ZM320.445 34H312.485V36H320.445V34ZM306.515 34H298.555V36H306.515V34ZM292.585 34H284.625V36H292.585V34ZM278.655 34H270.694V36H278.655V34ZM264.724 34H256.764V36H264.724V34ZM250.794 34H242.834V36H250.794V34ZM236.864 34H228.904V36H236.864V34ZM222.934 34H214.973V36H222.934V34ZM209.003 34H201.043V36H209.003V34ZM195.073 34H187.113V36H195.073V34ZM181.143 34H173.183V36H181.143V34ZM167.213 34H159.253V36H167.213V34ZM153.282 34H145.322V36H153.282V34ZM139.352 34H131.392V36H139.352V34ZM125.422 34H117.462V36H125.422V34ZM111.492 34H103.532V36H111.492V34ZM97.5614 34H89.6013V36H97.5614V34ZM83.6312 34H75.6711V36H83.6312V34ZM69.701 34H61.7408V36H69.701V34ZM55.7708 34H47.8106V36H55.7708V34ZM41.8405 34H33.8804V36H41.8405V34ZM27.9103 34H19.9501V36H27.9103V34ZM13.98 34H10V36H13.98V34ZM10 35V33C8.89543 33 8 33.8954 8 35H10ZM609 35H611C611 33.8954 610.105 33 609 33V35ZM607 161C607 162.105 607.895 163 609 163C610.105 163 611 162.105 611 161H607ZM8 161C8 162.105 8.89543 163 10 163C11.1046 163 12 162.105 12 161H8ZM8 39C8 40.1046 8.89543 41 10 41C11.1046 41 12 40.1046 12 39H8ZM12 45C12 43.8954 11.1046 43 10 43C8.89543 43 8 43.8954 8 45H12ZM8 53C8 54.1046 8.89543 55 10 55C11.1046 55 12 54.1046 12 53H8ZM12 59C12 57.8954 11.1046 57 10 57C8.89543 57 8 57.8954 8 59H12ZM8 67C8 68.1046 8.89543 69 10 69C11.1046 69 12 68.1046 12 67H8ZM12 73C12 71.8954 11.1046 71 10 71C8.89543 71 8 71.8954 8 73H12ZM8 81C8 82.1046 8.89543 83 10 83C11.1046 83 12 82.1046 12 81H8ZM12 87C12 85.8954 11.1046 85 10 85C8.89543 85 8 85.8954 8 87H12ZM8 95C8 96.1046 8.89543 97 10 97C11.1046 97 12 96.1046 12 95H8ZM12 101C12 99.8954 11.1046 99 10 99C8.89543 99 8 99.8954 8 101H12ZM8 109C8 110.105 8.89543 111 10 111C11.1046 111 12 110.105 12 109H8ZM12 115C12 113.895 11.1046 113 10 113C8.89543 113 8 113.895 8 115H12ZM8 123C8 124.105 8.89543 125 10 125C11.1046 125 12 124.105 12 123H8ZM12 129C12 127.895 11.1046 127 10 127C8.89543 127 8 127.895 8 129H12ZM8 137C8 138.105 8.89543 139 10 139C11.1046 139 12 138.105 12 137H8ZM12 143C12 141.895 11.1046 141 10 141C8.89543 141 8 141.895 8 143H12ZM8 151C8 152.105 8.89543 153 10 153C11.1046 153 12 152.105 12 151H8ZM12 157C12 155.895 11.1046 155 10 155C8.89543 155 8 155.895 8 157H12ZM611 157C611 155.895 610.105 155 609 155C607.895 155 607 155.895 607 157H611ZM607 151C607 152.105 607.895 153 609 153C610.105 153 611 152.105 611 151H607ZM611 143C611 141.895 610.105 141 609 141C607.895 141 607 141.895 607 143H611ZM607 137C607 138.105 607.895 139 609 139C610.105 139 611 138.105 611 137H607ZM611 129C611 127.895 610.105 127 609 127C607.895 127 607 127.895 607 129H611ZM607 123C607 124.105 607.895 125 609 125C610.105 125 611 124.105 611 123H607ZM611 115C611 113.895 610.105 113 609 113C607.895 113 607 113.895 607 115H611ZM607 109C607 110.105 607.895 111 609 111C610.105 111 611 110.105 611 109H607ZM611 101C611 99.8954 610.105 99 609 99C607.895 99 607 99.8954 607 101H611ZM607 95C607 96.1046 607.895 97 609 97C610.105 97 611 96.1046 611 95H607ZM611 87C611 85.8954 610.105 85 609 85C607.895 85 607 85.8954 607 87H611ZM607 81C607 82.1046 607.895 83 609 83C610.105 83 611 82.1046 611 81H607ZM611 73C611 71.8954 610.105 71 609 71C607.895 71 607 71.8954 607 73H611ZM607 67C607 68.1046 607.895 69 609 69C610.105 69 611 68.1046 611 67H607ZM611 59C611 57.8954 610.105 57 609 57C607.895 57 607 57.8954 607 59H611ZM607 53C607 54.1046 607.895 55 609 55C610.105 55 611 54.1046 611 53H607ZM611 45C611 43.8954 610.105 43 609 43C607.895 43 607 43.8954 607 45H611ZM607 39C607 40.1046 607.895 41 609 41C610.105 41 611 40.1046 611 39H607ZM605.02 33C603.915 33 603.02 33.8954 603.02 35C603.02 36.1046 603.915 37 605.02 37V33ZM599.05 37C600.154 37 601.05 36.1046 601.05 35C601.05 33.8954 600.154 33 599.05 33V37ZM591.09 33C589.985 33 589.09 33.8954 589.09 35C589.09 36.1046 589.985 37 591.09 37V33ZM585.12 37C586.224 37 587.12 36.1046 587.12 35C587.12 33.8954 586.224 33 585.12 33V37ZM577.159 33C576.055 33 575.159 33.8954 575.159 35C575.159 36.1046 576.055 37 577.159 37V33ZM571.189 37C572.294 37 573.189 36.1046 573.189 35C573.189 33.8954 572.294 33 571.189 33V37ZM563.229 33C562.125 33 561.229 33.8954 561.229 35C561.229 36.1046 562.125 37 563.229 37V33ZM557.259 37C558.364 37 559.259 36.1046 559.259 35C559.259 33.8954 558.364 33 557.259 33V37ZM549.299 33C548.194 33 547.299 33.8954 547.299 35C547.299 36.1046 548.194 37 549.299 37V33ZM543.329 37C544.433 37 545.329 36.1046 545.329 35C545.329 33.8954 544.433 33 543.329 33V37ZM535.369 33C534.264 33 533.369 33.8954 533.369 35C533.369 36.1046 534.264 37 535.369 37V33ZM529.399 37C530.503 37 531.399 36.1046 531.399 35C531.399 33.8954 530.503 33 529.399 33V37ZM521.439 33C520.334 33 519.439 33.8954 519.439 35C519.439 36.1046 520.334 37 521.439 37V33ZM515.468 37C516.573 37 517.468 36.1046 517.468 35C517.468 33.8954 516.573 33 515.468 33V37ZM507.508 33C506.404 33 505.508 33.8954 505.508 35C505.508 36.1046 506.404 37 507.508 37V33ZM501.538 37C502.643 37 503.538 36.1046 503.538 35C503.538 33.8954 502.643 33 501.538 33V37ZM493.578 33C492.473 33 491.578 33.8954 491.578 35C491.578 36.1046 492.473 37 493.578 37V33ZM487.608 37C488.713 37 489.608 36.1046 489.608 35C489.608 33.8954 488.713 33 487.608 33V37ZM479.648 33C478.543 33 477.648 33.8954 477.648 35C477.648 36.1046 478.543 37 479.648 37V33ZM473.678 37C474.782 37 475.678 36.1046 475.678 35C475.678 33.8954 474.782 33 473.678 33V37ZM465.718 33C464.613 33 463.718 33.8954 463.718 35C463.718 36.1046 464.613 37 465.718 37V33ZM459.748 37C460.852 37 461.748 36.1046 461.748 35C461.748 33.8954 460.852 33 459.748 33V37ZM451.787 33C450.683 33 449.787 33.8954 449.787 35C449.787 36.1046 450.683 37 451.787 37V33ZM445.817 37C446.922 37 447.817 36.1046 447.817 35C447.817 33.8954 446.922 33 445.817 33V37ZM437.857 33C436.753 33 435.857 33.8954 435.857 35C435.857 36.1046 436.753 37 437.857 37V33ZM431.887 37C432.992 37 433.887 36.1046 433.887 35C433.887 33.8954 432.992 33 431.887 33V37ZM423.927 33C422.822 33 421.927 33.8954 421.927 35C421.927 36.1046 422.822 37 423.927 37V33ZM417.957 37C419.061 37 419.957 36.1046 419.957 35C419.957 33.8954 419.061 33 417.957 33V37ZM409.997 33C408.892 33 407.997 33.8954 407.997 35C407.997 36.1046 408.892 37 409.997 37V33ZM404.027 37C405.131 37 406.027 36.1046 406.027 35C406.027 33.8954 405.131 33 404.027 33V37ZM396.066 33C394.962 33 394.066 33.8954 394.066 35C394.066 36.1046 394.962 37 396.066 37V33ZM390.096 37C391.201 37 392.096 36.1046 392.096 35C392.096 33.8954 391.201 33 390.096 33V37ZM382.136 33C381.032 33 380.136 33.8954 380.136 35C380.136 36.1046 381.032 37 382.136 37V33ZM376.166 37C377.271 37 378.166 36.1046 378.166 35C378.166 33.8954 377.271 33 376.166 33V37ZM368.206 33C367.101 33 366.206 33.8954 366.206 35C366.206 36.1046 367.101 37 368.206 37V33ZM362.236 37C363.341 37 364.236 36.1046 364.236 35C364.236 33.8954 363.341 33 362.236 33V37ZM354.276 33C353.171 33 352.276 33.8954 352.276 35C352.276 36.1046 353.171 37 354.276 37V33ZM348.306 37C349.41 37 350.306 36.1046 350.306 35C350.306 33.8954 349.41 33 348.306 33V37ZM340.346 33C339.241 33 338.346 33.8954 338.346 35C338.346 36.1046 339.241 37 340.346 37V33ZM334.375 37C335.48 37 336.375 36.1046 336.375 35C336.375 33.8954 335.48 33 334.375 33V37ZM326.415 33C325.311 33 324.415 33.8954 324.415 35C324.415 36.1046 325.311 37 326.415 37V33ZM320.445 37C321.55 37 322.445 36.1046 322.445 35C322.445 33.8954 321.55 33 320.445 33V37ZM312.485 33C311.381 33 310.485 33.8954 310.485 35C310.485 36.1046 311.381 37 312.485 37V33ZM306.515 37C307.62 37 308.515 36.1046 308.515 35C308.515 33.8954 307.62 33 306.515 33V37ZM298.555 33C297.45 33 296.555 33.8954 296.555 35C296.555 36.1046 297.45 37 298.555 37V33ZM292.585 37C293.689 37 294.585 36.1046 294.585 35C294.585 33.8954 293.689 33 292.585 33V37ZM284.625 33C283.52 33 282.625 33.8954 282.625 35C282.625 36.1046 283.52 37 284.625 37V33ZM278.655 37C279.759 37 280.655 36.1046 280.655 35C280.655 33.8954 279.759 33 278.655 33V37ZM270.694 33C269.59 33 268.694 33.8954 268.694 35C268.694 36.1046 269.59 37 270.694 37V33ZM264.724 37C265.829 37 266.724 36.1046 266.724 35C266.724 33.8954 265.829 33 264.724 33V37ZM256.764 33C255.66 33 254.764 33.8954 254.764 35C254.764 36.1046 255.66 37 256.764 37V33ZM250.794 37C251.899 37 252.794 36.1046 252.794 35C252.794 33.8954 251.899 33 250.794 33V37ZM242.834 33C241.729 33 240.834 33.8954 240.834 35C240.834 36.1046 241.729 37 242.834 37V33ZM236.864 37C237.968 37 238.864 36.1046 238.864 35C238.864 33.8954 237.968 33 236.864 33V37ZM228.904 33C227.799 33 226.904 33.8954 226.904 35C226.904 36.1046 227.799 37 228.904 37V33ZM222.934 37C224.038 37 224.934 36.1046 224.934 35C224.934 33.8954 224.038 33 222.934 33V37ZM214.973 33C213.869 33 212.973 33.8954 212.973 35C212.973 36.1046 213.869 37 214.973 37V33ZM209.003 37C210.108 37 211.003 36.1046 211.003 35C211.003 33.8954 210.108 33 209.003 33V37ZM201.043 33C199.939 33 199.043 33.8954 199.043 35C199.043 36.1046 199.939 37 201.043 37V33ZM195.073 37C196.178 37 197.073 36.1046 197.073 35C197.073 33.8954 196.178 33 195.073 33V37ZM187.113 33C186.008 33 185.113 33.8954 185.113 35C185.113 36.1046 186.008 37 187.113 37V33ZM181.143 37C182.247 37 183.143 36.1046 183.143 35C183.143 33.8954 182.247 33 181.143 33V37ZM173.183 33C172.078 33 171.183 33.8954 171.183 35C171.183 36.1046 172.078 37 173.183 37V33ZM167.213 37C168.317 37 169.213 36.1046 169.213 35C169.213 33.8954 168.317 33 167.213 33V37ZM159.253 33C158.148 33 157.253 33.8954 157.253 35C157.253 36.1046 158.148 37 159.253 37V33ZM153.282 37C154.387 37 155.282 36.1046 155.282 35C155.282 33.8954 154.387 33 153.282 33V37ZM145.322 33C144.218 33 143.322 33.8954 143.322 35C143.322 36.1046 144.218 37 145.322 37V33ZM139.352 37C140.457 37 141.352 36.1046 141.352 35C141.352 33.8954 140.457 33 139.352 33V37ZM131.392 33C130.287 33 129.392 33.8954 129.392 35C129.392 36.1046 130.287 37 131.392 37V33ZM125.422 37C126.526 37 127.422 36.1046 127.422 35C127.422 33.8954 126.526 33 125.422 33V37ZM117.462 33C116.357 33 115.462 33.8954 115.462 35C115.462 36.1046 116.357 37 117.462 37V33ZM111.492 37C112.596 37 113.492 36.1046 113.492 35C113.492 33.8954 112.596 33 111.492 33V37ZM103.532 33C102.427 33 101.532 33.8954 101.532 35C101.532 36.1046 102.427 37 103.532 37V33ZM97.5614 37C98.666 37 99.5614 36.1046 99.5614 35C99.5614 33.8954 98.666 33 97.5614 33V37ZM89.6013 33C88.4967 33 87.6013 33.8954 87.6013 35C87.6013 36.1046 88.4967 37 89.6013 37V33ZM83.6312 37C84.7358 37 85.6312 36.1046 85.6312 35C85.6312 33.8954 84.7358 33 83.6312 33V37ZM75.6711 33C74.5665 33 73.6711 33.8954 73.6711 35C73.6711 36.1046 74.5665 37 75.6711 37V33ZM69.701 37C70.8056 37 71.701 36.1046 71.701 35C71.701 33.8954 70.8056 33 69.701 33V37ZM61.7408 33C60.6363 33 59.7408 33.8954 59.7408 35C59.7408 36.1046 60.6363 37 61.7408 37V33ZM55.7708 37C56.8753 37 57.7708 36.1046 57.7708 35C57.7708 33.8954 56.8753 33 55.7708 33V37ZM47.8106 33C46.706 33 45.8106 33.8954 45.8106 35C45.8106 36.1046 46.706 37 47.8106 37V33ZM41.8405 37C42.9451 37 43.8405 36.1046 43.8405 35C43.8405 33.8954 42.9451 33 41.8405 33V37ZM33.8804 33C32.7758 33 31.8804 33.8954 31.8804 35C31.8804 36.1046 32.7758 37 33.8804 37V33ZM27.9103 37C29.0149 37 29.9103 36.1046 29.9103 35C29.9103 33.8954 29.0149 33 27.9103 33V37ZM19.9501 33C18.8456 33 17.9501 33.8954 17.9501 35C17.9501 36.1046 18.8456 37 19.9501 37V33ZM13.98 37C15.0846 37 15.98 36.1046 15.98 35C15.98 33.8954 15.0846 33 13.98 33V37ZM8 35V39H12V35H8ZM8 45V53H12V45H8ZM8 59V67H12V59H8ZM8 73V81H12V73H8ZM8 87V95H12V87H8ZM8 101V109H12V101H8ZM8 115V123H12V115H8ZM8 129V137H12V129H8ZM8 143V151H12V143H8ZM8 157V161H12V157H8ZM611 161V157H607V161H611ZM611 151V143H607V151H611ZM611 137V129H607V137H611ZM611 123V115H607V123H611ZM611 109V101H607V109H611ZM611 95V87H607V95H611ZM611 81V73H607V81H611ZM611 67V59H607V67H611ZM611 53V45H607V53H611ZM611 39V35H607V39H611ZM609 33H605.02V37H609V33ZM599.05 33H591.09V37H599.05V33ZM585.12 33H577.159V37H585.12V33ZM571.189 33H563.229V37H571.189V33ZM557.259 33H549.299V37H557.259V33ZM543.329 33H535.369V37H543.329V33ZM529.399 33H521.439V37H529.399V33ZM515.468 33H507.508V37H515.468V33ZM501.538 33H493.578V37H501.538V33ZM487.608 33H479.648V37H487.608V33ZM473.678 33H465.718V37H473.678V33ZM459.748 33H451.787V37H459.748V33ZM445.817 33H437.857V37H445.817V33ZM431.887 33H423.927V37H431.887V33ZM417.957 33H409.997V37H417.957V33ZM404.027 33H396.066V37H404.027V33ZM390.096 33H382.136V37H390.096V33ZM376.166 33H368.206V37H376.166V33ZM362.236 33H354.276V37H362.236V33ZM348.306 33H340.346V37H348.306V33ZM334.375 33H326.415V37H334.375V33ZM320.445 33H312.485V37H320.445V33ZM306.515 33H298.555V37H306.515V33ZM292.585 33H284.625V37H292.585V33ZM278.655 33H270.694V37H278.655V33ZM264.724 33H256.764V37H264.724V33ZM250.794 33H242.834V37H250.794V33ZM236.864 33H228.904V37H236.864V33ZM222.934 33H214.973V37H222.934V33ZM209.003 33H201.043V37H209.003V33ZM195.073 33H187.113V37H195.073V33ZM181.143 33H173.183V37H181.143V33ZM167.213 33H159.253V37H167.213V33ZM153.282 33H145.322V37H153.282V33ZM139.352 33H131.392V37H139.352V33ZM125.422 33H117.462V37H125.422V33ZM111.492 33H103.532V37H111.492V33ZM97.5614 33H89.6013V37H97.5614V33ZM83.6312 33H75.6711V37H83.6312V33ZM69.701 33H61.7408V37H69.701V33ZM55.7708 33H47.8106V37H55.7708V33ZM41.8405 33H33.8804V37H41.8405V33ZM27.9103 33H19.9501V37H27.9103V33ZM13.98 33H10V37H13.98V33Z" fill="black" mask="url(#path-1-inside-1_220_13006)"/>
<g filter="url(#filter0_i_220_13006)">
<rect x="177" width="266" height="70" rx="24" fill="#F5F3F6"/>
<path d="M200.444 46.384C198.567 46.384 196.913 45.9467 195.484 45.072C194.076 44.1973 192.967 42.9493 192.156 41.328C191.367 39.6853 190.972 37.7333 190.972 35.472C190.972 33.1893 191.367 31.2587 192.156 29.68C192.967 28.08 194.076 26.864 195.484 26.032C196.913 25.1787 198.567 24.752 200.444 24.752C202.321 24.752 203.964 25.1787 205.372 26.032C206.801 26.864 207.911 28.08 208.7 29.68C209.511 31.28 209.916 33.2107 209.916 35.472C209.916 37.7333 209.511 39.6853 208.7 41.328C207.911 42.9493 206.801 44.1973 205.372 45.072C203.964 45.9467 202.321 46.384 200.444 46.384ZM200.444 42.32C201.873 42.32 203.004 41.7013 203.836 40.464C204.668 39.2267 205.084 37.5627 205.084 35.472C205.084 33.3813 204.668 31.7493 203.836 30.576C203.004 29.4027 201.873 28.816 200.444 28.816C199.015 28.816 197.884 29.4027 197.052 30.576C196.22 31.7493 195.804 33.3813 195.804 35.472C195.804 37.5627 196.22 39.2267 197.052 40.464C197.884 41.7013 199.015 42.32 200.444 42.32ZM213.455 51.888V30.128H217.295L217.615 31.696H217.743C218.362 31.1413 219.055 30.6827 219.823 30.32C220.612 29.936 221.423 29.744 222.255 29.744C224.175 29.744 225.69 30.48 226.799 31.952C227.908 33.4027 228.463 35.3547 228.463 37.808C228.463 39.6213 228.143 41.168 227.503 42.448C226.863 43.728 226.031 44.7093 225.007 45.392C224.004 46.0533 222.927 46.384 221.775 46.384C221.092 46.384 220.431 46.2453 219.791 45.968C219.151 45.6693 218.554 45.2533 217.999 44.72L218.159 47.248V51.888H213.455ZM220.687 42.544C221.498 42.544 222.191 42.1707 222.767 41.424C223.343 40.6773 223.631 39.4933 223.631 37.872C223.631 35.0133 222.714 33.584 220.879 33.584C219.962 33.584 219.055 34.064 218.159 35.024V41.52C218.586 41.904 219.012 42.1707 219.439 42.32C219.866 42.4693 220.282 42.544 220.687 42.544ZM231.799 51.888V30.128H235.639L235.959 31.696H236.087C236.705 31.1413 237.399 30.6827 238.167 30.32C238.956 29.936 239.767 29.744 240.599 29.744C242.519 29.744 244.033 30.48 245.143 31.952C246.252 33.4027 246.807 35.3547 246.807 37.808C246.807 39.6213 246.487 41.168 245.847 42.448C245.207 43.728 244.375 44.7093 243.351 45.392C242.348 46.0533 241.271 46.384 240.119 46.384C239.436 46.384 238.775 46.2453 238.135 45.968C237.495 45.6693 236.897 45.2533 236.343 44.72L236.503 47.248V51.888H231.799ZM239.031 42.544C239.841 42.544 240.535 42.1707 241.111 41.424C241.687 40.6773 241.975 39.4933 241.975 37.872C241.975 35.0133 241.057 33.584 239.223 33.584C238.305 33.584 237.399 34.064 236.503 35.024V41.52C236.929 41.904 237.356 42.1707 237.783 42.32C238.209 42.4693 238.625 42.544 239.031 42.544ZM256.959 46.384C255.615 46.384 254.345 46.064 253.151 45.424C251.977 44.7627 251.028 43.8133 250.303 42.576C249.577 41.3173 249.215 39.8133 249.215 38.064C249.215 36.2933 249.577 34.7893 250.303 33.552C251.028 32.3147 251.977 31.376 253.151 30.736C254.345 30.0747 255.615 29.744 256.959 29.744C258.303 29.744 259.561 30.0747 260.735 30.736C261.908 31.376 262.857 32.3147 263.583 33.552C264.308 34.7893 264.671 36.2933 264.671 38.064C264.671 39.8133 264.308 41.3173 263.583 42.576C262.857 43.8133 261.908 44.7627 260.735 45.424C259.561 46.064 258.303 46.384 256.959 46.384ZM256.959 42.576C257.919 42.576 258.644 42.1707 259.135 41.36C259.625 40.528 259.871 39.4293 259.871 38.064C259.871 36.6773 259.625 35.5787 259.135 34.768C258.644 33.9573 257.919 33.552 256.959 33.552C255.977 33.552 255.241 33.9573 254.751 34.768C254.281 35.5787 254.047 36.6773 254.047 38.064C254.047 39.4293 254.281 40.528 254.751 41.36C255.241 42.1707 255.977 42.576 256.959 42.576ZM267.893 46V30.128H271.733L272.053 32.912H272.181C272.757 31.8453 273.45 31.056 274.26 30.544C275.071 30.0107 275.882 29.744 276.693 29.744C277.141 29.744 277.514 29.776 277.813 29.84C278.111 29.8827 278.367 29.9573 278.581 30.064L277.813 34.128C277.535 34.0427 277.258 33.9787 276.981 33.936C276.725 33.8933 276.426 33.872 276.085 33.872C275.487 33.872 274.858 34.096 274.197 34.544C273.557 34.9707 273.023 35.7173 272.597 36.784V46H267.893ZM286.755 46.384C284.792 46.384 283.384 45.8187 282.531 44.688C281.699 43.5573 281.283 42.0747 281.283 40.24V33.808H279.107V30.32L281.539 30.128L282.083 25.904H285.987V30.128H289.795V33.808H285.987V40.176C285.987 41.072 286.168 41.7227 286.531 42.128C286.915 42.512 287.416 42.704 288.035 42.704C288.291 42.704 288.547 42.672 288.803 42.608C289.08 42.544 289.325 42.4693 289.539 42.384L290.275 45.808C289.869 45.936 289.368 46.064 288.771 46.192C288.195 46.32 287.523 46.384 286.755 46.384ZM297.661 46.384C295.933 46.384 294.674 45.8187 293.885 44.688C293.117 43.536 292.733 41.968 292.733 39.984V30.128H297.437V39.376C297.437 40.5067 297.597 41.296 297.917 41.744C298.237 42.1707 298.738 42.384 299.421 42.384C300.018 42.384 300.519 42.2453 300.925 41.968C301.33 41.6907 301.767 41.2427 302.237 40.624V30.128H306.941V46H303.101L302.749 43.792H302.653C301.991 44.5813 301.266 45.2107 300.477 45.68C299.687 46.1493 298.749 46.384 297.661 46.384ZM311.08 46V30.128H314.92L315.24 32.144H315.368C316.051 31.504 316.797 30.9493 317.608 30.48C318.44 29.9893 319.389 29.744 320.456 29.744C322.184 29.744 323.432 30.32 324.2 31.472C324.989 32.6027 325.384 34.16 325.384 36.144V46H320.68V36.752C320.68 35.6 320.52 34.8107 320.2 34.384C319.901 33.9573 319.411 33.744 318.728 33.744C318.131 33.744 317.619 33.8827 317.192 34.16C316.765 34.416 316.296 34.7893 315.784 35.28V46H311.08ZM329.393 46V30.128H334.097V46H329.393ZM331.729 27.792C330.939 27.792 330.299 27.568 329.809 27.12C329.318 26.672 329.073 26.0747 329.073 25.328C329.073 24.5813 329.318 23.984 329.809 23.536C330.299 23.088 330.939 22.864 331.729 22.864C332.518 22.864 333.158 23.088 333.649 23.536C334.139 23.984 334.385 24.5813 334.385 25.328C334.385 26.0747 334.139 26.672 333.649 27.12C333.158 27.568 332.518 27.792 331.729 27.792ZM344.348 46.384C342.386 46.384 340.978 45.8187 340.124 44.688C339.292 43.5573 338.876 42.0747 338.876 40.24V33.808H336.7V30.32L339.132 30.128L339.676 25.904H343.58V30.128H347.388V33.808H343.58V40.176C343.58 41.072 343.762 41.7227 344.124 42.128C344.508 42.512 345.01 42.704 345.628 42.704C345.884 42.704 346.14 42.672 346.396 42.608C346.674 42.544 346.919 42.4693 347.132 42.384L347.868 45.808C347.463 45.936 346.962 46.064 346.364 46.192C345.788 46.32 345.116 46.384 344.348 46.384ZM352.246 52.208C351.777 52.208 351.361 52.176 350.998 52.112C350.657 52.048 350.326 51.9733 350.006 51.888L350.838 48.304C350.988 48.3253 351.158 48.3573 351.35 48.4C351.542 48.464 351.724 48.496 351.894 48.496C352.684 48.496 353.292 48.304 353.718 47.92C354.145 47.536 354.465 47.0347 354.678 46.416L354.902 45.584L348.79 30.128H353.526L355.798 36.944C356.033 37.6693 356.246 38.4053 356.438 39.152C356.63 39.8987 356.833 40.6667 357.046 41.456H357.174C357.345 40.7093 357.516 39.9627 357.686 39.216C357.878 38.448 358.07 37.6907 358.262 36.944L360.182 30.128H364.694L359.19 46.16C358.7 47.4827 358.156 48.592 357.558 49.488C356.961 50.4053 356.236 51.088 355.382 51.536C354.55 51.984 353.505 52.208 352.246 52.208ZM373.964 46V25.136H378.668V33.168H385.868V25.136H390.604V46H385.868V37.296H378.668V46H373.964ZM399.911 46.384C398.183 46.384 396.924 45.8187 396.135 44.688C395.367 43.536 394.983 41.968 394.983 39.984V30.128H399.687V39.376C399.687 40.5067 399.847 41.296 400.167 41.744C400.487 42.1707 400.988 42.384 401.671 42.384C402.268 42.384 402.769 42.2453 403.175 41.968C403.58 41.6907 404.017 41.2427 404.487 40.624V30.128H409.191V46H405.351L404.999 43.792H404.903C404.241 44.5813 403.516 45.2107 402.727 45.68C401.937 46.1493 400.999 46.384 399.911 46.384ZM421.65 46.384C420.946 46.384 420.231 46.2133 419.506 45.872C418.802 45.5093 418.141 44.9867 417.522 44.304H417.394L417.01 46H413.33V23.568H418.034V29.072L417.906 31.504C418.525 30.9493 419.197 30.5227 419.922 30.224C420.647 29.904 421.373 29.744 422.098 29.744C423.378 29.744 424.487 30.0747 425.426 30.736C426.365 31.3973 427.079 32.336 427.57 33.552C428.082 34.7467 428.338 36.1547 428.338 37.776C428.338 39.5893 428.018 41.1467 427.378 42.448C426.738 43.728 425.906 44.7093 424.882 45.392C423.879 46.0533 422.802 46.384 421.65 46.384ZM420.562 42.544C421.373 42.544 422.066 42.1707 422.642 41.424C423.218 40.6773 423.506 39.4933 423.506 37.872C423.506 35.0133 422.589 33.584 420.754 33.584C419.815 33.584 418.909 34.064 418.034 35.024V41.52C418.461 41.904 418.887 42.1707 419.314 42.32C419.741 42.4693 420.157 42.544 420.562 42.544Z" fill="#2B002B"/>
</g>
<defs>
<filter id="filter0_i_220_13006" x="177" y="0" width="270" height="74" filterUnits="userSpaceOnUse" color-interpolation-filters="sRGB">
<feFlood flood-opacity="0" result="BackgroundImageFix"/>
<feBlend mode="normal" in="SourceGraphic" in2="BackgroundImageFix" result="shape"/>
<feColorMatrix in="SourceAlpha" type="matrix" values="0 0 0 0 0 0 0 0 0 0 0 0 0 0 0 0 0 0 127 0" result="hardAlpha"/>
<feOffset dx="4" dy="4"/>
<feGaussianBlur stdDeviation="12"/>
<feComposite in2="hardAlpha" operator="arithmetic" k2="-1" k3="1"/>
<feColorMatrix type="matrix" values="0 0 0 0 0.168627 0 0 0 0 0 0 0 0 0 0.168627 0 0 0 0.7 0"/>
<feBlend mode="normal" in2="shape" result="effect1_innerShadow_220_13006"/>
</filter>
</defs>
</svg>
