<svg width="110" height="81" viewBox="0 0 110 81" fill="none" xmlns="http://www.w3.org/2000/svg">
<path d="M106.575 45.6855C104.523 49.5386 101.556 53.5329 97.7024 57.507C97.7007 57.507 97.7007 57.507 97.7007 57.507C92.7736 62.5739 86.2564 67.4888 78.6049 71.3508C71.3652 75.0068 63.111 77.7184 54.224 78.7186C35.5562 80.9416 18.764 74.5397 9.40743 63.7711C0.351373 53.6321 -2.05289 40.1407 1.70539 28.2506C5.64554 15.9333 14.2232 7.66831 23.7829 3.50234C33.5205 -0.725272 44.24 -0.851853 56.587 1.68603C68.8171 4.29446 80.7883 8.4245 90.54 12.7678C100.233 17.2849 107.706 22.0135 109.562 29.8533C110.679 34.459 109.652 39.9149 106.575 45.6855Z" fill="#F1F2FF"/>
<path d="M50.925 80.2106H67.113L62.2687 65.1876C61.5786 63.0473 60.1318 61.6872 58.5455 61.6872C56.8379 61.6872 55.3059 63.2599 54.6896 65.6458L50.925 80.2106Z" fill="#400040"/>
<path opacity="0.2" d="M54.7894 69.1387C55.8524 69.5656 57.0045 69.7159 58.1298 69.8801C58.6558 69.9569 59.1899 70.0225 59.707 70.1487C60.3542 70.3069 60.9899 70.5304 61.5925 70.8166C62.8181 71.3984 64.0437 72.3055 64.2016 73.7602C64.2612 74.3081 64.1525 74.8421 63.7559 75.241C63.4073 75.5914 62.918 75.77 62.4642 75.9348C61.9763 76.1122 61.4582 76.2734 61.0305 76.5783C60.5171 76.9445 60.1612 77.4716 59.9308 78.0551C59.6634 78.7315 59.5366 79.4692 59.5183 80.2106H67.1138L62.2695 65.1876C61.5794 63.047 60.1327 61.6869 58.5463 61.6869C56.8387 61.6869 55.3068 63.2596 54.6901 65.6455L53.9102 68.6637C54.1776 68.8555 54.4764 69.0131 54.7894 69.1387Z" fill="#324177"/>
<path d="M46.8428 81.004H70.5119C70.5119 81.004 69.8929 76.0287 58.6773 76.0287C47.4618 76.0287 46.8428 81.004 46.8428 81.004Z" fill="#AA55AA"/>
<path opacity="0.2" d="M59.9409 76.483C60.8355 76.9073 61.8647 77.0932 62.8442 77.2755C63.3384 77.3674 63.8345 77.4515 64.3267 77.5514C64.6993 77.6272 65.0823 77.7024 65.4346 77.8401C65.8331 77.9961 66.1401 78.2997 66.3685 78.6313C66.5976 78.9636 66.6743 79.3753 66.381 79.697C66.0936 80.0125 65.6243 80.1542 65.2042 80.2531C64.6996 80.3721 64.1773 80.4265 63.6582 80.4601C63.2404 80.4871 62.8213 80.499 62.4025 80.499C61.2654 80.4987 60.1431 80.3154 59.0214 80.1667C58.4397 80.0896 57.8558 80.021 57.2682 79.993C56.7023 79.966 56.1252 80.0144 55.5633 80.0715C54.3865 80.1905 53.2265 80.4156 52.0697 80.6404C51.4727 80.7565 50.8789 80.8764 50.2871 81.0043H70.5122C70.5122 81.0043 69.9138 76.2022 59.2563 76.0341C59.4411 76.214 59.6951 76.3663 59.9409 76.483Z" fill="#324177"/>
<path d="M97.5143 22.3907V60.8021C97.5143 65.0393 94.0877 68.4863 89.8755 68.4863H27.6628C23.4507 68.4863 20.0217 65.0393 20.0217 60.8021V22.3907C20.0217 18.1512 23.4504 14.7042 27.6628 14.7042H89.8755C94.0877 14.7042 97.5143 18.1512 97.5143 22.3907Z" fill="#AA55AA"/>
<path d="M27.6627 67.3745C24.0588 67.3745 21.127 64.4262 21.127 60.8021V22.3907C21.127 18.7653 24.0588 15.816 27.6627 15.816H89.8755C93.4781 15.816 96.4093 18.7653 96.4093 22.3907V60.8021C96.4093 64.4262 93.4784 67.3745 89.8755 67.3745H27.6627Z" fill="#400040"/>
<path d="M86.8025 58.6763H14.3183C14.0168 58.6763 13.7727 58.4304 13.7727 58.1274V20.8852C13.7727 20.5819 14.0172 20.3364 14.3183 20.3364H86.8025C87.104 20.3364 87.3481 20.5823 87.3481 20.8852V58.1271C87.3484 58.4304 87.104 58.6763 86.8025 58.6763Z" fill="#E1E6FD"/>
<path d="M83.9017 56.6012H11.4172C11.1157 56.6012 10.8716 56.3553 10.8716 56.0524V18.8101C10.8716 18.5069 11.116 18.2613 11.4172 18.2613H83.9014C84.2028 18.2613 84.447 18.5072 84.447 18.8101V56.052C84.4473 56.3553 84.2028 56.6012 83.9017 56.6012Z" fill="white"/>
<path d="M79.3349 27.8567H16.1362C15.8622 27.8567 15.6404 27.6332 15.6404 27.358V22.4803C15.6404 22.2047 15.8626 21.9816 16.1362 21.9816H79.3346C79.6085 21.9816 79.8304 22.2051 79.8304 22.4803V27.3576C79.8307 27.6332 79.6085 27.8567 79.3349 27.8567Z" fill="#F1F2FF"/>
<path opacity="0.5" d="M81.9456 29.4792H13.2561V34.5827H81.9456V29.4792Z" fill="#F1F2FF"/>
<path opacity="0.5" d="M22.9552 25.0314C23.3209 24.5185 23.2036 23.8018 22.6937 23.4336C22.1839 23.0658 21.4711 23.1834 21.1054 23.6967C20.7754 24.1595 20.8397 24.7878 21.23 25.1764L20.9023 25.6356C20.8351 25.6452 20.7718 25.6804 20.7292 25.7404L20.0735 26.6601C19.991 26.7762 20.0172 26.9374 20.1325 27.0208C20.2479 27.1038 20.4081 27.0774 20.491 26.9614L21.1467 26.0417C21.1893 25.9821 21.2024 25.9102 21.19 25.8433L21.517 25.3848C22.0089 25.6353 22.624 25.4958 22.9552 25.0314ZM21.2591 23.8074C21.5642 23.3796 22.1586 23.2813 22.5836 23.5882C23.009 23.8951 23.1066 24.4928 22.8016 24.9206C22.4965 25.3485 21.9024 25.4471 21.477 25.1402C21.0517 24.8329 20.954 24.2353 21.2591 23.8074Z" fill="#400040"/>
<path opacity="0.5" d="M22.9552 32.0576C23.3209 31.5447 23.2036 30.8281 22.6937 30.4599C22.1839 30.092 21.4711 30.2097 21.1054 30.7229C20.7754 31.1857 20.8397 31.814 21.23 32.2027L20.9023 32.6619C20.8351 32.6714 20.7718 32.7067 20.7292 32.7667L20.0735 33.6864C19.991 33.8024 20.0172 33.9636 20.1325 34.0467C20.2479 34.1297 20.4081 34.1034 20.491 33.9873L21.1467 33.0676C21.1893 33.008 21.2024 32.9361 21.19 32.8692L21.517 32.4107C22.0089 32.6615 22.624 32.5224 22.9552 32.0576ZM21.2591 30.8337C21.5642 30.4058 22.1586 30.3076 22.5836 30.6145C23.009 30.9214 23.1066 31.519 22.8016 31.9469C22.4965 32.3747 21.9024 32.4733 21.477 32.1664C21.0517 31.8595 20.954 31.2616 21.2591 30.8337Z" fill="#400040"/>
<path d="M27.6003 25.9689L26.4288 23.7716C26.436 24.0653 26.4396 24.4242 26.4396 24.718V25.9689H26.1296V23.467H26.6054L27.7769 25.6643C27.7697 25.3706 27.7661 25.0117 27.7661 24.718V23.467H28.0689L28.0761 25.9689H27.6003Z" fill="#513F3C"/>
<path d="M30.3644 25.1023H28.9803C29.0091 25.6099 29.247 25.7803 29.5281 25.7803C29.7769 25.7803 29.9787 25.6244 30.022 25.3488H30.3464C30.2707 25.813 29.9066 26.0197 29.5137 26.0197C29.0163 26.0197 28.645 25.6933 28.645 25.0153C28.645 24.3916 29.0307 23.9963 29.5534 23.9963C30.0797 23.9963 30.3716 24.3916 30.3716 24.9536C30.3716 24.9826 30.3716 25.0334 30.3644 25.1023ZM28.9839 24.863H30.058C30.0292 24.4641 29.8598 24.2357 29.5462 24.2357C29.2434 24.2357 29.0199 24.4532 28.9839 24.863Z" fill="#513F3C"/>
<path d="M32.5231 25.1023H31.1389C31.1678 25.6099 31.4057 25.7803 31.6868 25.7803C31.9356 25.7803 32.1374 25.6244 32.1807 25.3488H32.5051C32.4294 25.813 32.0653 26.0197 31.6724 26.0197C31.175 26.0197 30.8037 25.6933 30.8037 25.0153C30.8037 24.3916 31.1894 23.9963 31.7121 23.9963C32.2383 23.9963 32.5303 24.3916 32.5303 24.9536C32.5303 24.9826 32.5303 25.0334 32.5231 25.1023ZM31.1422 24.863H32.2164C32.1875 24.4641 32.0181 24.2357 31.7045 24.2357C31.4021 24.2357 31.1786 24.4532 31.1422 24.863Z" fill="#513F3C"/>
<path d="M34.7902 25.9689H34.4802V25.6607L34.336 25.8674C34.2279 25.958 34.026 26.0197 33.8314 26.0197C33.2726 26.0197 32.9626 25.599 32.9626 25.037C32.9626 24.3263 33.4024 23.9963 33.8962 23.9963C34.0548 23.9963 34.2567 24.0435 34.354 24.1233L34.4802 24.3118V23.3038H34.7902V25.9689ZM34.4802 25.0261V24.921C34.4802 24.4242 34.1702 24.2357 33.8962 24.2357C33.561 24.2357 33.3015 24.4967 33.3015 25.0007C33.3015 25.4359 33.4961 25.7803 33.8782 25.7803C34.1954 25.7803 34.4802 25.5773 34.4802 25.0261Z" fill="#513F3C"/>
<path d="M37.5394 25.6933L37.4349 25.9C37.3051 25.9906 37.1393 26.0197 36.9555 26.0197C36.6095 26.0197 36.3391 25.8275 36.3391 25.4721C36.3391 25.037 36.6635 24.8122 37.4133 24.8122H37.5358V24.7614C37.5358 24.678 37.5358 24.6019 37.5286 24.5294C37.5142 24.3517 37.4133 24.2357 37.1574 24.2357C36.8978 24.2357 36.7681 24.3771 36.7464 24.6418H36.422C36.4509 24.232 36.7356 23.9963 37.1574 23.9963C37.6115 23.9963 37.8026 24.1885 37.835 24.504C37.8422 24.5801 37.8458 24.6744 37.8458 24.7578V25.4794C37.8458 25.6244 37.853 25.755 37.8819 25.9689H37.5719L37.5394 25.6933ZM37.5358 25.2401V25.0443C37.0096 25.0044 36.6779 25.1168 36.6779 25.4467C36.6779 25.6788 36.8257 25.7803 37.06 25.7803C37.3484 25.7803 37.5358 25.5882 37.5358 25.2401Z" fill="#513F3C"/>
<path d="M38.4836 26.2808V26.0777H39.9255V26.2808H38.4836Z" fill="#513F3C"/>
<path d="M27.1412 32.8452L26.2633 31.1987C26.2685 31.4189 26.2712 31.6879 26.2712 31.9081V32.8452H26.0388V30.9706H26.3953L27.2732 32.6168C27.268 32.3966 27.265 32.1276 27.265 31.9077V30.9706H27.4921L27.4974 32.8452H27.1412Z" fill="#400040"/>
<path d="M29.2133 32.1958H28.1761C28.1978 32.5762 28.376 32.7038 28.5867 32.7038C28.7732 32.7038 28.9243 32.5868 28.9567 32.3804H29.1998C29.1432 32.7282 28.8705 32.8831 28.5759 32.8831C28.203 32.8831 27.9248 32.6385 27.9248 32.1306C27.9248 31.6631 28.2138 31.3671 28.6057 31.3671C29 31.3671 29.2189 31.6631 29.2189 32.0844C29.2185 32.1062 29.2185 32.1441 29.2133 32.1958ZM28.1788 32.0165H28.9836C28.9619 31.7175 28.8351 31.5464 28.6002 31.5464C28.3734 31.5464 28.206 31.7096 28.1788 32.0165Z" fill="#400040"/>
<path d="M30.8312 32.1958H29.7941C29.8157 32.5762 29.994 32.7038 30.2047 32.7038C30.3911 32.7038 30.5422 32.5868 30.5746 32.3804H30.8178C30.7611 32.7282 30.4884 32.8831 30.1938 32.8831C29.8209 32.8831 29.5427 32.6385 29.5427 32.1306C29.5427 31.6631 29.8317 31.3671 30.2237 31.3671C30.6179 31.3671 30.8368 31.6631 30.8368 32.0844C30.8368 32.1062 30.8368 32.1441 30.8312 32.1958ZM29.797 32.0165H30.6018C30.5802 31.7175 30.4534 31.5464 30.2184 31.5464C29.9913 31.5464 29.8239 31.7096 29.797 32.0165Z" fill="#400040"/>
<path d="M32.5308 32.8452H32.2985V32.6145L32.1903 32.7694C32.1091 32.8373 31.958 32.8835 31.8122 32.8835C31.3934 32.8835 31.1614 32.568 31.1614 32.147C31.1614 31.6147 31.4907 31.3671 31.8607 31.3671C31.9796 31.3671 32.1307 31.4024 32.2038 31.4624L32.2985 31.6038V30.8483H32.5308V32.8452ZM32.2988 32.1388V32.06C32.2988 31.6879 32.0665 31.5464 31.8613 31.5464C31.6103 31.5464 31.4157 31.7419 31.4157 32.1197C31.4157 32.4457 31.5615 32.7038 31.8479 32.7038C32.0851 32.7038 32.2988 32.5515 32.2988 32.1388Z" fill="#400040"/>
<path d="M34.5921 32.6385L34.5138 32.7935C34.4165 32.8614 34.2923 32.8831 34.1547 32.8831C33.8955 32.8831 33.6926 32.7391 33.6926 32.4727C33.6926 32.1467 33.9358 31.9783 34.4974 31.9783H34.5895V31.9404C34.5895 31.8777 34.5895 31.8207 34.5839 31.7666C34.5735 31.6335 34.4974 31.5464 34.3057 31.5464C34.1114 31.5464 34.0141 31.6526 33.9977 31.8507H33.7546C33.7762 31.5438 33.9895 31.3671 34.3054 31.3671C34.6455 31.3671 34.7891 31.5112 34.8133 31.7475C34.8186 31.8046 34.8212 31.8754 34.8212 31.9377V32.4783C34.8212 32.5871 34.8268 32.6847 34.8484 32.8452H34.6161L34.5921 32.6385ZM34.5895 32.299V32.1523C34.195 32.1227 33.9469 32.2067 33.9469 32.4539C33.9469 32.6277 34.0577 32.7038 34.233 32.7038C34.4489 32.7038 34.5895 32.5598 34.5895 32.299Z" fill="#400040"/>
<path d="M37.4665 32.0327C37.4665 32.1197 37.4665 32.1794 37.4583 32.3181C37.4393 32.6468 37.226 32.8831 36.7423 32.8831C36.2373 32.8831 36.0292 32.6168 36.0158 32.2094L36.0132 32.1276H36.4995L36.5047 32.2094C36.5211 32.454 36.6181 32.5245 36.7561 32.5245C36.8911 32.5245 36.9612 32.4375 36.9746 32.2881C36.9799 32.2255 36.9799 32.1659 36.9799 32.1088V30.9706H37.4662V32.0327H37.4665Z" fill="#400040"/>
<path d="M39.3575 32.1197C39.3575 32.5842 39.0551 32.8831 38.5822 32.8831C38.1097 32.8831 37.8069 32.5842 37.8069 32.1197C37.8069 31.6523 38.1093 31.3563 38.5822 31.3563C39.0551 31.3563 39.3575 31.6523 39.3575 32.1197ZM38.8604 32.1197C38.8604 31.829 38.7549 31.6879 38.5822 31.6879C38.4095 31.6879 38.304 31.829 38.304 32.1197C38.304 32.4078 38.4095 32.5519 38.5822 32.5519C38.7549 32.5519 38.8604 32.4078 38.8604 32.1197Z" fill="#400040"/>
<path d="M41.2998 32.0871C41.2998 32.6033 40.9865 32.8831 40.6166 32.8831C40.4976 32.8831 40.3574 32.8558 40.2843 32.8123L40.1896 32.6573V32.8449H39.7036V30.848H40.1896V31.6061L40.2977 31.4459C40.379 31.3863 40.5192 31.3563 40.6651 31.3563C41.0566 31.3563 41.2998 31.6579 41.2998 32.0871ZM40.8027 32.1115C40.8027 31.8398 40.6677 31.6879 40.4976 31.6879C40.3193 31.6879 40.1896 31.7967 40.1896 32.1009V32.1632C40.1896 32.454 40.338 32.5519 40.4842 32.5519C40.6732 32.5515 40.8027 32.4078 40.8027 32.1115Z" fill="#400040"/>
<path opacity="0.5" d="M22.9552 37.7436C23.3209 37.2307 23.2036 36.5141 22.6937 36.1458C22.1839 35.778 21.4711 35.8957 21.1054 36.4089C20.7754 36.8717 20.8397 37.5 21.23 37.8886L20.9023 38.3478C20.8351 38.3574 20.7718 38.3927 20.7292 38.4527L20.0735 39.3723C19.991 39.4884 20.0172 39.6496 20.1325 39.733C20.2479 39.816 20.4081 39.7897 20.491 39.6736L21.1467 38.7539C21.1893 38.6943 21.2024 38.6224 21.19 38.5555L21.517 38.097C22.0089 38.3475 22.624 38.2081 22.9552 37.7436ZM21.2591 36.5197C21.5642 36.0918 22.1586 35.9936 22.5836 36.3005C23.009 36.6073 23.1066 37.205 22.8016 37.6328C22.4965 38.0607 21.9024 38.1593 21.477 37.8524C21.0517 37.5452 20.954 36.9475 21.2591 36.5197Z" fill="#400040"/>
<path d="M27.1412 38.5308L26.2633 36.8846C26.2685 37.1045 26.2712 37.3735 26.2712 37.5937V38.5308H26.0388V36.6562H26.3953L27.2732 38.3027C27.268 38.0829 27.265 37.8136 27.265 37.5937V36.6562H27.4921L27.4974 38.5308H27.1412Z" fill="#400040"/>
<path d="M29.2133 37.8814H28.1761C28.1978 38.2618 28.376 38.3894 28.5867 38.3894C28.7732 38.3894 28.9243 38.2723 28.9567 38.066H29.1998C29.1432 38.4137 28.8705 38.5687 28.5759 38.5687C28.203 38.5687 27.9248 38.3241 27.9248 37.8161C27.9248 37.3487 28.2138 37.0527 28.6057 37.0527C29 37.0527 29.2189 37.3487 29.2189 37.77C29.2185 37.7917 29.2185 37.8296 29.2133 37.8814ZM28.1788 37.7021H28.9836C28.9619 37.4031 28.8351 37.232 28.6002 37.232C28.3734 37.2323 28.206 37.3952 28.1788 37.7021Z" fill="#400040"/>
<path d="M30.8312 37.8814H29.7941C29.8157 38.2618 29.994 38.3894 30.2047 38.3894C30.3911 38.3894 30.5422 38.2723 30.5746 38.066H30.8178C30.7611 38.4137 30.4884 38.5687 30.1938 38.5687C29.8209 38.5687 29.5427 38.3241 29.5427 37.8161C29.5427 37.3487 29.8317 37.0527 30.2237 37.0527C30.6179 37.0527 30.8368 37.3487 30.8368 37.77C30.8368 37.7917 30.8368 37.8296 30.8312 37.8814ZM29.797 37.7021H30.6018C30.5802 37.4031 30.4534 37.232 30.2184 37.232C29.9913 37.2323 29.8239 37.3952 29.797 37.7021Z" fill="#400040"/>
<path d="M32.5306 38.5308H32.2982V38.3001L32.1901 38.455C32.1088 38.5229 31.9577 38.569 31.8119 38.569C31.3931 38.569 31.1611 38.2539 31.1611 37.833C31.1611 37.3006 31.4905 37.053 31.8604 37.053C31.9794 37.053 32.1304 37.0883 32.2035 37.1483L32.2982 37.2897V36.5342H32.5306V38.5308ZM32.2985 37.8244V37.7456C32.2985 37.3731 32.0662 37.232 31.8611 37.232C31.6101 37.232 31.4154 37.4275 31.4154 37.8053C31.4154 38.1313 31.5612 38.3894 31.8476 38.3894C32.0849 38.3894 32.2985 38.2374 32.2985 37.8244Z" fill="#400040"/>
<path d="M34.5921 38.3244L34.5138 38.4794C34.4165 38.5473 34.2923 38.569 34.1547 38.569C33.8955 38.569 33.6926 38.425 33.6926 38.159C33.6926 37.8329 33.9358 37.6645 34.4974 37.6645H34.5895V37.6266C34.5895 37.564 34.5895 37.5069 34.5839 37.4525C34.5735 37.3194 34.4974 37.2327 34.3057 37.2327C34.1114 37.2327 34.0141 37.3385 33.9977 37.5369H33.7546C33.7762 37.2297 33.9895 37.0533 34.3054 37.0533C34.6455 37.0533 34.7891 37.1974 34.8133 37.4337C34.8186 37.4908 34.8212 37.5616 34.8212 37.624V38.1646C34.8212 38.2733 34.8268 38.3709 34.8484 38.5314H34.6161L34.5921 38.3244ZM34.5895 37.9849V37.8382C34.195 37.8082 33.9469 37.8926 33.9469 38.1398C33.9469 38.3136 34.0577 38.3897 34.233 38.3897C34.4489 38.3894 34.5895 38.2456 34.5895 37.9849Z" fill="#400040"/>
<path d="M37.4665 37.7186C37.4665 37.8056 37.4665 37.8653 37.4583 38.0038C37.4393 38.3327 37.226 38.5688 36.7423 38.5688C36.2373 38.5688 36.0292 38.3027 36.0158 37.895L36.0132 37.8136H36.4995L36.5047 37.895C36.5211 38.1396 36.6181 38.2104 36.7561 38.2104C36.8911 38.2104 36.9612 38.1234 36.9746 37.9741C36.9799 37.9115 36.9799 37.8518 36.9799 37.7948V36.6562H37.4662V37.7186H37.4665Z" fill="#400040"/>
<path d="M39.3575 37.8053C39.3575 38.27 39.0551 38.5687 38.5822 38.5687C38.1097 38.5687 37.8069 38.27 37.8069 37.8053C37.8069 37.3378 38.1093 37.0418 38.5822 37.0418C39.0551 37.0418 39.3575 37.3382 39.3575 37.8053ZM38.8604 37.8053C38.8604 37.5148 38.7549 37.3731 38.5822 37.3731C38.4095 37.3731 38.304 37.5145 38.304 37.8053C38.304 38.0934 38.4095 38.2374 38.5822 38.2374C38.7549 38.2374 38.8604 38.0934 38.8604 37.8053Z" fill="#400040"/>
<path d="M41.2998 37.7727C41.2998 38.2889 40.9865 38.5687 40.6166 38.5687C40.4976 38.5687 40.3574 38.5417 40.2843 38.4982L40.1896 38.3433V38.5308H39.7036V36.5339H40.1896V37.292L40.2977 37.1318C40.379 37.0722 40.5192 37.0422 40.6651 37.0422C41.0566 37.0418 41.2998 37.3435 41.2998 37.7727ZM40.8027 37.7974C40.8027 37.5254 40.6677 37.3735 40.4976 37.3735C40.3193 37.3735 40.1896 37.4822 40.1896 37.7865V37.8491C40.1896 38.1399 40.338 38.2378 40.4842 38.2378C40.6732 38.2374 40.8027 38.0934 40.8027 37.7974Z" fill="#400040"/>
<path d="M42.8697 38.5308L42.1973 36.6562H42.7265L43.1721 38.1534L43.6204 36.6562H44.1362L43.4638 38.5308H42.8697Z" fill="#400040"/>
<path d="M45.1202 38.3188L45.0605 38.4711C44.9579 38.5364 44.8364 38.5687 44.704 38.5687C44.4664 38.5687 44.2419 38.4194 44.2419 38.1395C44.2419 37.8296 44.5339 37.6394 45.0225 37.6394H45.1143V37.6177C45.1143 37.5877 45.1143 37.558 45.109 37.5115C45.1008 37.438 45.0415 37.3731 44.9363 37.3731C44.8229 37.3731 44.7581 37.4466 44.7499 37.5715L44.2908 37.5742C44.2934 37.2346 44.5932 37.0418 44.9579 37.0418C45.4144 37.0418 45.5711 37.2455 45.5927 37.5092C45.5979 37.5827 45.6005 37.6668 45.6005 37.7565V38.1639C45.6005 38.2727 45.6061 38.3702 45.6277 38.5308H45.1523L45.1202 38.3188ZM45.1146 38.0119V37.9167C44.8957 37.9005 44.739 37.9575 44.739 38.1016C44.739 38.1886 44.8066 38.2374 44.9039 38.2374C45.0012 38.2374 45.1146 38.1639 45.1146 38.0119Z" fill="#400040"/>
<path d="M47.4026 37.6342H46.9327C46.9111 37.444 46.8164 37.3734 46.6951 37.3734C46.5329 37.3734 46.4441 37.5119 46.4441 37.7921C46.4441 38.1019 46.5359 38.2378 46.7007 38.2378C46.8115 38.2378 46.9032 38.156 46.9301 37.9988H47.4082C47.3541 38.3736 47.0654 38.5694 46.6735 38.5694C46.2603 38.5694 45.947 38.3004 45.947 37.8224C45.947 37.3223 46.2819 37.0425 46.706 37.0425C47.13 37.0418 47.3892 37.3082 47.4026 37.6342Z" fill="#400040"/>
<path d="M48.562 38.3188L48.5023 38.4711C48.3998 38.5364 48.2782 38.5687 48.1458 38.5687C47.9082 38.5687 47.6841 38.4194 47.6841 38.1395C47.6841 37.8296 47.9757 37.6394 48.4646 37.6394H48.5564V37.6177C48.5564 37.5877 48.5564 37.558 48.5512 37.5115C48.543 37.438 48.4836 37.3731 48.3785 37.3731C48.2651 37.3731 48.2002 37.4466 48.192 37.5715L47.7329 37.5742C47.7355 37.2346 48.0354 37.0418 48.4001 37.0418C48.8566 37.0418 49.0132 37.2455 49.0345 37.5092C49.0401 37.5827 49.0427 37.6668 49.0427 37.7565V38.1639C49.0427 38.2727 49.0483 38.3702 49.0699 38.5308H48.5944L48.562 38.3188ZM48.5564 38.0119V37.9167C48.3378 37.9005 48.1812 37.9575 48.1812 38.1016C48.1812 38.1886 48.2487 38.2374 48.346 38.2374C48.443 38.2374 48.5564 38.1639 48.5564 38.0119Z" fill="#400040"/>
<path d="M50.9335 37.7103V38.5308H50.4472V37.7918C50.4472 37.7456 50.4472 37.6668 50.442 37.5933C50.4312 37.4549 50.3555 37.3731 50.2097 37.3731C50.0612 37.3731 49.9557 37.5172 49.9557 37.8458V38.5305H49.4697V37.0797H49.9557V37.3052L50.0855 37.1259C50.1746 37.0715 50.2772 37.0415 50.4095 37.0415C50.7068 37.0415 50.8824 37.1829 50.9201 37.4354C50.9309 37.5093 50.9335 37.5936 50.9335 37.7103Z" fill="#400040"/>
<path d="M52.7193 37.6342H52.2494C52.2277 37.444 52.133 37.3734 52.0118 37.3734C51.8496 37.3734 51.7608 37.5119 51.7608 37.7921C51.7608 38.1019 51.8525 38.2378 52.0174 38.2378C52.1281 38.2378 52.2199 38.156 52.2467 37.9988H52.7248C52.6708 38.3736 52.3821 38.5694 51.9902 38.5694C51.5769 38.5694 51.2637 38.3004 51.2637 37.8224C51.2637 37.3223 51.5986 37.0425 52.0226 37.0425C52.4463 37.0418 52.7058 37.3082 52.7193 37.6342Z" fill="#400040"/>
<path d="M53.5596 36.7293C53.5596 36.876 53.4597 36.9683 53.3086 36.9683C53.1576 36.9683 53.0576 36.876 53.0576 36.7293C53.0576 36.5827 53.1576 36.4904 53.3086 36.4904C53.4597 36.4904 53.5596 36.583 53.5596 36.7293ZM53.0655 38.5308V37.0801H53.5514V38.5308H53.0655Z" fill="#400040"/>
<path d="M55.3832 37.9279H54.3782C54.4028 38.1695 54.508 38.2374 54.6456 38.2374C54.7832 38.2374 54.8671 38.1669 54.8861 38.0555H55.3642C55.2803 38.3845 55.0103 38.5691 54.6403 38.5691C54.2271 38.5691 53.8975 38.3218 53.8975 37.8112C53.8975 37.3873 54.1865 37.0422 54.6672 37.0422C55.1479 37.0422 55.3911 37.4117 55.3911 37.7865C55.3911 37.8297 55.3885 37.8788 55.3832 37.9279ZM54.3946 37.6289H54.8835C54.8566 37.4578 54.7727 37.3735 54.6433 37.3735C54.5161 37.3735 54.427 37.4496 54.3946 37.6289Z" fill="#400040"/>
<path d="M56.9364 37.5036H56.4583C56.4367 37.4031 56.3882 37.3461 56.3017 37.3461C56.2342 37.3461 56.1853 37.3896 56.1853 37.4522C56.1853 37.5336 56.2502 37.588 56.5255 37.6559C56.7876 37.7212 56.9738 37.8352 56.9738 38.1151C56.9738 38.4246 56.6847 38.5687 56.3364 38.5687C55.9448 38.5687 55.6774 38.4059 55.6394 38.0798H56.1175C56.1444 38.1913 56.2309 38.2644 56.3335 38.2644C56.42 38.2644 56.4875 38.2292 56.4875 38.153C56.4875 38.0607 56.3957 38.009 56.1391 37.9493C55.8635 37.884 55.6987 37.7565 55.6987 37.5092C55.6987 37.2211 55.9471 37.0418 56.3305 37.0418C56.6906 37.0418 56.8987 37.2403 56.9364 37.5036Z" fill="#400040"/>
<path opacity="0.5" d="M22.9552 43.4295C23.3209 42.9166 23.2036 42.2 22.6937 41.8318C22.1839 41.4639 21.4711 41.5816 21.1054 42.0948C20.7754 42.5576 20.8397 43.1859 21.23 43.5746L20.9023 44.0337C20.8351 44.0433 20.7718 44.0786 20.7292 44.1386L20.0735 45.0583C19.991 45.1743 20.0172 45.3355 20.1325 45.4189C20.2479 45.502 20.4081 45.4756 20.491 45.3596L21.1467 44.4399C21.1893 44.3802 21.2024 44.3083 21.19 44.2414L21.517 43.7829C22.0089 44.0331 22.624 43.894 22.9552 43.4295ZM21.2591 42.2056C21.5642 41.7777 22.1586 41.6795 22.5836 41.9864C23.009 42.2933 23.1066 42.8909 22.8016 43.3188C22.4965 43.7466 21.9024 43.8452 21.477 43.5383C21.0517 43.2311 20.954 42.6331 21.2591 42.2056Z" fill="#400040"/>
<path d="M27.1412 44.217L26.2633 42.5705C26.2685 42.7907 26.2712 43.0596 26.2712 43.2798V44.217H26.0388V42.3423H26.3953L27.2732 43.9886C27.268 43.7687 27.265 43.4994 27.265 43.2795V42.3423H27.4921L27.4974 44.217H27.1412Z" fill="#400040"/>
<path d="M29.2133 43.5677H28.1761C28.1978 43.9481 28.376 44.0756 28.5867 44.0756C28.7732 44.0756 28.9243 43.9586 28.9567 43.7523H29.1998C29.1432 44.1 28.8705 44.255 28.5759 44.255C28.203 44.255 27.9248 44.0104 27.9248 43.5024C27.9248 43.035 28.2138 42.739 28.6057 42.739C29 42.739 29.2189 43.035 29.2189 43.4562C29.2185 43.478 29.2185 43.5159 29.2133 43.5677ZM28.1788 43.3883H28.9836C28.9619 43.0894 28.8351 42.9183 28.6002 42.9183C28.3734 42.9183 28.206 43.0814 28.1788 43.3883Z" fill="#400040"/>
<path d="M30.8312 43.5677H29.7941C29.8157 43.9481 29.994 44.0756 30.2047 44.0756C30.3911 44.0756 30.5422 43.9586 30.5746 43.7523H30.8178C30.7611 44.1 30.4884 44.255 30.1938 44.255C29.8209 44.255 29.5427 44.0104 29.5427 43.5024C29.5427 43.035 29.8317 42.739 30.2237 42.739C30.6179 42.739 30.8368 43.035 30.8368 43.4562C30.8368 43.478 30.8368 43.5159 30.8312 43.5677ZM29.797 43.3883H30.6018C30.5802 43.0894 30.4534 42.9183 30.2184 42.9183C29.9913 42.9183 29.8239 43.0814 29.797 43.3883Z" fill="#400040"/>
<path d="M32.5308 44.217H32.2985V43.9863L32.1903 44.1412C32.1091 44.2091 31.958 44.2553 31.8122 44.2553C31.3934 44.2553 31.1614 43.9398 31.1614 43.5189C31.1614 42.9865 31.4907 42.7389 31.8607 42.7389C31.9796 42.7389 32.1307 42.7742 32.2038 42.8342L32.2985 42.9756V42.2201H32.5308V44.217ZM32.2988 43.5106V43.4318C32.2988 43.0597 32.0665 42.9183 31.8613 42.9183C31.6103 42.9183 31.4157 43.1137 31.4157 43.4915C31.4157 43.8175 31.5615 44.0756 31.8479 44.0756C32.0851 44.0756 32.2988 43.9233 32.2988 43.5106Z" fill="#400040"/>
<path d="M34.5921 44.0104L34.5138 44.1653C34.4165 44.2332 34.2923 44.255 34.1547 44.255C33.8955 44.255 33.6926 44.1109 33.6926 43.8446C33.6926 43.5186 33.9358 43.3501 34.4974 43.3501H34.5895V43.3122C34.5895 43.2496 34.5895 43.1926 34.5839 43.1382C34.5735 43.005 34.4974 42.918 34.3057 42.918C34.1114 42.918 34.0141 43.0241 33.9977 43.2222H33.7546C33.7762 42.9153 33.9895 42.7386 34.3054 42.7386C34.6455 42.7386 34.7891 42.8827 34.8133 43.1191C34.8186 43.1761 34.8212 43.247 34.8212 43.3093V43.8499C34.8212 43.9586 34.8268 44.0562 34.8484 44.2167H34.6161L34.5921 44.0104ZM34.5895 43.6709V43.5242C34.195 43.4945 33.9469 43.5786 33.9469 43.8258C33.9469 43.9995 34.0577 44.0757 34.233 44.0757C34.4489 44.0757 34.5895 43.9316 34.5895 43.6709Z" fill="#400040"/>
<path d="M37.2475 44.217L36.5695 42.9783C36.5859 43.1685 36.5859 43.3343 36.5859 43.443V44.2174H36.0996V42.3427H36.7045L37.412 43.6359C37.3986 43.4457 37.396 43.2528 37.396 43.1441V42.3427H37.8822V44.2174H37.2475V44.217Z" fill="#400040"/>
<path d="M39.714 43.6138H38.709C38.7336 43.8558 38.8388 43.9237 38.9764 43.9237C39.114 43.9237 39.1979 43.8528 39.2169 43.7417H39.695C39.6111 44.0704 39.3411 44.2553 38.9711 44.2553C38.5579 44.2553 38.2283 44.0081 38.2283 43.4971C38.2283 43.0732 38.5173 42.7281 38.998 42.7281C39.4787 42.7281 39.7219 43.0976 39.7219 43.4727C39.7222 43.5159 39.7196 43.565 39.714 43.6138ZM38.7257 43.3148H39.2146C39.1877 43.1438 39.1039 43.0597 38.9744 43.0597C38.847 43.0597 38.7581 43.1355 38.7257 43.3148Z" fill="#400040"/>
<path d="M41.8319 44.217H41.2889L41.1051 43.239L40.9216 44.217H40.3786L39.9221 42.7659H40.4569L40.646 43.804L40.8187 42.7771H41.3967L41.5802 43.8066L41.7641 42.7659H42.288L41.8319 44.217Z" fill="#400040"/>
<path d="M44.5959 43.4044C44.5959 43.4915 44.5959 43.5511 44.5877 43.6899C44.5687 44.0186 44.3554 44.2549 43.8717 44.2549C43.3667 44.2549 43.1586 43.9886 43.1452 43.5811L43.1426 43.4994H43.6289L43.6341 43.5811C43.6505 43.8257 43.7475 43.8963 43.8855 43.8963C44.0205 43.8963 44.0906 43.8092 44.104 43.6599C44.1093 43.5973 44.1093 43.5376 44.1093 43.4806V42.3423H44.5956V43.4044H44.5959Z" fill="#400040"/>
<path d="M46.4872 43.4915C46.4872 43.9563 46.1847 44.255 45.7118 44.255C45.2393 44.255 44.9365 43.956 44.9365 43.4915C44.9365 43.0241 45.239 42.7281 45.7118 42.7281C46.1847 42.7281 46.4872 43.0241 46.4872 43.4915ZM45.9904 43.4915C45.9904 43.2008 45.8849 43.0597 45.7122 43.0597C45.5395 43.0597 45.434 43.2008 45.434 43.4915C45.434 43.7796 45.5395 43.9237 45.7122 43.9237C45.8849 43.9234 45.9904 43.7796 45.9904 43.4915Z" fill="#400040"/>
<path d="M48.4292 43.4589C48.4292 43.9751 48.1159 44.255 47.746 44.255C47.627 44.255 47.4867 44.2276 47.4137 44.1841L47.319 44.0292V44.2167H46.833V42.2198H47.319V42.978L47.4271 42.8178C47.5081 42.7581 47.6486 42.7281 47.7945 42.7281C48.186 42.7281 48.4292 43.0297 48.4292 43.4589ZM47.9321 43.4833C47.9321 43.2117 47.7971 43.0597 47.627 43.0597C47.4487 43.0597 47.319 43.1685 47.319 43.4727V43.535C47.319 43.8258 47.4674 43.9237 47.6136 43.9237C47.8026 43.9234 47.9321 43.7796 47.9321 43.4833Z" fill="#400040"/>
<path opacity="0.5" d="M22.9552 49.1152C23.3209 48.6022 23.2036 47.8856 22.6937 47.5174C22.1839 47.1495 21.4711 47.2675 21.1054 47.7805C20.7754 48.2436 20.8397 48.8716 21.23 49.2602L20.9023 49.7194C20.8351 49.7289 20.7718 49.7642 20.7292 49.8242L20.0735 50.7439C19.991 50.8599 20.0172 51.0211 20.1325 51.1042C20.2479 51.1873 20.4081 51.1609 20.491 51.0449L21.1467 50.1252C21.1893 50.0655 21.2024 49.9936 21.19 49.9267L21.517 49.4682C22.0089 49.7191 22.624 49.5799 22.9552 49.1152ZM21.2591 47.8912C21.5642 47.4633 22.1586 47.3651 22.5836 47.672C23.009 47.9789 23.1066 48.5765 22.8016 49.0044C22.4965 49.4323 21.9024 49.5308 21.477 49.2239C21.0517 48.917 20.954 48.3191 21.2591 47.8912Z" fill="#400040"/>
<path d="M27.1412 49.9027L26.2633 48.2561C26.2685 48.4763 26.2712 48.7453 26.2712 48.9655V49.9027H26.0388V48.028H26.3953L27.2732 49.6742C27.268 49.4544 27.265 49.185 27.265 48.9652V48.028H27.4921L27.4974 49.9027H27.1412Z" fill="#400040"/>
<path d="M29.2133 49.2533H28.1761C28.1978 49.6337 28.376 49.7612 28.5867 49.7612C28.7732 49.7612 28.9243 49.6442 28.9567 49.4379H29.1998C29.1432 49.7856 28.8705 49.9406 28.5759 49.9406C28.203 49.9406 27.9248 49.696 27.9248 49.188C27.9248 48.7206 28.2138 48.4246 28.6057 48.4246C29 48.4246 29.2189 48.7206 29.2189 49.1419C29.2185 49.1636 29.2185 49.2015 29.2133 49.2533ZM28.1788 49.074H28.9836C28.9619 48.775 28.8351 48.6039 28.6002 48.6039C28.3734 48.6039 28.206 48.7671 28.1788 49.074Z" fill="#400040"/>
<path d="M30.8312 49.2533H29.7941C29.8157 49.6337 29.994 49.7612 30.2047 49.7612C30.3911 49.7612 30.5422 49.6442 30.5746 49.4379H30.8178C30.7611 49.7856 30.4884 49.9406 30.1938 49.9406C29.8209 49.9406 29.5427 49.696 29.5427 49.188C29.5427 48.7206 29.8317 48.4246 30.2237 48.4246C30.6179 48.4246 30.8368 48.7206 30.8368 49.1419C30.8368 49.1636 30.8368 49.2015 30.8312 49.2533ZM29.797 49.074H30.6018C30.5802 48.775 30.4534 48.6039 30.2184 48.6039C29.9913 48.6039 29.8239 48.7671 29.797 49.074Z" fill="#400040"/>
<path d="M32.5308 49.9027H32.2985V49.6719L32.1903 49.8268C32.1091 49.8947 31.958 49.9409 31.8122 49.9409C31.3934 49.9409 31.1614 49.6254 31.1614 49.2045C31.1614 48.6721 31.4907 48.4246 31.8607 48.4246C31.9796 48.4246 32.1307 48.4598 32.2038 48.5198L32.2985 48.6612V47.9057H32.5308V49.9027ZM32.2988 49.1962V49.1175C32.2988 48.7453 32.0665 48.6039 31.8613 48.6039C31.6103 48.6039 31.4157 48.7994 31.4157 49.1771C31.4157 49.5031 31.5615 49.7612 31.8479 49.7612C32.0851 49.7612 32.2988 49.6089 32.2988 49.1962Z" fill="#400040"/>
<path d="M34.5921 49.6959L34.5138 49.8509C34.4165 49.9188 34.2923 49.9405 34.1547 49.9405C33.8955 49.9405 33.6926 49.7965 33.6926 49.5301C33.6926 49.2041 33.9358 49.0357 34.4974 49.0357H34.5895V48.9978C34.5895 48.9351 34.5895 48.8781 34.5839 48.8237C34.5735 48.6905 34.4974 48.6035 34.3057 48.6035C34.1114 48.6035 34.0141 48.7097 33.9977 48.9078H33.7546C33.7762 48.6009 33.9895 48.4242 34.3054 48.4242C34.6455 48.4242 34.7891 48.5682 34.8133 48.8046C34.8186 48.8616 34.8212 48.9325 34.8212 48.9948V49.5354C34.8212 49.6442 34.8268 49.7418 34.8484 49.9023H34.6161L34.5921 49.6959ZM34.5895 49.3564V49.2097C34.195 49.1801 33.9469 49.2641 33.9469 49.5113C33.9469 49.6851 34.0577 49.7612 34.233 49.7612C34.4489 49.7612 34.5895 49.6172 34.5895 49.3564Z" fill="#400040"/>
<path d="M38.1873 49.9027H37.5391L37.3042 48.4437L37.0532 49.9027H36.4024L35.9541 48.028H36.4699L36.7183 49.5223L36.964 48.0551H37.661L37.896 49.5276L38.166 48.0277H38.6631L38.1873 49.9027Z" fill="#400040"/>
<path d="M40.3193 49.1771C40.3193 49.6419 40.0169 49.9405 39.5444 49.9405C39.0715 49.9405 38.769 49.6415 38.769 49.1771C38.769 48.7097 39.0715 48.4136 39.5444 48.4136C40.0169 48.4136 40.3193 48.7097 40.3193 49.1771ZM39.8222 49.1771C39.8222 48.8863 39.7171 48.7452 39.544 48.7452C39.3713 48.7452 39.2658 48.8863 39.2658 49.1771C39.2658 49.4652 39.3713 49.6092 39.544 49.6092C39.7171 49.6089 39.8222 49.4652 39.8222 49.1771Z" fill="#400040"/>
<path d="M41.6484 48.4219V48.8211C41.2837 48.7967 41.1513 48.9325 41.1513 49.3699V49.9023H40.665V48.4512H41.1513V48.7449L41.2539 48.5412C41.3322 48.4542 41.4456 48.4133 41.5374 48.4133C41.5839 48.4137 41.6134 48.4163 41.6484 48.4219Z" fill="#400040"/>
<path d="M42.4214 49.4787V49.9027H41.9351V47.9057H42.4214V49.0604L42.9289 48.4519H43.4988L42.8886 49.1178L43.507 49.903H42.9103L42.5239 49.365L42.4214 49.4787Z" fill="#400040"/>
<path d="M73.9491 33.1841C73.9298 33.5744 73.9183 33.9567 73.913 34.3322C74.2096 34.6483 74.5052 34.9658 74.8034 35.2796C75.9651 36.5022 77.2244 37.7205 78.8065 38.368C80.5455 39.0793 82.3563 38.422 84.2022 38.4411C93.2186 38.5351 94.5055 31.0427 94.05 28.1027C93.5119 24.6501 90.7731 22.2866 90.7436 20.4445C90.7144 18.6025 89.131 14.3014 85.4379 12.4017C82.356 10.8112 80.9528 12.2092 77.7038 16.0778C76.5264 17.4814 75.638 18.1404 74.8771 18.6032C73.5378 19.4213 72.5823 19.6419 71.1097 22.2704C68.8021 26.3912 74.2181 27.6478 73.9491 33.1841Z" fill="#432D29"/>
<path d="M79.9166 29.0381C74.1158 31.1261 58.7222 53.1591 64.6796 58.0645C68.4179 61.1426 74.2937 52.3825 74.2937 52.3825C74.2937 52.3825 85.5371 27.0152 79.9166 29.0381Z" fill="#D0B79E"/>
<path d="M96.4095 52.0756V60.8021C96.4095 64.4265 93.4787 67.3748 89.8757 67.3748H71.0266C71.5952 56.7308 73.9336 28.4442 82.7173 28.4218C86.8446 28.4115 92.0408 38.5812 96.4095 52.0756Z" fill="#7D6E5F"/>
<path opacity="0.5" d="M94.0286 53.3167C93.0537 53.7696 92.0431 54.1378 91.0194 54.4609C90.0966 54.752 89.1637 54.9985 88.2294 55.2484C87.3673 55.4791 86.5084 55.7379 85.6829 56.0811C85.2858 56.2462 84.8942 56.4311 84.5278 56.6583C84.2391 56.8369 83.958 57.0462 83.7417 57.3116C83.8816 57.3637 84.0271 57.3996 84.1736 57.427C84.5999 57.5058 85.0377 57.5206 85.4703 57.5189C85.9743 57.5166 86.4776 57.4856 86.9796 57.4435C87.8735 57.368 88.7731 57.2763 89.6608 57.1445C90.1926 57.0654 90.7336 56.9701 91.273 57.0159C91.7996 57.0607 92.282 57.2684 92.6598 57.6432C93.3086 58.2873 93.5734 59.3451 93.3538 60.2286C93.25 60.6459 93.0121 61.0451 92.6595 61.2969C92.301 61.5531 91.8642 61.6589 91.4847 61.8764C91.2904 61.9878 91.1115 62.1355 91.0056 62.3373C90.907 62.5252 90.8975 62.749 90.9053 62.957C90.924 63.4501 91.0544 63.9304 91.1164 64.4183C91.217 65.2087 90.9958 66.0315 90.5711 66.6977C90.4154 66.9417 90.2339 67.1661 90.0347 67.3738C93.5642 67.2884 96.4092 64.3741 96.4092 60.8031V52.0766C96.4017 52.0529 96.3938 52.0295 96.3863 52.0057C95.6333 52.4985 94.8452 52.9373 94.0286 53.3167Z" fill="#400040"/>
<path d="M53.6286 30.4923C53.6624 30.574 53.7004 30.6449 53.7351 30.6976C53.7426 30.7085 53.7485 30.7181 53.7551 30.7263C53.9166 30.9448 54.0883 31.1542 54.2542 31.3424C54.6982 31.8504 55.0947 32.2126 55.0947 32.2126C55.0947 32.2126 56.1544 36.0025 56.4644 36.4116C56.9324 36.704 58.8431 35.662 58.8431 35.662C59.0227 35.2143 57.499 31.5623 57.3512 30.7988C57.2024 30.035 56.7194 29.2518 56.7194 29.2518C56.7194 29.2518 55.6665 25.3815 54.7971 25.6232C54.4105 25.7303 55.0822 27.6471 55.2553 28.4056C55.2562 28.4119 55.2585 28.4182 55.2595 28.4244C55.2582 28.4231 54.9361 28.2768 54.7077 28.5062C54.5959 28.6179 54.5828 28.7251 54.5828 28.7251C54.5828 28.7251 54.3734 28.7043 54.2447 28.7831C54.1152 28.8622 53.9628 29.0527 53.9841 29.1226C53.9815 29.1233 53.7974 29.0952 53.6764 29.2426C53.5552 29.3893 53.5804 29.6748 53.5804 29.6748L53.5821 29.6741C53.5699 29.7071 53.5588 29.7397 53.5506 29.772C53.488 30.0235 53.547 30.2932 53.6286 30.4923Z" fill="#EAC8AC"/>
<path opacity="0.2" d="M53.6286 30.4923C53.6466 30.4573 53.6706 30.4263 53.704 30.4026C53.8514 30.2971 53.9937 30.4118 54.0844 30.5176C54.1375 30.5796 54.1811 30.6531 54.2417 30.7088C54.2935 30.7576 54.3705 30.7886 54.4393 30.8087C55.0269 30.9867 55.9598 30.4623 55.7973 29.799C55.7307 29.5274 55.637 29.2515 55.5335 28.9941C55.4466 28.7791 55.3877 28.6156 55.2602 28.4248C55.2589 28.4235 54.9368 28.2771 54.7083 28.5065C54.5966 28.6183 54.5835 28.7254 54.5835 28.7254C54.5835 28.7254 54.3741 28.7046 54.2453 28.7834C54.1159 28.8625 53.9635 29.0531 53.9848 29.1229C53.9822 29.1236 53.798 29.0956 53.6771 29.2429C53.5559 29.3896 53.5811 29.6751 53.5811 29.6751L53.5827 29.6744C53.5706 29.7074 53.5595 29.74 53.5513 29.7723C53.488 30.0235 53.547 30.2932 53.6286 30.4923Z" fill="white"/>
<path opacity="0.1" d="M53.9976 30.3999C54.3187 31.0289 54.7185 31.0806 54.8876 31.0707C55.289 30.8545 55.6419 30.5805 55.7831 30.3524C55.8821 30.1932 55.851 29.8965 55.7618 29.5742C55.7697 29.591 55.7782 29.6078 55.7858 29.6246C55.9152 29.9078 56.0476 30.2397 55.9866 30.5575C55.9267 30.871 55.6658 31.0743 55.3752 31.1624C55.1415 31.2332 54.8922 31.2448 54.647 31.2273L54.6467 31.2276C54.6461 31.2276 54.6457 31.2273 54.6451 31.2273C54.6221 31.2256 54.5992 31.224 54.5763 31.222C54.5818 31.2197 54.5871 31.2171 54.5926 31.2148C54.1893 31.1014 53.9976 30.3999 53.9976 30.3999Z" fill="#231F20"/>
<path d="M54.8769 30.9917C54.7383 30.8153 54.643 30.6663 54.5342 30.4725C54.4251 30.2741 54.331 30.0637 54.2881 29.8412C54.3464 30.0601 54.4532 30.2599 54.5742 30.4481C54.6964 30.635 54.973 30.965 54.973 30.965C55.0464 30.9445 55.2666 30.7909 55.358 30.7197C55.3626 30.7164 55.3668 30.7125 55.3714 30.7092C55.2459 30.5183 55.1286 30.3245 55.0198 30.1247C54.9107 29.9223 54.8075 29.7147 54.7413 29.4941C54.8222 29.7094 54.9385 29.9075 55.0601 30.1007C55.1804 30.2896 55.3098 30.4735 55.4445 30.6512C55.5058 30.6014 55.5658 30.551 55.6182 30.4939C55.7633 30.3367 55.8174 30.2243 55.7869 29.8798C55.7768 29.7641 55.7509 29.6494 55.724 29.5353C55.6998 29.4203 55.6673 29.3072 55.6355 29.1932C55.7362 29.4074 55.8132 29.6332 55.8581 29.8689C55.8797 29.9869 55.8921 30.1089 55.8721 30.2348C55.8649 30.2661 55.861 30.2981 55.8459 30.3281L55.8266 30.3736L55.8017 30.4142C55.7856 30.4418 55.767 30.4666 55.747 30.49C55.728 30.5147 55.708 30.5378 55.6863 30.5589C55.5156 30.7326 55.3164 30.8654 55.1109 30.9821C54.9048 31.0982 54.6866 31.1427 54.4185 30.9225C54.5856 31.0428 54.8337 31.0181 54.8769 30.9917Z" fill="#E8AD80"/>
<path opacity="0.1" d="M55.1062 32.1698C55.4457 32.3201 56.0182 32.1365 56.5241 31.9153C56.9085 31.7472 57.1684 31.4232 57.3355 31.1259C57.3247 31.2023 57.3116 31.2788 57.2926 31.355C57.2427 31.5537 57.071 32.4263 56.5539 32.5987C55.7459 32.8683 55.3009 32.2381 55.1193 32.2015C55.1147 32.1912 55.1101 32.1807 55.1062 32.1698Z" fill="#231F20"/>
<path opacity="0.1" d="M55.7769 29.3389C55.7769 29.3389 55.7533 29.5924 55.9745 29.6092C56.1956 29.626 56.4372 29.2594 56.6672 29.8155C56.8976 30.3716 57.334 30.967 57.2737 30.4791C57.2138 29.9912 57.0748 29.1302 56.7209 29.0893C56.367 29.0485 55.7769 29.3389 55.7769 29.3389Z" fill="#231F20"/>
<path d="M57.3511 30.7991C57.3511 30.7991 57.6578 29.4994 57.5723 29.1054C57.4867 28.7118 56.892 28.3558 56.5928 28.3961C56.3166 28.433 55.8224 28.9294 55.7546 29.1348C55.6867 29.3401 55.653 29.6144 56.1838 29.4357C56.7147 29.2571 56.7829 29.3939 56.7829 29.3939L57.3511 30.7991Z" fill="#DBB59A"/>
<path opacity="0.2" d="M56.1086 29.0732C56.1086 29.0732 55.8713 29.3669 55.7983 29.3603C55.7252 29.3533 55.7819 29.0804 55.8821 29.0066C55.9824 28.9327 56.1086 29.0732 56.1086 29.0732Z" fill="white"/>
<path d="M58.0019 31.7597C58.0019 31.7597 69.8689 47.315 68.987 54.8578C68.5709 58.4176 66.5746 60.5183 62.4552 56.2044C58.3358 51.8904 55.2129 33.3074 55.2129 33.3074L58.0019 31.7597Z" fill="#AA55AA"/>
<path d="M84.7327 28.8487C84.7327 29.3837 83.7617 29.8171 82.5643 29.8171C81.3669 29.8171 80.396 29.3837 80.396 28.8487C80.396 28.3137 81.3669 27.8802 82.5643 27.8802C83.7617 27.8802 84.7327 28.314 84.7327 28.8487Z" fill="#08AFA3"/>
<path d="M87.4612 21.2353C87.1398 20.6047 86.5561 20.7853 86.2255 20.9574C86.2108 19.6072 86.0522 18.5771 86.0522 18.5771C86.0407 18.5046 86.0181 18.436 85.984 18.3711C85.3165 17.158 80.4398 17.1122 79.4498 18.23C79.3551 18.3328 79.2981 18.4512 79.2791 18.5771C79.2791 18.5771 79.1303 19.6125 79.1271 20.9676C78.8 20.7926 78.2 20.5925 77.8723 21.2353C77.4149 22.1326 78.4432 23.4679 79.3112 23.431C79.6478 25.4128 80.5348 27.2482 82.6658 27.2482C84.8381 27.2482 85.7284 25.4141 86.0567 23.4327C86.9173 23.434 87.9128 22.1207 87.4612 21.2353Z" fill="#F4CABA"/>
<path d="M80.4065 18.0009C80.4065 18.0009 83.2885 19.5001 86.2741 18.8962C89.26 18.2923 82.0007 15.6549 80.2482 16.5298C78.496 17.4046 78.7857 19.4322 78.7857 19.4322C78.7857 19.4322 80.222 19.1745 80.4065 18.0009Z" fill="#432D29"/>
<path d="M84.066 28.5408C84.066 28.5408 83.5122 29.3784 82.5541 29.3784C81.5962 29.3784 80.9153 28.5655 80.9153 28.5655C80.9153 28.5655 80.9523 27.7032 80.9821 26.979C80.9998 26.498 81.0156 26.0774 81.0156 26.0065H84.0408L84.0532 27.2486L84.066 28.5408Z" fill="#EDB29F"/>
<path d="M82.5001 23.3292C82.3818 23.0602 82.5558 22.7546 82.5636 22.7414C82.5984 22.6818 82.6747 22.6613 82.7344 22.6963C82.7943 22.7309 82.8143 22.8077 82.7799 22.868C82.7458 22.9274 82.6757 23.1073 82.7321 23.2339C82.7763 23.3252 82.8907 23.3852 83.0719 23.4116C83.14 23.4215 83.1879 23.4851 83.1777 23.5543C83.1679 23.6232 83.1043 23.6707 83.0358 23.6608C82.7668 23.6212 82.5885 23.5141 82.5063 23.3424C82.504 23.3381 82.502 23.3338 82.5001 23.3292Z" fill="#432D29"/>
<path d="M84.8436 21.7034C84.8436 21.9236 84.6932 22.1013 84.5087 22.1013C84.3242 22.1013 84.1738 21.9236 84.1738 21.7034C84.1738 21.4836 84.3242 21.3046 84.5087 21.3046C84.5605 21.3046 84.6093 21.3184 84.6532 21.3448C84.5877 21.3646 84.5389 21.4351 84.5389 21.5195C84.5389 21.6187 84.6074 21.7001 84.6913 21.7001C84.7529 21.7001 84.8066 21.656 84.8299 21.593C84.8387 21.6286 84.8436 21.6652 84.8436 21.7034Z" fill="#432D29"/>
<path d="M81.4005 21.6526C81.4005 21.8728 81.2501 22.0505 81.0656 22.0505C80.8811 22.0505 80.7307 21.8728 80.7307 21.6526C80.7307 21.4328 80.8811 21.2538 81.0656 21.2538C81.1174 21.2538 81.1662 21.2676 81.2101 21.294C81.1446 21.3138 81.0958 21.3843 81.0958 21.4687C81.0958 21.5679 81.1642 21.6494 81.2481 21.6494C81.3097 21.6494 81.3635 21.6052 81.3868 21.5422C81.3956 21.5781 81.4005 21.6144 81.4005 21.6526Z" fill="#432D29"/>
<path d="M87.1949 22.0156C87.2191 22.0156 87.2424 22.0008 87.2516 21.9767C87.4597 21.442 86.9275 21.1252 86.9219 21.1223C86.8924 21.1051 86.8557 21.1157 86.8387 21.1447C86.822 21.174 86.8318 21.2113 86.861 21.2284C86.8793 21.2393 87.3076 21.4961 87.1382 21.9319C87.1261 21.9635 87.1415 21.9991 87.1726 22.0113C87.1798 22.0143 87.1874 22.0156 87.1949 22.0156Z" fill="#432D29"/>
<path d="M78.0607 22.0209C78.0365 22.0209 78.0132 22.0061 78.004 21.982C77.796 21.4473 78.3281 21.1305 78.3337 21.1276C78.3632 21.1104 78.3999 21.121 78.4169 21.15C78.4337 21.1793 78.4238 21.2166 78.3947 21.2337C78.3763 21.2446 77.948 21.5014 78.1174 21.9372C78.1296 21.9688 78.1141 22.0044 78.083 22.0166C78.0758 22.0196 78.0683 22.0209 78.0607 22.0209Z" fill="#432D29"/>
<path d="M83.6088 19.7322C83.4938 19.8235 83.9696 20.6548 84.7846 20.7152C85.5999 20.7758 84.9773 20.6763 84.3943 20.1845C83.8113 19.6923 83.7966 19.5832 83.6088 19.7322Z" fill="#432D29"/>
<path d="M81.5717 19.7322C81.6867 19.8235 81.2109 20.6548 80.3959 20.7152C79.5807 20.7758 80.2033 20.6763 80.7862 20.1845C81.3692 19.6923 81.3839 19.5832 81.5717 19.7322Z" fill="#432D29"/>
<path d="M86.9889 43.1048L71.0873 42.7033L69.3142 64.406L86.2948 65.3402L86.9889 43.1048Z" fill="white"/>
<path d="M83.7752 41.0584L68.0417 43.412L70.0023 65.0983L86.8899 63.0832L83.7752 41.0584Z" fill="#E1E6FD"/>
<path d="M75.3516 50.074L70.7056 50.7194L70.6145 49.774L75.2461 49.1243L75.3516 50.074Z" fill="#AA55AA"/>
<path d="M78.6507 49.6155L75.7382 50.0203L75.6313 49.0703L78.5347 48.6628L78.6507 49.6155Z" fill="#AA55AA"/>
<path d="M83.3595 48.9609L78.9822 49.5694L78.8652 48.6164L83.2288 48.0043L83.3595 48.9609Z" fill="#AA55AA"/>
<path d="M74.3501 52.1149L70.8861 52.5876L70.7937 51.6309L74.2469 51.1553L74.3501 52.1149Z" fill="#AA55AA"/>
<path d="M76.8032 51.7802L74.6378 52.0756L74.5339 51.1157L76.6924 50.8187L76.8032 51.7802Z" fill="#AA55AA"/>
<path d="M80.2948 51.3043L77.0497 51.747L76.938 50.7848L80.1733 50.3394L80.2948 51.3043Z" fill="#AA55AA"/>
<path d="M79.8721 55.0074L71.2296 56.1433L71.1353 55.166L79.7502 54.0218L79.8721 55.0074Z" fill="#AA55AA"/>
<path d="M76.3126 58.7129L71.5365 59.3194L71.4402 58.3229L76.2012 57.7114L76.3126 58.7129Z" fill="#AA55AA"/>
<path d="M79.7052 58.2817L76.7101 58.6621L76.5974 57.6607L79.583 57.2773L79.7052 58.2817Z" fill="#AA55AA"/>
<path d="M84.5488 57.6666L80.0463 58.2385L79.9231 57.2338L84.4111 56.6572L84.5488 57.6666Z" fill="#AA55AA"/>
<path d="M75.2884 60.846L71.727 61.2883L71.6294 60.28L75.1796 59.834L75.2884 60.846Z" fill="#AA55AA"/>
<path d="M77.8111 60.5321L75.5841 60.809L75.4744 59.7967L77.6941 59.5178L77.8111 60.5321Z" fill="#AA55AA"/>
<path d="M81.4026 60.0858L78.0644 60.5008L77.9468 59.4862L81.2741 59.0679L81.4026 60.0858Z" fill="#AA55AA"/>
<path d="M75.9452 45.295L75.9528 45.3296L75.3253 45.4209L75.3144 45.3866C75.2328 45.1334 75.0625 45.0332 74.8091 45.0701C74.5103 45.1136 74.3127 45.3998 74.3704 45.9249C74.4379 46.54 74.7118 46.7134 74.991 46.6732C75.2355 46.6382 75.3754 46.4629 75.3973 46.186L75.4003 46.1494L76.0291 46.0587L76.0295 46.0947C76.0377 46.6926 75.6274 47.0588 75.0218 47.1455C74.3756 47.2378 73.81 46.8861 73.7209 46.0584C73.6301 45.2139 74.1161 44.7013 74.7639 44.606C75.4478 44.5061 75.8414 44.8232 75.9452 45.295Z" fill="#AA55AA"/>
<path d="M77.2167 46.7809L76.0603 44.4662L76.7432 44.3663L77.552 46.2295L77.8993 44.1969L78.5681 44.099L77.9917 46.6702L77.2167 46.7809Z" fill="#AA55AA"/>
<path d="M69.7812 60.8238L69.7808 60.8232C69.9889 60.7665 70.2756 60.6534 70.6797 60.4447C70.6797 60.4447 70.6764 60.4447 70.6705 60.4461C70.8756 60.3495 71.0834 60.2344 71.2843 60.1088C71.6319 59.8926 71.8741 59.7149 72.0386 59.5804C72.0393 59.5794 72.0399 59.5791 72.0409 59.5791C72.2827 59.38 72.3565 59.2755 72.3565 59.2755C72.3565 59.2755 76.2288 58.2856 76.6689 58.0028C77.0054 57.5489 76.0214 55.8601 76.0214 55.8601C75.5846 55.6373 72.2903 57.0036 71.5264 56.7999C70.6358 56.5626 69.1048 55.0495 68.919 55.7303C68.7322 56.4116 70.0626 57.0561 70.0626 57.0561C70.0626 57.0561 70.0443 57.057 70.0102 57.061C69.8041 57.0831 69.0271 57.1866 68.3809 57.5162L68.3803 57.5166C68.2014 57.6092 68.0316 57.7186 67.8874 57.8492C67.8622 57.8726 67.8373 57.8956 67.813 57.9197C67.7704 57.9626 67.7305 58.0087 67.6944 58.0568C67.6885 58.0644 67.682 58.0727 67.6764 58.0809C67.6584 58.105 67.6413 58.1297 67.6253 58.1551L67.6233 58.158C67.6236 58.1587 67.6236 58.1587 67.6236 58.1597C67.6007 58.2381 67.5977 58.3383 67.6381 58.4659C67.7681 58.877 68.1047 58.8262 68.1047 58.8262C68.1047 58.8262 67.8563 59.0517 68.012 59.3671C68.1768 59.7027 68.4203 59.5676 68.4203 59.5676C68.4203 59.5676 68.2404 59.8827 68.38 60.1421C68.5271 60.4161 68.8069 60.2539 68.8069 60.2539C68.8069 60.2539 68.6473 60.4586 68.8164 60.781C68.9688 61.0704 69.7812 60.8238 69.7812 60.8238Z" fill="#F4CABA"/>
<path opacity="0.2" d="M68.8684 59.4829C68.8622 59.4931 68.8605 59.506 68.87 59.5199C68.9756 59.6738 69.0693 59.8238 69.067 60.0169C69.0663 60.0809 69.0663 60.1541 69.1135 60.2032C69.1351 60.2259 69.1633 60.2388 69.1899 60.2546C69.2253 60.2757 69.2472 60.3047 69.2692 60.3393C69.3416 60.4527 69.3904 60.5826 69.4235 60.7128C69.4386 60.7725 69.4504 60.8341 69.4589 60.8968C69.2141 60.9366 68.9051 60.9485 68.8173 60.781C68.6482 60.4587 68.8078 60.254 68.8078 60.254C68.8078 60.254 68.5279 60.4158 68.3808 60.1422C68.2412 59.8828 68.4211 59.5676 68.4211 59.5676C68.4211 59.5676 68.1773 59.7028 68.0128 59.3672C67.8571 59.0518 68.1055 58.8263 68.1055 58.8263C68.1055 58.8263 67.769 58.8767 67.6389 58.466C67.5986 58.3384 67.6019 58.2382 67.6245 58.1598C67.6242 58.1591 67.6242 58.1591 67.6242 58.1581L67.6261 58.1551C67.6422 58.1298 67.6592 58.105 67.6772 58.081C67.6828 58.0727 67.6894 58.0642 67.6953 58.0569C67.7313 58.0085 67.7716 57.9636 67.8139 57.9198C67.8381 57.8957 67.863 57.8726 67.8883 57.8492C67.8886 57.9531 67.9168 58.0619 67.9489 58.1571C67.9859 58.2646 68.0387 58.3763 68.1354 58.4419C68.2366 58.5115 68.3644 58.5138 68.4706 58.5718C68.5813 58.6341 68.6341 58.7686 68.6341 58.8916C68.6341 58.998 68.5925 59.094 68.6354 59.1975C68.6829 59.3128 68.7812 59.3943 68.8668 59.4806C68.8668 59.481 68.8674 59.4819 68.8684 59.4829Z" fill="white"/>
<path opacity="0.2" d="M69.0952 55.6611C69.0952 55.6611 69.5291 56.0049 69.6248 55.9785C69.7208 55.9521 69.7119 55.8308 69.7119 55.8308C69.7119 55.8308 69.2486 55.5704 69.0952 55.6611Z" fill="white"/>
<path d="M84.7974 29.3783C83.7514 32.1255 91.3679 47.8983 91.3679 47.8983L71.9778 56.6575L72.6974 59.3856C72.6974 59.3856 92.7337 58.9211 97.9804 52.0758C100.97 48.1752 92.291 28.5103 84.7974 29.3783Z" fill="#AA55AA"/>
</svg>
