<svg width="120" height="90" viewBox="0 0 120 90" fill="none" xmlns="http://www.w3.org/2000/svg">
<path opacity="0.1" d="M13.2486 76.002C7.11126 67.3229 -2.01608 56.6559 0.396896 38.2714C3.15084 17.2623 35.0441 -16.0898 69.1536 8.92099C82.5561 18.7564 83.2905 41.1687 101.204 35.426C119.118 29.6832 131.17 74.2739 104.26 80.0557C77.3498 85.8374 24.8938 92.4766 13.2486 76.002Z" fill="#A6927E"/>
<path opacity="0.1" d="M58.7148 86.396C84.8826 86.396 106.096 84.2786 106.096 81.6667C106.096 79.0548 84.8826 76.9374 58.7148 76.9374C32.5471 76.9374 11.334 79.0548 11.334 81.6667C11.334 84.2786 32.5471 86.396 58.7148 86.396Z" fill="#34C3EA"/>
<path d="M68.4026 69.6664C66.9994 68.653 56.6918 69.0298 55.7345 69.6664C54.764 70.3031 56.8229 72.1091 60.0752 73.928C61.4391 74.6946 62.2784 75.4482 64.1405 74.045C66.0027 72.6547 69.3468 70.3421 68.4026 69.6664Z" fill="#D5AAD5"/>
<path d="M60.6653 73.3173H63.4061V85.6214H60.6653V73.3173ZM53.4263 87.8041H70.3172C70.6188 87.8041 70.8548 87.5703 70.8548 87.2714C70.8548 87.0116 70.6581 86.7907 70.409 86.7517L63.4192 85.6343H60.6784L53.3608 86.7517C53.0985 86.7907 52.9018 87.0116 52.9018 87.2714C52.8887 87.5573 53.1247 87.8041 53.4263 87.8041ZM68.4025 34.2615C59.8915 33.8977 57.3999 41.5893 56.9147 46.5395C56.4294 51.4767 55.0918 55.9462 51.1838 58.025C47.2628 60.1038 43.5646 61.0523 45.8202 64.4044C48.0758 67.7565 55.8262 71.1346 62.7897 70.9657C69.7533 70.8098 76.8742 67.1069 78.815 57.2195C80.7428 47.3321 76.8348 34.6253 68.4025 34.2615Z" fill="#D5AAD5"/>
<path d="M60.9538 86.0242L61.4652 87.8431L58.9867 88.5837L58.1998 86.349L60.9538 86.0242ZM45.9382 84.7119V86.1671H48.1414L48.3905 84.7119H45.9382ZM62.8553 42.5508L59.5243 50.6842L59.4456 50.8661C59.2489 51.3468 58.7768 51.6456 58.2785 51.6456L48.8102 51.5807C48.4299 51.5807 48.1152 51.2689 48.1152 50.8921C48.1152 50.5543 48.3774 50.2684 48.7053 50.2165L58.0949 48.8522L56.8491 49.8137L59.0916 41.3165C59.367 40.2641 60.4554 39.6275 61.5176 39.9133C62.5799 40.1861 63.2225 41.2645 62.934 42.3169C62.9209 42.3949 62.8815 42.4728 62.8553 42.5508Z" fill="#EFACA5"/>
<path d="M49.8462 50.0476L46.6071 49.9827C45.8071 49.9827 45.1646 50.6973 45.1646 51.5808H49.8856L49.8462 50.0476Z" fill="#E7AD87"/>
<path d="M57.6228 43.5383L62.8028 44.7856L63.6552 40.2122C63.8782 38.9779 63.0258 37.8085 61.7537 37.6266C60.6784 37.4707 59.6555 38.0684 59.2883 39.0688L57.6228 43.5383Z" fill="#800080"/>
<path d="M62.9734 52.4382L47.0136 60.4677C45.5318 61.2082 44.64 62.7544 44.7318 64.4044L45.9383 84.7249H48.3906L51.6953 62.9882L64.1274 54.3481L62.9734 52.4382ZM60.1539 24.6859C60.1539 24.6859 65.3864 22.3862 68.1927 29.818C70.8024 36.7041 67.9042 35.3529 63.6815 35.3789C60.2457 35.4049 54.1739 38.627 55.7082 34.3784C56.8098 31.3512 56.2328 29.4283 56.2328 29.4283L60.1539 24.6859Z" fill="#0E0D0E"/>
<path d="M63.6946 35.5348L61.3997 36.5482C60.0358 37.1459 59.1572 38.4971 59.1703 39.9783C59.2097 42.9666 59.8916 50.3724 62.4357 53.2178H70.1992C71.4057 47.9687 70.7106 39.9003 70.7106 39.9003C70.7893 37.9254 69.3205 36.2104 67.3403 35.9765L63.6946 35.5348Z" fill="#800080"/>
<path d="M63.9176 37.9905C63.1045 38.0814 62.3701 37.5097 62.2783 36.7172L61.6357 31.8319L64.5864 31.4941L65.2159 36.3404C65.3208 37.1589 64.7306 37.8995 63.9176 37.9905Z" fill="#EFACA5"/>
<path d="M61.4784 35.4698L61.3604 35.4828C59.3933 35.7427 57.5967 34.3654 57.3344 32.4165L56.7705 28.155L64.0094 27.2195L64.5733 31.4811C64.8225 33.43 63.4455 35.2229 61.4784 35.4698Z" fill="#FAB9AF"/>
<path d="M64.8093 29.844L64.193 31.1173C64.193 31.1173 63.3668 31.8189 63.1307 30.0519C62.934 28.5447 61.8324 28.8046 61.8324 28.8046C61.8324 28.8046 58.0556 31.637 55.8394 29.6881C54.0952 28.1549 56.9147 25.3485 60.1538 24.6859L64.4028 26.5179L64.8093 29.844Z" fill="#0E0D0E"/>
<path d="M63.7339 30.9484C63.8257 31.728 64.0224 32.2997 64.6781 32.2217C64.6781 32.2217 65.3338 31.5721 65.4256 30.6496C65.5174 29.87 65.3993 29.3243 64.7436 29.4023C64.1011 29.4803 63.6421 30.1689 63.7339 30.9484Z" fill="#FAB9AF"/>
<path d="M70.1991 53.2178H62.4356L50.0166 60.6496C48.5479 61.5201 47.9709 63.339 48.6659 64.8982L58.1998 86.349L60.9537 86.0242L55.8261 65.3269C60.1275 65.145 68.1008 64.5084 70.186 62.1957C73.7267 58.2979 70.1991 53.2178 70.1991 53.2178Z" fill="#0E0D0E"/>
<path d="M43.7351 39.7574L48.1677 51.5417H33.7816L29.69 40.433C29.572 40.0952 29.8212 39.7444 30.1753 39.7444H43.7351V39.7574Z" fill="#FFBE55"/>
<path d="M43.7352 39.7574H44.4303C44.7975 39.7574 45.1253 39.9913 45.2564 40.3291L49.4267 51.5418H48.1678L43.7352 39.7574ZM34.1227 52.6851H48.1678V51.5548H33.821V52.3863C33.821 52.5422 33.9522 52.6851 34.1227 52.6851ZM48.1678 52.6851H57.0459C57.3607 52.6851 57.6229 52.4253 57.6229 52.1134C57.6229 51.8016 57.3607 51.5418 57.0459 51.5418H48.1678V52.6851Z" fill="#FFBE55"/>
<path d="M40.1287 45.617C40.4041 46.4356 40.0762 47.2671 39.3943 47.488C38.7124 47.7089 37.9517 47.2281 37.6763 46.4096C37.401 45.5911 37.7288 44.7595 38.4107 44.5386C39.0927 44.3178 39.8664 44.7985 40.1287 45.617Z" fill="white"/>
<path d="M68.927 42.3299L65.596 50.6192L65.5174 50.8011C65.3207 51.2948 64.8354 51.5936 64.3371 51.5936L54.8557 51.5287C54.4754 51.5287 54.1606 51.2168 54.1606 50.8271C54.1606 50.4763 54.4229 50.1904 54.7639 50.1514L64.1404 48.7742L62.8814 49.7487L65.1108 41.0956C65.3862 40.0302 66.4747 39.3935 67.55 39.6664C68.6254 39.9392 69.268 41.0176 68.9926 42.083C68.9926 42.161 68.9532 42.2519 68.927 42.3299Z" fill="#FAB9AF"/>
<path d="M55.8919 49.9826L52.6527 49.9176C51.8528 49.9176 51.2102 50.6452 51.2102 51.5417H55.9312L55.8919 49.9826Z" fill="#FAB9AF"/>
<path d="M63.6685 43.3564L68.8485 44.6297L69.7009 39.9653C69.9238 38.7181 69.0714 37.5227 67.7994 37.3408C66.724 37.1849 65.7011 37.7956 65.3339 38.809L63.6685 43.3564Z" fill="#800080"/>
<path d="M57.3607 86.8427L56.1542 88.025L53.4396 88.6746C53.1642 88.7396 52.9282 88.9475 52.8364 89.2203L52.6921 89.6101C52.6265 89.805 52.7708 89.9999 52.9806 89.9999L61.7276 89.792C62.0161 89.792 62.2391 89.5452 62.2129 89.2593L61.5178 86.8037L60.1933 87.1155C59.7474 87.2584 59.2622 87.2065 58.8688 86.9856L58.3967 86.7128C58.0688 86.5179 57.6492 86.5698 57.3607 86.8427ZM44.8237 85.1406L43.6172 86.323L40.9026 86.9726C40.6272 87.0376 40.3912 87.2455 40.2994 87.5183L40.1551 87.9081C40.0896 88.103 40.2338 88.2979 40.4436 88.2979L48.3514 88.129C48.6399 88.129 48.8628 87.8821 48.8366 87.5963L48.6268 85.0887L47.6563 85.4135C47.2105 85.5564 46.7252 85.5044 46.3318 85.2836L45.8597 85.0107C45.5187 84.8158 45.0991 84.8678 44.8237 85.1406Z" fill="#0E0D0E"/>
<path d="M36.0898 89.9999C36.116 89.9999 36.1554 89.9999 36.1816 89.9869C36.4832 89.9349 36.6931 89.6881 36.6406 89.4152L29.4935 54.8158C29.441 54.543 29.1525 54.3611 28.8378 54.413C28.5362 54.465 28.3263 54.7119 28.3788 54.9847L35.539 89.5841C35.5784 89.831 35.8144 89.9999 36.0898 89.9999ZM17.6515 89.9999C17.9269 89.9999 18.163 89.831 18.2023 89.5841L25.8347 54.9847C25.8871 54.7119 25.6773 54.452 25.3757 54.413C25.0609 54.3741 24.7724 54.556 24.72 54.8158L17.0876 89.4152C17.0352 89.6881 17.245 89.9479 17.5466 89.9869C17.586 89.9999 17.6122 89.9999 17.6515 89.9999Z" fill="#0E0D0E"/>
<path d="M87.9214 55.7155L20.8171 55.7155V52.4933L87.9214 52.4933V55.7155Z" fill="#0E0D0E"/>
<path d="M33.7229 77.8438H19.9663V76.8693H33.7229V77.8438Z" fill="#0E0D0E"/>
<path d="M87.3654 89.9999C87.3917 89.9999 87.431 89.9999 87.4572 89.9869C87.7589 89.9349 87.9687 89.6881 87.9162 89.4152L80.7822 54.8158C80.7298 54.543 80.4413 54.3611 80.1265 54.413C79.8249 54.465 79.6151 54.7119 79.6675 54.9847L86.8147 89.5841C86.854 89.831 87.1032 89.9999 87.3654 89.9999ZM68.9272 89.9999C69.2026 89.9999 69.4386 89.831 69.478 89.5841L77.1103 54.9847C77.1628 54.7119 76.9529 54.452 76.6513 54.413C76.3366 54.3741 76.0481 54.556 75.9956 54.8158L68.3633 89.4152C68.3108 89.6881 68.5206 89.9479 68.8223 89.9869C68.8616 89.9999 68.8878 89.9999 68.9272 89.9999Z" fill="#0E0D0E"/>
<path d="M85.0054 77.8438H71.2488V76.8693H85.0054V77.8438Z" fill="#0E0D0E"/>
<path d="M26.5296 40.0692H18.5432C17.7826 40.0692 17.1663 39.4585 17.1663 38.705V30.7924C17.1663 30.0389 17.7826 29.4282 18.5432 29.4282H26.5296C27.2903 29.4282 27.9066 30.0389 27.9066 30.7924V38.705C27.9066 39.4585 27.2903 40.0692 26.5296 40.0692Z" fill="#FFBE55"/>
<path opacity="0.39" d="M25.1789 38.6269H18.176C17.5728 38.6269 17.0745 38.1332 17.0745 37.5356V30.5975C17.0745 29.9998 17.5728 29.5061 18.176 29.5061H25.1789C25.7822 29.5061 26.2805 29.9998 26.2805 30.5975V37.5356C26.2805 38.1332 25.7953 38.6269 25.1789 38.6269Z" fill="white"/>
<path d="M23.5135 36.0414L23.1201 34.9371H21.153L20.7596 36.0414H19.5269L21.4415 31.3771H22.8447L24.7593 36.0414H23.5135ZM22.8578 34.1185C22.4906 33.1181 22.2939 32.5464 22.2414 32.4165C22.2021 32.2866 22.1628 32.1826 22.1497 32.1047C22.071 32.3775 21.8349 33.0401 21.4546 34.1185H22.8578Z" fill="white"/>
<path d="M46.0301 18.0077H38.0305C37.2699 18.0077 36.6536 17.397 36.6536 16.6434V8.73093C36.6536 7.97735 37.2699 7.3667 38.0305 7.3667H46.017C46.7776 7.3667 47.3939 7.97735 47.3939 8.73093V16.6434C47.3939 17.397 46.7776 18.0077 46.0301 18.0077Z" fill="#FFBE55"/>
<path opacity="0.39" d="M44.7844 16.5657H37.7815C37.1783 16.5657 36.6799 16.0719 36.6799 15.4743V8.5362C36.6799 7.93854 37.1783 7.44482 37.7815 7.44482H44.7844C45.3876 7.44482 45.886 7.93854 45.886 8.5362V15.4743C45.886 16.0719 45.4007 16.5657 44.7844 16.5657Z" fill="white"/>
<path d="M43.2501 12.7067C43.2501 13.1224 43.0796 13.4602 42.7255 13.6941C42.3714 13.941 41.8862 14.0579 41.2567 14.0579C40.6797 14.0579 40.1683 13.967 39.7224 13.7721V12.8626C40.0896 13.0055 40.3912 13.0964 40.6535 13.1614C40.9158 13.2264 41.1387 13.2524 41.3485 13.2524C41.5977 13.2524 41.7944 13.2134 41.9256 13.1224C42.0567 13.0445 42.1223 12.9145 42.1223 12.7586C42.1223 12.6677 42.096 12.5897 42.0305 12.5118C41.9649 12.4468 41.8862 12.3689 41.7682 12.3039C41.6502 12.2389 41.4141 12.135 41.0732 11.9921C40.7453 11.8621 40.4961 11.7322 40.3257 11.6023C40.1552 11.4854 40.024 11.3424 39.9322 11.1735C39.8273 11.0046 39.788 10.8227 39.788 10.6019C39.788 10.1861 39.9453 9.87427 40.2732 9.62741C40.601 9.39354 41.0469 9.27661 41.6239 9.27661C41.8993 9.27661 42.1747 9.3026 42.4239 9.36756C42.6731 9.43252 42.9484 9.51048 43.2238 9.61442L42.8567 10.381C42.5682 10.277 42.3321 10.2121 42.1354 10.1731C41.9518 10.1341 41.7551 10.1081 41.5846 10.1081C41.3617 10.1081 41.2043 10.1471 41.0863 10.2381C40.9682 10.329 40.9158 10.433 40.9158 10.5759C40.9158 10.6668 40.942 10.7448 40.9814 10.7968C41.0338 10.8617 41.0994 10.9267 41.2043 10.9786C41.3092 11.0306 41.5453 11.1476 41.9256 11.3035C42.437 11.5113 42.778 11.7192 42.9616 11.9271C43.1583 12.148 43.2501 12.3948 43.2501 12.7067Z" fill="white"/>
<path d="M99.8632 52.4512H91.8767C91.1161 52.4512 90.4998 51.8405 90.4998 51.0869V43.1744C90.4998 42.4208 91.1161 41.8102 91.8767 41.8102H99.8632C100.624 41.8102 101.24 42.4208 101.24 43.1744V51.0869C101.24 51.8405 100.624 52.4512 99.8632 52.4512Z" fill="#FFBE55"/>
<path opacity="0.39" d="M98.6303 51.009H91.6274C91.0242 51.009 90.5259 50.5153 90.5259 49.9176V42.9796C90.5259 42.3819 91.0242 41.8882 91.6274 41.8882H98.6303C99.2336 41.8882 99.7319 42.3819 99.7319 42.9796V49.9176C99.7319 50.5283 99.2336 51.009 98.6303 51.009Z" fill="white"/>
<path d="M95.024 48.4365H93.8962V43.7981H96.9911V44.6036H95.024V45.799H96.86V46.6045H95.024V48.4365Z" fill="white"/>
<path d="M83.6542 26.4659H75.6677C74.9071 26.4659 74.2908 25.8553 74.2908 25.1017V17.1892C74.2908 16.4356 74.9071 15.825 75.6677 15.825H83.6542C84.4148 15.825 85.0311 16.4356 85.0311 17.1892V25.1017C85.0311 25.8553 84.4148 26.4659 83.6542 26.4659Z" fill="#FFBE55"/>
<path opacity="0.39" d="M82.3691 24.9458H75.3662C74.763 24.9458 74.2646 24.4521 74.2646 23.8544V16.9163C74.2646 16.3187 74.763 15.825 75.3662 15.825H82.3691C82.9723 15.825 83.4707 16.3187 83.4707 16.9163V23.8544C83.4707 24.4521 82.9854 24.9458 82.3691 24.9458Z" fill="white"/>
<path d="M81.8707 20.0086C81.8707 20.7751 81.6216 21.3598 81.1101 21.7626C80.5987 22.1654 79.8774 22.3732 78.9201 22.3732H77.3857V17.7349H79.0775C79.9561 17.7349 80.6511 17.9298 81.1363 18.3325C81.6216 18.7223 81.8707 19.281 81.8707 20.0086ZM80.6774 20.0346C80.6774 19.0341 80.1659 18.5404 79.143 18.5404H78.5267V21.5677H79.025C80.1266 21.5547 80.6774 21.048 80.6774 20.0346Z" fill="white"/>
</svg>
