
<svg width="24" height="24" viewBox="0 0 24 24" fill="none" xmlns="http://www.w3.org/2000/svg">
<g id="Group">
<path id="Vector" d="M12 22C6.477 22 2 17.523 2 12C2 6.477 6.477 2 12 2C17.523 2 22 6.477 22 12C22 17.523 17.523 22 12 22ZM12 20C14.1217 20 16.1566 19.1571 17.6569 17.6569C19.1571 16.1566 20 14.1217 20 12C20 9.87827 19.1571 7.84344 17.6569 6.34315C16.1566 4.84285 14.1217 4 12 4C9.87827 4 7.84344 4.84285 6.34315 6.34315C4.84285 7.84344 4 9.87827 4 12C4 14.1217 4.84285 16.1566 6.34315 17.6569C7.84344 19.1571 9.87827 20 12 20ZM13 12H17V14H11V7H13V12Z" fill="#09121F"/>
</g>
</svg>
<svg xmlns="http://www.w3.org/2000/svg" width="37" height="37" viewBox="0 0 37 37" fill="none">
  <g clip-path="url(#clip0_462_8966)">
    <path d="M18.1647 36.1643C28.1056 36.1643 36.1643 28.1056 36.1643 18.1647C36.1643 8.22374 28.1056 0.165039 18.1647 0.165039C8.22374 0.165039 0.165039 8.22374 0.165039 18.1647C0.165039 28.1056 8.22374 36.1643 18.1647 36.1643Z" fill="#C080C0"/>
    <path d="M18.1646 1.63257C9.03384 1.63257 1.63184 9.03457 1.63184 18.1646C1.63184 27.2946 9.03384 34.6974 18.1646 34.6974C27.2954 34.6974 34.6974 27.2954 34.6974 18.1646C34.6974 9.03382 27.2961 1.63257 18.1646 1.63257ZM16.3696 33.2486C8.03963 32.2574 2.09018 24.7003 3.08138 16.3703C4.07258 8.04036 11.6289 2.09016 19.9596 3.08136C28.2903 4.07256 34.239 11.6296 33.2478 19.9588C32.2566 28.2881 24.7003 34.2398 16.3696 33.2486Z" fill="url(#paint0_linear_462_8966)"/>
    <path d="M33.248 19.959C32.2568 28.2905 24.7005 34.2399 16.3698 33.2487C8.03903 32.2575 2.09033 24.7005 3.08153 16.3705C4.07273 8.04051 11.629 2.09031 19.9598 3.08151C28.2905 4.07271 34.2392 11.6297 33.248 19.959Z" fill="#C080C0"/>
    <path d="M33.248 19.959C32.2568 28.2905 24.7005 34.2399 16.3698 33.2487C8.03903 32.2575 2.09033 24.7005 3.08153 16.3705C4.07273 8.04051 11.629 2.09031 19.9598 3.08151C28.2905 4.07271 34.2392 11.6297 33.248 19.959Z" fill="url(#paint1_linear_462_8966)"/>
    <path d="M26.4955 5.45904C25.791 5.27075 25.0739 5.13317 24.3498 5.04736C16.019 4.05616 8.46276 10.0056 7.47156 18.3363C7.1371 21.1423 7.59193 23.9859 8.78494 26.5476C9.97794 29.1092 11.8618 31.2873 14.2248 32.837C7.04482 30.9186 2.17764 23.9659 3.08153 16.3705C4.07273 8.03977 11.629 2.09032 19.9598 3.08152C22.2934 3.35588 24.531 4.16988 26.4955 5.45904Z" fill="url(#paint2_linear_462_8966)"/>
    <path d="M17.2539 17.5604V6.85663C17.2539 6.85663 17.4044 6.28464 17.8711 6.62332L18.0171 17.4091L19.1159 17.388C19.1159 17.388 19.651 14.7396 19.8414 14.443C20.0318 14.1465 20.9327 13.8236 20.9327 13.8236C20.9327 13.8236 20.9252 13.4255 20.8281 13.3088C20.731 13.1922 20.4984 12.9491 20.5413 12.843C20.5842 12.7368 20.6324 12.6367 20.6324 12.6367C20.6324 12.6367 20.4984 12.0482 20.5519 11.8894C20.5519 11.8894 20.798 11.2783 20.8281 11.2361C20.8423 11.2112 20.8618 11.1898 20.8853 11.1733C20.9087 11.1568 20.9354 11.1456 20.9637 11.1406C20.9919 11.1356 21.0208 11.1368 21.0485 11.1442C21.0762 11.1516 21.1019 11.165 21.1239 11.1834C21.297 11.2926 21.6379 11.9481 21.6379 11.9481C21.6379 11.9481 22.0518 12.3244 22.0842 12.7113C22.1166 13.0981 21.7267 13.7386 21.7267 13.7386L22.3288 13.9907C22.3288 13.9907 23.7588 14.653 23.8679 14.8231C23.977 14.9932 23.813 15.2747 23.813 15.2747L22.4071 15.298L21.9058 16.0386L21.9721 17.1901L22.8948 17.6838C22.8948 17.6838 23.0325 17.9593 22.9956 18.0232C22.9588 18.0872 26.2763 18.1196 26.2763 18.1196V18.5358C26.2763 18.5358 26.25 18.7405 25.9813 18.7488C25.7126 18.757 23.2455 18.7488 23.2455 18.7488L23.0558 19.8777L23.0641 20.5769L23.7415 21.2911C23.7415 21.2911 23.7821 21.5922 23.5985 21.5703C23.4148 21.5485 22.5185 21.1097 22.5079 20.7635V19.5593L22.3612 18.6268L21.732 18.167L21.2481 18.4394L21.0223 19.9085L21.0825 20.9961V21.2971L20.7483 22.0219C20.7483 22.0219 20.5519 22.0573 20.5519 21.69C20.5519 21.3227 20.8319 20.899 20.8319 20.899C20.767 20.7194 20.6724 20.5519 20.5519 20.4038C20.3825 20.2209 20.001 18.3416 20.001 18.3416L17.412 18.529L17.2539 17.5604Z" fill="url(#paint3_linear_462_8966)"/>
    <path d="M21.7309 21.3392C21.7069 21.4588 21.6539 21.5707 21.5766 21.6651C21.4989 21.7623 21.4131 21.8527 21.32 21.9353C21.263 21.9943 21.1943 22.0407 21.1183 22.0715C21.0799 22.086 21.0381 22.0891 20.998 22.0802C20.9579 22.0714 20.9212 22.0511 20.8925 22.0218C20.8671 21.9851 20.8535 21.9415 20.8535 21.8969C20.8535 21.8523 20.8671 21.8087 20.8925 21.772C20.9455 21.7 21.0092 21.6365 21.0814 21.5838C21.244 21.4461 21.3538 21.2715 21.4998 21.1209C21.6729 20.9441 21.7565 21.1849 21.7309 21.3392ZM22.9155 20.7642C22.9929 20.8828 23.0981 20.9807 23.2218 21.0494C23.347 21.1212 23.4782 21.1819 23.614 21.2308C23.7005 21.271 23.7948 21.2918 23.8902 21.2918C23.9384 21.2916 23.9855 21.2772 24.0257 21.2505C24.0658 21.2237 24.0972 21.1857 24.1159 21.1413C24.127 21.0906 24.1224 21.0378 24.1028 20.9898C24.0832 20.9418 24.0494 20.901 24.0061 20.8726C23.9184 20.8176 23.8227 20.7767 23.7223 20.7514C23.4883 20.6716 23.2948 20.5301 23.0728 20.43C22.8102 20.3126 22.8229 20.6084 22.9155 20.7642ZM22.555 15.2987C22.555 15.2987 23.9022 15.8383 24.1242 15.8255C24.3462 15.8127 24.5449 15.6238 24.4734 15.3672C24.4019 15.1105 22.5114 14.1487 22.5114 14.1487L22.555 15.2987Z" fill="#C080C0"/>
    <path d="M22.4472 15.2988C22.4472 15.2988 23.7944 15.8384 24.0157 15.8256C24.2369 15.8128 24.4364 15.6239 24.3649 15.3673C24.2934 15.1106 22.4043 14.1458 22.4043 14.1458L22.4472 15.2988Z" fill="url(#paint4_linear_462_8966)"/>
    <path d="M20.5977 17.0507C20.5874 16.6541 20.5974 16.2572 20.6278 15.8616C20.6677 15.3077 20.4946 14.6363 20.8536 14.2126C20.9589 14.0884 21.491 13.9928 21.6543 13.9868C22.0412 13.9823 22.4822 14.0417 22.7833 14.33C23.0173 14.5558 22.842 15.1067 22.8156 15.4311C22.766 16.058 22.8397 16.2748 22.8465 16.7384C22.851 17.0876 22.8397 17.5053 22.5582 17.7168C22.4032 17.8304 22.0141 17.8214 21.8222 17.8342C21.5588 17.853 21.0793 17.9185 20.8377 17.792C20.6097 17.6724 20.6059 17.2727 20.5977 17.0507Z" fill="#C080C0"/>
    <path d="M20.5977 17.0507C20.5874 16.6541 20.5974 16.2572 20.6278 15.8616C20.6677 15.3077 20.4946 14.6363 20.8536 14.2126C20.9589 14.0884 21.491 13.9928 21.6543 13.9868C22.0412 13.9823 22.4822 14.0417 22.7833 14.33C23.0173 14.5558 22.842 15.1067 22.8156 15.4311C22.766 16.058 22.8397 16.2748 22.8465 16.7384C22.851 17.0876 22.8397 17.5053 22.5582 17.7168C22.4032 17.8304 22.0141 17.8214 21.8222 17.8342C21.5588 17.853 21.0793 17.9185 20.8377 17.792C20.6097 17.6724 20.6059 17.2727 20.5977 17.0507Z" fill="url(#paint5_linear_462_8966)"/>
    <path opacity="0.31" d="M20.7121 14.9993L20.7941 15.937C20.8129 16.1716 20.9076 16.3936 21.064 16.5695C21.2203 16.7453 21.4296 16.8655 21.6604 16.9117C21.6852 16.9168 21.7103 16.9203 21.7356 16.9222C22.0096 16.9433 22.4754 17.1728 22.4754 17.1728L21.3962 17.5085L20.8332 17.3392L20.5977 17.4001L20.6232 15.9942L20.7121 14.9993Z" fill="url(#paint6_linear_462_8966)"/>
    <path d="M21.4005 14.233C21.4042 14.2984 21.4209 14.3623 21.4494 14.4212C21.478 14.4801 21.5179 14.5328 21.5668 14.5762C21.6484 14.6331 21.7466 14.6614 21.846 14.6567C21.9016 14.6603 21.9573 14.651 22.0087 14.6296C22.0601 14.6082 22.1059 14.5753 22.1425 14.5333C22.2178 14.4249 22.1945 14.2752 22.1599 14.1457C22.1434 14.0517 22.0976 13.9652 22.0289 13.8989C21.9198 13.8131 21.688 13.8055 21.5593 13.8499C21.4117 13.9011 21.3847 14.1006 21.4005 14.233Z" fill="#C080C0"/>
    <path d="M21.4005 14.233C21.4042 14.2984 21.4209 14.3623 21.4494 14.4212C21.478 14.4801 21.5179 14.5328 21.5668 14.5762C21.6484 14.6331 21.7466 14.6614 21.846 14.6567C21.9016 14.6603 21.9573 14.651 22.0087 14.6296C22.0601 14.6082 22.1059 14.5753 22.1425 14.5333C22.2178 14.4249 22.1945 14.2752 22.1599 14.1457C22.1434 14.0517 22.0976 13.9652 22.0289 13.8989C21.9198 13.8131 21.688 13.8055 21.5593 13.8499C21.4117 13.9011 21.3847 14.1006 21.4005 14.233Z" fill="url(#paint7_linear_462_8966)"/>
    <path d="M21.1068 12.9753C21.1068 12.9001 21.1934 12.3732 20.9006 12.4876C20.799 12.5253 20.8389 12.6381 20.8577 12.7352C20.8871 12.888 21.1083 13.0122 21.1068 12.9753Z" fill="url(#paint8_linear_462_8966)"/>
    <path d="M22.4429 12.9986C22.4504 12.9233 22.3398 12.3965 22.6228 12.5312C22.7206 12.5786 22.6709 12.6817 22.6431 12.7826C22.6009 12.9316 22.4384 13.0347 22.4429 12.9986Z" fill="url(#paint9_linear_462_8966)"/>
    <path d="M18.1651 19.1392C18.7033 19.1392 19.1397 18.7029 19.1397 18.1646C19.1397 17.6263 18.7033 17.1899 18.1651 17.1899C17.6268 17.1899 17.1904 17.6263 17.1904 18.1646C17.1904 18.7029 17.6268 19.1392 18.1651 19.1392Z" fill="#C080C0"/>
    <path d="M18.1651 19.1392C18.7033 19.1392 19.1397 18.7029 19.1397 18.1646C19.1397 17.6263 18.7033 17.1899 18.1651 17.1899C17.6268 17.1899 17.1904 17.6263 17.1904 18.1646C17.1904 18.7029 17.6268 19.1392 18.1651 19.1392Z" fill="url(#paint10_linear_462_8966)"/>
    <path d="M18.1331 6.2771C18.2271 6.2771 18.3173 6.31445 18.3838 6.38093C18.4502 6.4474 18.4876 6.53757 18.4876 6.63158V18.4372H17.7764V6.63158C17.7764 6.53757 17.8137 6.4474 17.8802 6.38093C17.9467 6.31445 18.0368 6.2771 18.1309 6.2771H18.1331Z" fill="#7D6E5F"/>
    <path d="M26.1053 17.8042H18.0952C17.9202 17.8042 17.7783 17.9459 17.7783 18.1207C17.7783 18.2955 17.9202 18.4372 18.0952 18.4372H26.1053C26.2803 18.4372 26.4221 18.2955 26.4221 18.1207C26.4221 17.9459 26.2803 17.8042 26.1053 17.8042Z" fill="#7D6E5F"/>
    <path d="M21.5481 14.1939C21.5443 14.2658 21.5569 14.3376 21.585 14.4039C21.6052 14.4384 21.6306 14.4697 21.6603 14.4965C21.695 14.5386 21.7421 14.5687 21.795 14.5823C21.8242 14.5858 21.8539 14.5823 21.8815 14.5721C21.9091 14.5619 21.9339 14.5453 21.9538 14.5236C21.9921 14.4794 22.0181 14.4259 22.0291 14.3685C22.0538 14.2426 22.0579 14.1135 22.0411 13.9862L22.0246 13.7732C22.0252 13.6794 22.0007 13.5872 21.9538 13.506C21.933 13.477 21.9064 13.4526 21.8757 13.4344C21.845 13.4161 21.8109 13.4044 21.7754 13.3999C21.4044 13.3532 21.5429 13.9862 21.5481 14.1939Z" fill="url(#paint11_linear_462_8966)"/>
    <path d="M22.523 12.0753C22.523 12.0753 22.6261 13.5489 21.8772 13.7386C21.1284 13.9283 21.023 12.6849 21.0019 12.2514C20.9808 11.8179 21.318 11.4544 21.8772 11.5236C22.1354 11.556 22.468 11.7246 22.523 12.0753Z" fill="url(#paint12_linear_462_8966)"/>
    <path d="M21.275 11.1833C21.4195 10.9688 21.7499 10.9455 21.9697 11.0817C22.0705 11.145 22.1556 11.2323 22.267 11.2767C22.3468 11.3075 22.4356 11.312 22.5176 11.3376C22.5996 11.3641 22.673 11.4122 22.73 11.4768C22.7871 11.5415 22.8257 11.6202 22.8417 11.7049C22.8578 11.7896 22.8508 11.8771 22.8215 11.9581C22.7921 12.0391 22.7415 12.1108 22.6749 12.1655C22.5929 12.2317 22.4913 12.2701 22.4032 12.3281C22.4032 12.2393 22.3069 12.1535 22.2331 12.1023C22.1571 12.0545 22.0693 12.0284 21.9795 12.027L22.0028 12.0775C21.8742 12.1179 21.736 12.1161 21.6084 12.0722C21.4662 12.0233 21.3157 11.9217 21.1794 11.9864C21.1132 12.018 21.0462 12.0865 20.9808 12.0534C20.9627 12.0405 20.9479 12.0236 20.9376 12.004C20.9273 11.9844 20.9217 11.9626 20.9213 11.9405C20.8784 11.6537 21.1057 11.4287 21.275 11.1833Z" fill="#7D6E5F"/>
    <path d="M20.8544 14.2126C20.7016 14.2676 20.5645 14.3591 20.4551 14.4791C20.3457 14.5991 20.2673 14.744 20.2267 14.9013C20.0928 15.4387 19.6104 17.5618 19.6104 17.5618C19.6104 17.5618 20.074 17.6145 20.232 17.5829L20.6919 15.7013C20.6919 15.7013 20.673 14.5844 20.8544 14.2126Z" fill="#C080C0"/>
    <path d="M20.8544 14.2126C20.7016 14.2676 20.5645 14.3591 20.4551 14.4791C20.3457 14.5991 20.2673 14.744 20.2267 14.9013C20.0928 15.4387 19.6104 17.5618 19.6104 17.5618C19.6104 17.5618 20.074 17.6145 20.232 17.5829L20.6919 15.7013C20.6919 15.7013 20.673 14.5844 20.8544 14.2126Z" fill="url(#paint13_linear_462_8966)"/>
    <path d="M20.8331 21.6832C20.832 21.7221 20.8414 21.7605 20.8602 21.7946C20.8798 21.8213 20.9056 21.8429 20.9353 21.8574C20.9651 21.872 20.9979 21.8791 21.031 21.8781C21.1498 21.8765 21.2633 21.829 21.3479 21.7457C21.431 21.6627 21.4988 21.5656 21.5481 21.4589C21.5803 21.4017 21.6039 21.3401 21.6181 21.276C21.6474 21.1255 21.5865 20.9675 21.527 20.8245C21.5488 20.8787 21.238 20.9185 21.2094 20.9185C21.0875 20.9185 21.104 20.9938 21.0634 21.0947C20.9866 21.2873 20.8316 21.4642 20.8331 21.6832Z" fill="#7D6E5F"/>
    <path d="M21.0801 20.5609L21.2306 20.9914C21.2306 20.9914 21.3254 21.1683 21.4699 21.0373C21.4699 21.0373 21.5181 20.9884 21.5279 20.8206L21.3999 20.4382L21.0801 20.5609Z" fill="#AA55AA"/>
    <path d="M23.9166 17.8778C23.8173 18.6922 23.444 19.861 23.4274 19.861C23.3454 19.8377 22.9759 19.931 22.8923 19.8994C22.8487 19.8821 22.8231 19.015 22.8472 18.5635C22.8555 18.4129 22.8555 17.9531 22.8555 17.8041L21.8236 17.8342L21.6182 17.847C21.6196 18.0414 21.6037 18.2356 21.5707 18.4272C21.4609 19.2325 21.3487 19.6314 21.3879 20.4405C21.3826 20.5722 21.1026 20.6264 21.007 20.5248C20.5788 20.0672 20.5502 19.5833 20.4621 18.9624C20.4034 18.5484 20.2108 17.0349 20.7451 16.922C20.8238 16.9042 20.9047 16.8976 20.9852 16.9024C21.1116 16.9115 21.3562 16.9182 21.4368 17.0259C21.4639 17.0394 22.0042 17.3104 22.4603 17.1719L22.942 16.6751C23.0082 16.5917 23.1004 16.5329 23.2039 16.5079C23.3074 16.483 23.4163 16.4933 23.5132 16.5374C23.7014 16.6262 23.8444 16.8385 23.9046 17.0816C23.9648 17.3247 23.949 17.6122 23.9166 17.8778Z" fill="#C080C0"/>
    <path d="M22.8558 20.4746C22.8511 20.5081 22.8537 20.5422 22.8633 20.5747C22.8779 20.6058 22.8998 20.633 22.9273 20.6537C23.1541 20.853 23.4245 20.9963 23.7168 21.0721C23.7791 21.0931 23.8465 21.0931 23.9087 21.0721C23.9559 21.0454 23.9916 21.0022 24.0089 20.9509C24.0263 20.8995 24.0241 20.8435 24.0028 20.7937C23.9566 20.6953 23.8832 20.6123 23.7913 20.5543C23.6993 20.4969 23.6186 20.4229 23.5535 20.3361C23.5309 20.2839 23.4954 20.2384 23.4504 20.2036C23.4142 20.1885 23.375 20.1823 23.336 20.1856C23.2479 20.1856 22.9905 20.1457 22.919 20.1923C22.8475 20.239 22.8603 20.3812 22.8558 20.4746Z" fill="#7D6E5F"/>
    <path d="M22.9033 19.8993L22.9455 20.2591C23.0126 20.3197 23.0908 20.3667 23.1758 20.3976C23.1969 20.4041 23.2193 20.4055 23.2411 20.4017C23.263 20.398 23.2836 20.3891 23.3014 20.376C23.3192 20.3628 23.3336 20.3456 23.3436 20.3259C23.3535 20.3061 23.3587 20.2842 23.3587 20.2621V20.2328L23.3797 19.8564L22.9033 19.8993Z" fill="url(#paint14_linear_462_8966)"/>
    <path d="M24.3861 15.3678L22.3623 14.9441L22.2705 15.492C22.2705 15.492 23.9406 16.216 24.216 16.0038C24.4915 15.7915 24.5065 15.504 24.3861 15.3678Z" fill="#C080C0"/>
    <path d="M24.3861 15.3678L22.3623 14.9441L22.2705 15.492C22.2705 15.492 23.9406 16.216 24.216 16.0038C24.4915 15.7915 24.5065 15.504 24.3861 15.3678Z" fill="url(#paint15_linear_462_8966)"/>
    <path d="M22.3505 15.0103C22.3505 15.0103 21.6807 14.7093 21.4241 14.7273C21.1674 14.7454 21.1719 14.9283 21.1719 14.9283V15.1285C21.1709 15.1679 21.1816 15.2067 21.2026 15.2401C21.2236 15.2735 21.2541 15.2998 21.2901 15.3159C21.3606 15.3487 21.4385 15.3622 21.5159 15.355C21.6792 15.3302 21.7123 15.2467 21.7123 15.2467C21.7123 15.2467 21.8576 15.3927 21.9471 15.3588C22.0583 15.3128 22.1821 15.3069 22.2971 15.3422L22.3505 15.0103Z" fill="url(#paint16_linear_462_8966)"/>
    <path d="M22.1987 14.917L22.1182 15.3633L22.2755 15.3851L22.3455 14.9509L22.1987 14.917Z" fill="#7D6E5F"/>
    <path d="M22.1989 14.917L22.1748 15.0562L22.3231 15.0811L22.3456 14.9509L22.1989 14.917Z" fill="#7D6E5F"/>
    <path d="M22.1488 14.8367L22.4317 14.8919L22.4167 14.9687L22.1338 14.9135L22.1488 14.8367Z" fill="#C080C0"/>
    <path d="M22.1484 14.8367L22.4314 14.8919L22.4164 14.9687L22.1334 14.9135L22.1484 14.8367Z" fill="url(#paint17_linear_462_8966)"/>
    <path d="M21.1066 12.1212C21.0991 12.3192 21.0772 12.5164 21.0411 12.7112C21.0435 12.6575 21.0379 12.6038 21.0246 12.5517C21.0208 12.5298 21.0109 12.5094 20.996 12.493C20.9885 12.4847 20.9783 12.4795 20.9673 12.4781C20.9562 12.4767 20.945 12.4793 20.9358 12.4854C20.9455 12.3801 20.9034 12.2762 20.9064 12.1701C20.9084 12.0927 20.9347 12.0179 20.9817 11.9564C20.9837 11.9527 20.9868 11.9498 20.9907 11.9481C20.9953 11.9463 21.0004 11.9463 21.005 11.9481C21.0389 11.9613 21.0674 11.9856 21.0859 12.017C21.1043 12.0484 21.1116 12.0851 21.1066 12.1212ZM22.4666 12.7925L22.517 12.5547C22.517 12.5404 22.5245 12.5231 22.5388 12.5186C22.5531 12.514 22.5546 12.5186 22.5607 12.5118C22.5636 12.5083 22.5656 12.5042 22.5667 12.4997L22.6276 12.3063C22.6367 12.2762 22.6457 12.2469 22.6525 12.216C22.6562 12.202 22.6562 12.1872 22.6525 12.1731C22.6467 12.1568 22.6352 12.1431 22.6201 12.1347C22.6067 12.1257 22.5916 12.1195 22.5757 12.1165C22.5598 12.1136 22.5434 12.1139 22.5276 12.1176C22.5119 12.1213 22.4971 12.1282 22.4841 12.1379C22.4711 12.1475 22.4603 12.1598 22.4523 12.1739C22.4399 12.1938 22.4324 12.2164 22.4303 12.2398C22.4282 12.2632 22.4316 12.2867 22.4402 12.3086C22.4772 12.4671 22.4861 12.6309 22.4666 12.7925Z" fill="#7D6E5F"/>
    <path d="M22.1475 14.8381L22.1731 14.823L22.4131 14.8689L22.4304 14.893L22.1475 14.8381Z" fill="#C080C0"/>
    <path d="M22.1475 14.8381L22.1731 14.823L22.4131 14.8689L22.4304 14.893L22.1475 14.8381Z" fill="url(#paint18_linear_462_8966)"/>
    <path d="M19.4692 17.6138C19.428 17.6219 19.3893 17.6398 19.3564 17.666C19.3235 17.6922 19.2974 17.7259 19.2803 17.7644C19.2595 17.8406 19.2582 17.9208 19.2765 17.9977C19.2812 18.0403 19.2923 18.0819 19.3097 18.1211C19.317 18.139 19.3294 18.1544 19.3453 18.1655C19.3611 18.1766 19.3799 18.1829 19.3992 18.1836C19.4542 18.1783 19.4858 18.103 19.4888 18.0368C19.4843 17.9707 19.4843 17.9043 19.4888 17.8381C19.482 17.92 19.482 18.0023 19.4888 18.0842C19.4879 18.1167 19.4991 18.1484 19.5204 18.173C19.5294 18.1795 19.54 18.1833 19.5511 18.1839C19.5621 18.1846 19.5732 18.1821 19.5829 18.1768C19.6066 18.1623 19.6266 18.1426 19.6413 18.1191C19.6561 18.0956 19.6652 18.0689 19.6679 18.0413C19.675 17.9827 19.6735 17.9234 19.6634 17.8652C19.6731 17.9072 19.6749 17.9505 19.6687 17.9932C19.6621 18.0357 19.6665 18.0792 19.6815 18.1196C19.6995 18.1572 19.7439 18.1798 19.7725 18.1542C19.791 18.1334 19.8017 18.1068 19.8026 18.079C19.8139 18.0091 19.8177 17.9382 19.8139 17.8675C19.8023 17.9397 19.8059 18.0135 19.8245 18.0842C19.8485 18.1512 19.9125 18.2046 19.9697 18.1798C19.9929 18.1647 20.0119 18.1441 20.0251 18.1198C20.0382 18.0954 20.045 18.0682 20.045 18.0406C20.051 17.9826 20.045 17.9239 20.045 17.866C20.0449 17.8551 20.047 17.8444 20.051 17.8344C20.0668 17.8042 20.1044 17.8185 20.1338 17.8148C20.1631 17.811 20.2023 17.7644 20.209 17.7177C20.2142 17.67 20.2106 17.6218 20.1985 17.5755C20.0648 17.5786 19.9311 17.5731 19.7981 17.5589C19.6861 17.5577 19.5748 17.5763 19.4692 17.6138Z" fill="url(#paint19_linear_462_8966)"/>
    <path d="M23.9272 17.8778C23.8279 18.6922 23.4546 19.861 23.438 19.861C23.3589 19.8563 23.2794 19.8621 23.2017 19.8783C23.0783 19.8964 22.9466 19.9167 22.9007 19.8994C22.8969 19.8994 22.8939 19.8911 22.8901 19.8783C22.8548 19.7473 22.8352 19.0323 22.8533 18.6094V18.5635C22.8615 18.4129 22.8608 17.9531 22.8608 17.8041L21.8297 17.8342L21.6242 17.847C21.6257 18.0414 21.6098 18.2356 21.5768 18.4272C21.4669 19.2325 21.3548 19.6314 21.3939 20.4405C21.3902 20.5255 21.2728 20.5782 21.1644 20.5775C21.1092 20.5806 21.0551 20.5616 21.0139 20.5248C20.5856 20.0672 20.557 19.5833 20.469 18.9624C20.4103 18.5484 20.2176 17.0349 20.752 16.922C20.8307 16.9042 20.9115 16.8976 20.992 16.9024C21.1185 16.9115 21.3631 16.9182 21.4436 17.0259C21.4707 17.0394 22.0111 17.3104 22.4672 17.1719L22.9488 16.6751C23.015 16.5917 23.1072 16.5329 23.2107 16.5079C23.3143 16.483 23.4231 16.4933 23.5201 16.5374C23.7082 16.6262 23.8512 16.8385 23.9114 17.0816C23.9717 17.3247 23.9596 17.6122 23.9272 17.8778Z" fill="url(#paint20_linear_462_8966)"/>
    <path d="M21.1693 20.5776C21.1141 20.5807 21.06 20.5617 21.0187 20.5249C20.5905 20.0673 20.5619 19.5834 20.4739 18.9625C20.4151 18.5485 20.2225 17.035 20.7568 16.9221C20.5805 17.2735 20.5247 17.6731 20.598 18.0593C20.7237 18.6795 21.1693 20.5776 21.1693 20.5776Z" fill="url(#paint21_linear_462_8966)"/>
    <path d="M23.2021 19.8784C23.0787 19.8965 22.947 19.9168 22.9011 19.8995C22.8973 19.8995 22.8943 19.8912 22.8905 19.8784C22.8552 19.7474 22.8356 19.0325 22.8537 18.6095V18.5636C22.8619 18.413 22.8612 17.9532 22.8612 17.8042L21.6246 17.8471L21.5742 17.4166C21.5742 17.4166 22.2591 17.5859 22.4638 17.5603C22.6685 17.5347 22.9003 17.3345 22.9003 17.3345C22.9003 17.3345 23.1848 16.9394 23.2691 17.3345C23.3534 17.7011 23.2187 19.6451 23.2021 19.8784Z" fill="url(#paint22_linear_462_8966)"/>
    <path d="M18.4873 31.9685C18.4873 31.7727 18.3286 31.614 18.1328 31.614C17.937 31.614 17.7783 31.7727 17.7783 31.9685V32.4675C17.7783 32.6633 17.937 32.822 18.1328 32.822C18.3286 32.822 18.4873 32.6633 18.4873 32.4675V31.9685Z" fill="white"/>
    <path d="M18.4873 3.96801C18.4873 3.77223 18.3286 3.61353 18.1328 3.61353C17.937 3.61353 17.7783 3.77223 17.7783 3.96801V4.46699C17.7783 4.66277 17.937 4.82148 18.1328 4.82148C18.3286 4.82148 18.4873 4.66277 18.4873 4.46699V3.96801Z" fill="white"/>
    <path d="M18.4873 31.9685C18.4873 31.7727 18.3286 31.614 18.1328 31.614C17.937 31.614 17.7783 31.7727 17.7783 31.9685V32.4675C17.7783 32.6633 17.937 32.822 18.1328 32.822C18.3286 32.822 18.4873 32.6633 18.4873 32.4675V31.9685Z" fill="white"/>
    <path d="M8.30764 7.89143C8.1692 7.753 7.94476 7.753 7.80632 7.89143C7.66789 8.02987 7.66789 8.25431 7.80632 8.39275L8.15916 8.74558C8.29759 8.88402 8.52204 8.88402 8.66047 8.74558C8.79891 8.60715 8.79891 8.3827 8.66047 8.24427L8.30764 7.89143Z" fill="white"/>
    <path d="M28.1074 27.6905C27.969 27.5521 27.7446 27.5521 27.6061 27.6905C27.4677 27.8289 27.4677 28.0534 27.6061 28.1918L27.959 28.5447C28.0974 28.6831 28.3218 28.6831 28.4603 28.5447C28.5987 28.4062 28.5987 28.1818 28.4603 28.0433L28.1074 27.6905Z" fill="white"/>
    <path d="M3.8828 17.8635C3.68703 17.8635 3.52832 18.0223 3.52832 18.218C3.52832 18.4138 3.68703 18.5725 3.8828 18.5725H4.38179C4.57757 18.5725 4.73627 18.4138 4.73627 18.218C4.73627 18.0223 4.57757 17.8635 4.38179 17.8635H3.8828Z" fill="white"/>
    <path d="M31.8838 17.8628C31.688 17.8628 31.5293 18.0215 31.5293 18.2173C31.5293 18.4131 31.688 18.5718 31.8838 18.5718H32.3828C32.5785 18.5718 32.7372 18.4131 32.7372 18.2173C32.7372 18.0215 32.5785 17.8628 32.3828 17.8628H31.8838Z" fill="white"/>
    <path d="M7.80598 28.0437C7.66755 28.1821 7.66755 28.4066 7.80598 28.545C7.94442 28.6834 8.16886 28.6834 8.3073 28.545L8.66013 28.1922C8.79857 28.0537 8.79857 27.8293 8.66013 27.6908C8.5217 27.5524 8.29725 27.5524 8.15882 27.6908L7.80598 28.0437Z" fill="white"/>
    <path d="M27.6058 8.24363C27.4674 8.38207 27.4674 8.60651 27.6058 8.74495C27.7442 8.88338 27.9687 8.88338 28.1071 8.74495L28.4599 8.39211C28.5984 8.25368 28.5984 8.02923 28.4599 7.8908C28.3215 7.75236 28.0971 7.75236 27.9586 7.8908L27.6058 8.24363Z" fill="white"/>
  </g>
  <defs>
    <linearGradient id="paint0_linear_462_8966" x1="11.5942" y1="-21.8107" x2="22.1475" y2="42.3974" gradientUnits="userSpaceOnUse">
      <stop stop-opacity="0"/>
      <stop offset="0.88" stop-opacity="0.8"/>
      <stop offset="0.97"/>
    </linearGradient>
    <linearGradient id="paint1_linear_462_8966" x1="19.518" y1="-18.2439" x2="15.9581" y2="77.5388" gradientUnits="userSpaceOnUse">
      <stop stop-opacity="0"/>
      <stop offset="0.88" stop-opacity="0.8"/>
      <stop offset="0.97"/>
    </linearGradient>
    <linearGradient id="paint2_linear_462_8966" x1="-3.06284" y1="6.8258" x2="78.8175" y2="50.5635" gradientUnits="userSpaceOnUse">
      <stop stop-color="white" stop-opacity="0"/>
      <stop offset="0.84" stop-color="white" stop-opacity="0.84"/>
      <stop offset="0.97" stop-color="white"/>
    </linearGradient>
    <linearGradient id="paint3_linear_462_8966" x1="22.6968" y1="-12.3826" x2="20.8943" y2="36.1056" gradientUnits="userSpaceOnUse">
      <stop stop-opacity="0"/>
      <stop offset="0.88" stop-opacity="0.8"/>
      <stop offset="0.97"/>
    </linearGradient>
    <linearGradient id="paint4_linear_462_8966" x1="23.4918" y1="14.659" x2="22.9831" y2="15.6194" gradientUnits="userSpaceOnUse">
      <stop stop-opacity="0"/>
      <stop offset="0.88" stop-opacity="0.8"/>
      <stop offset="0.97"/>
    </linearGradient>
    <linearGradient id="paint5_linear_462_8966" x1="21.8493" y1="13.6135" x2="21.5527" y2="19.6743" gradientUnits="userSpaceOnUse">
      <stop stop-opacity="0"/>
      <stop offset="0.5" stop-opacity="0.19"/>
      <stop offset="0.55" stop-opacity="0.24"/>
      <stop offset="0.97"/>
    </linearGradient>
    <linearGradient id="paint6_linear_462_8966" x1="21.7191" y1="11.9564" x2="21.4285" y2="19.7814" gradientUnits="userSpaceOnUse">
      <stop stop-opacity="0"/>
      <stop offset="0.88" stop-opacity="0.8"/>
      <stop offset="0.97"/>
    </linearGradient>
    <linearGradient id="paint7_linear_462_8966" x1="21.8761" y1="13.4398" x2="21.6744" y2="15.4741" gradientUnits="userSpaceOnUse">
      <stop stop-opacity="0"/>
      <stop offset="0.5" stop-opacity="0.19"/>
      <stop offset="0.55" stop-opacity="0.24"/>
      <stop offset="0.97"/>
    </linearGradient>
    <linearGradient id="paint8_linear_462_8966" x1="20.8336" y1="12.727" x2="21.1181" y2="12.727" gradientUnits="userSpaceOnUse">
      <stop stop-color="#ECC4D7"/>
      <stop offset="0.42" stop-color="#EFD4D1"/>
      <stop offset="1" stop-color="#F2EAC9"/>
    </linearGradient>
    <linearGradient id="paint9_linear_462_8966" x1="22.4278" y1="12.7577" x2="22.6807" y2="12.7577" gradientUnits="userSpaceOnUse">
      <stop stop-color="#ECC4D7"/>
      <stop offset="0.42" stop-color="#EFD4D1"/>
      <stop offset="1" stop-color="#F2EAC9"/>
    </linearGradient>
    <linearGradient id="paint10_linear_462_8966" x1="18.1267" y1="14.1877" x2="18.1899" y2="20.6723" gradientUnits="userSpaceOnUse">
      <stop stop-opacity="0"/>
      <stop offset="0.88" stop-opacity="0.8"/>
      <stop offset="0.97"/>
    </linearGradient>
    <linearGradient id="paint11_linear_462_8966" x1="21.7845" y1="13.9787" x2="21.8296" y2="14.5401" gradientUnits="userSpaceOnUse">
      <stop stop-color="#ECC4D7"/>
      <stop offset="0.42" stop-color="#EFD4D1"/>
      <stop offset="1" stop-color="#F2EAC9"/>
    </linearGradient>
    <linearGradient id="paint12_linear_462_8966" x1="21.756" y1="11.5304" x2="21.7884" y2="14.2639" gradientUnits="userSpaceOnUse">
      <stop stop-color="#ECC4D7"/>
      <stop offset="0.42" stop-color="#EFD4D1"/>
      <stop offset="1" stop-color="#F2EAC9"/>
    </linearGradient>
    <linearGradient id="paint13_linear_462_8966" x1="19.9791" y1="15.824" x2="21.0531" y2="16.0927" gradientUnits="userSpaceOnUse">
      <stop stop-opacity="0"/>
      <stop offset="0.5" stop-opacity="0.19"/>
      <stop offset="0.55" stop-opacity="0.24"/>
      <stop offset="0.97"/>
    </linearGradient>
    <linearGradient id="paint14_linear_462_8966" x1="23.1682" y1="19.1648" x2="23.1035" y2="20.9056" gradientUnits="userSpaceOnUse">
      <stop stop-color="#ECC4D7"/>
      <stop offset="0.42" stop-color="#EFD4D1"/>
      <stop offset="1" stop-color="#F2EAC9"/>
    </linearGradient>
    <linearGradient id="paint15_linear_462_8966" x1="23.4461" y1="15.1458" x2="23.206" y2="16.064" gradientUnits="userSpaceOnUse">
      <stop stop-opacity="0"/>
      <stop offset="0.88" stop-opacity="0.8"/>
      <stop offset="0.97"/>
    </linearGradient>
    <linearGradient id="paint16_linear_462_8966" x1="22.4672" y1="15.1864" x2="21.485" y2="15.0449" gradientUnits="userSpaceOnUse">
      <stop stop-color="#ECC4D7"/>
      <stop offset="0.42" stop-color="#EFD4D1"/>
      <stop offset="1" stop-color="#F2EAC9"/>
    </linearGradient>
    <linearGradient id="paint17_linear_462_8966" x1="22.2837" y1="14.8245" x2="22.2785" y2="14.9795" gradientUnits="userSpaceOnUse">
      <stop stop-opacity="0"/>
      <stop offset="0.88" stop-opacity="0.8"/>
      <stop offset="0.97"/>
    </linearGradient>
    <linearGradient id="paint18_linear_462_8966" x1="22.2965" y1="14.7575" x2="22.2844" y2="14.9321" gradientUnits="userSpaceOnUse">
      <stop stop-color="white" stop-opacity="0"/>
      <stop offset="0.84" stop-color="white" stop-opacity="0.84"/>
      <stop offset="0.97" stop-color="white"/>
    </linearGradient>
    <linearGradient id="paint19_linear_462_8966" x1="19.2638" y1="17.875" x2="20.2105" y2="17.875" gradientUnits="userSpaceOnUse">
      <stop stop-color="#ECC4D7"/>
      <stop offset="0.42" stop-color="#EFD4D1"/>
      <stop offset="1" stop-color="#F2EAC9"/>
    </linearGradient>
    <linearGradient id="paint20_linear_462_8966" x1="22.0878" y1="16.2183" x2="22.3987" y2="21.671" gradientUnits="userSpaceOnUse">
      <stop stop-color="white" stop-opacity="0"/>
      <stop offset="0.84" stop-color="white" stop-opacity="0.84"/>
      <stop offset="0.97" stop-color="white"/>
    </linearGradient>
    <linearGradient id="paint21_linear_462_8966" x1="21.3657" y1="18.7344" x2="19.6708" y2="18.7984" gradientUnits="userSpaceOnUse">
      <stop stop-opacity="0"/>
      <stop offset="0.88" stop-opacity="0.8"/>
      <stop offset="0.97"/>
    </linearGradient>
    <linearGradient id="paint22_linear_462_8966" x1="23.8012" y1="16.1273" x2="21.1874" y2="20.7958" gradientUnits="userSpaceOnUse">
      <stop stop-opacity="0"/>
      <stop offset="0.91" stop-opacity="0.8"/>
      <stop offset="1"/>
    </linearGradient>
    <clipPath id="clip0_462_8966">
      <rect width="36" height="36" fill="white" transform="translate(0.165039 0.165039)"/>
    </clipPath>
  </defs>
</svg>
