<svg xmlns="http://www.w3.org/2000/svg" width="24" height="24" viewBox="0 0 24 24" fill="none">
  <mask id="mask0_462_4060" style="mask-type:alpha" maskUnits="userSpaceOnUse" x="0" y="0" width="24" height="24">
    <rect width="24" height="24" fill="#D9D9D9"/>
  </mask>
  <g mask="url(#mask0_462_4060)">
    <path d="M21 7.99983C21.5333 7.99983 22 8.19983 22.4 8.59983C22.8 8.99983 23 9.46649 23 9.99983V11.9998C23 12.1165 22.9875 12.2415 22.9625 12.3748C22.9375 12.5082 22.9 12.6332 22.85 12.7498L19.85 19.7998C19.7 20.1332 19.45 20.4165 19.1 20.6498C18.75 20.8832 18.3833 20.9998 18 20.9998H10C9.45 20.9998 8.97917 20.804 8.5875 20.4123C8.19583 20.0207 8 19.5498 8 18.9998V8.82483C8 8.55816 8.05417 8.30399 8.1625 8.06233C8.27083 7.82066 8.41667 7.60816 8.6 7.42483L14.025 2.02483C14.275 1.79149 14.5708 1.64983 14.9125 1.59983C15.2542 1.54983 15.5833 1.60816 15.9 1.77483C16.2167 1.94149 16.4458 2.17483 16.5875 2.47483C16.7292 2.77483 16.7583 3.08316 16.675 3.39983L15.55 7.99983H21ZM4 20.9998C3.45 20.9998 2.97917 20.804 2.5875 20.4123C2.19583 20.0207 2 19.5498 2 18.9998V9.99983C2 9.44983 2.19583 8.97899 2.5875 8.58733C2.97917 8.19566 3.45 7.99983 4 7.99983C4.55 7.99983 5.02083 8.19566 5.4125 8.58733C5.80417 8.97899 6 9.44983 6 9.99983V18.9998C6 19.5498 5.80417 20.0207 5.4125 20.4123C5.02083 20.804 4.55 20.9998 4 20.9998Z" fill="#151415"/>
  </g>
</svg>