<svg width="48" height="48" viewBox="0 0 48 48" fill="none" xmlns="http://www.w3.org/2000/svg">
<g clip-path="url(#clip0_85_6455)">
<path d="M47.8051 23.2499C36.8251 4.21491 11.1751 4.1849 0.195102 23.2499C0.06345 23.4779 -0.00585937 23.7366 -0.00585938 23.9999C-0.00585937 24.2632 0.06345 24.5219 0.195102 24.7499C0.825591 25.8378 1.51668 26.8895 2.2651 27.8999C2.38329 28.0575 2.53136 28.1903 2.70086 28.2906C2.87036 28.391 3.05797 28.457 3.25297 28.4848C3.44797 28.5127 3.64655 28.5019 3.83737 28.453C4.02819 28.4041 4.20752 28.3181 4.3651 28.1999C4.52269 28.0817 4.65545 27.9336 4.75581 27.7641C4.85618 27.5946 4.92217 27.407 4.95003 27.212C4.97788 27.017 4.96706 26.8185 4.91817 26.6276C4.86929 26.4368 4.78329 26.2575 4.6651 26.0999C4.1701 25.4399 3.7051 24.7349 3.2401 23.9999C5.34568 20.5181 8.2445 17.5833 11.7001 15.4349C9.9326 17.9469 8.98402 20.9434 8.98402 24.0149C8.98402 27.0864 9.9326 30.0829 11.7001 32.5949C10.6087 31.9316 9.57051 31.1844 8.5951 30.3599C8.44539 30.2319 8.27193 30.1346 8.08463 30.0736C7.89732 30.0126 7.69982 29.9891 7.50343 30.0044C7.30703 30.0197 7.11558 30.0735 6.94 30.1629C6.76441 30.2522 6.60814 30.3752 6.4801 30.5249C6.35206 30.6746 6.25477 30.8481 6.19376 31.0354C6.13276 31.2227 6.10925 31.4202 6.12457 31.6166C6.13989 31.813 6.19375 32.0044 6.28306 32.18C6.37237 32.3556 6.49539 32.5119 6.6451 32.6399C18.4951 42.7949 38.2351 41.2799 47.7751 24.7499C47.9113 24.5245 47.9858 24.2672 47.9911 24.0039C47.9964 23.7406 47.9322 23.4806 47.8051 23.2499ZM12.0001 23.9999C12.0001 21.6265 12.7039 19.3065 14.0225 17.3331C15.341 15.3597 17.2152 13.8216 19.4079 12.9134C21.6006 12.0051 24.0134 11.7675 26.3412 12.2305C28.669 12.6935 30.8072 13.8364 32.4854 15.5146C34.1636 17.1929 35.3065 19.331 35.7695 21.6588C36.2325 23.9866 35.9949 26.3994 35.0867 28.5921C34.1784 30.7848 32.6403 32.659 30.6669 33.9775C28.6936 35.2961 26.3735 35.9999 24.0001 35.9999C20.8175 35.9999 17.7653 34.7356 15.5148 32.4852C13.2644 30.2348 12.0001 27.1825 12.0001 23.9999ZM36.3001 32.5649C38.0486 30.051 38.9858 27.0621 38.9858 23.9999C38.9858 20.9377 38.0486 17.9488 36.3001 15.4349C39.7557 17.5833 42.6545 20.5181 44.7601 23.9999C42.6545 27.4817 39.7557 30.4165 36.3001 32.5649Z" fill="#151415"/>
<path d="M23.9999 6C23.6021 6 23.2206 5.84196 22.9393 5.56066C22.658 5.27936 22.4999 4.89782 22.4999 4.5V1.5C22.4999 1.10218 22.658 0.720644 22.9393 0.43934C23.2206 0.158035 23.6021 0 23.9999 0C24.3978 0 24.7793 0.158035 25.0606 0.43934C25.3419 0.720644 25.4999 1.10218 25.4999 1.5V4.5C25.4999 4.89782 25.3419 5.27936 25.0606 5.56066C24.7793 5.84196 24.3978 6 23.9999 6ZM13.4999 7.5C12.7049 7.5 12.4949 7.11 10.9349 5.565C10.7951 5.42514 10.6841 5.25911 10.6084 5.07637C10.5328 4.89364 10.4938 4.69779 10.4938 4.5C10.4938 4.30221 10.5328 4.10636 10.6084 3.92363C10.6841 3.74089 10.7951 3.57486 10.9349 3.435C11.0748 3.29514 11.2408 3.1842 11.4236 3.10851C11.6063 3.03282 11.8021 2.99386 11.9999 2.99386C12.1977 2.99386 12.3936 3.03282 12.5763 3.10851C12.759 3.1842 12.9251 3.29514 13.0649 3.435L14.5649 4.935C14.7765 5.14481 14.9207 5.41286 14.9794 5.70498C15.038 5.9971 15.0082 6.30006 14.894 6.57522C14.7797 6.85039 14.5861 7.0853 14.3379 7.25C14.0896 7.4147 13.7979 7.50173 13.4999 7.5ZM34.4999 7.5C34.202 7.50173 33.9103 7.4147 33.662 7.25C33.4137 7.0853 33.2201 6.85039 33.1059 6.57522C32.9916 6.30006 32.9619 5.9971 33.0205 5.70498C33.0791 5.41286 33.2234 5.14481 33.4349 4.935L34.9349 3.435C35.2174 3.15254 35.6005 2.99386 35.9999 2.99386C36.3994 2.99386 36.7825 3.15254 37.0649 3.435C37.3474 3.71746 37.5061 4.10055 37.5061 4.5C37.5061 4.89945 37.3474 5.28254 37.0649 5.565C35.4749 7.155 35.2799 7.5 34.4999 7.5ZM23.9999 48C23.6021 48 23.2206 47.842 22.9393 47.5607C22.658 47.2794 22.4999 46.8978 22.4999 46.5V43.5C22.4999 43.1022 22.658 42.7206 22.9393 42.4393C23.2206 42.158 23.6021 42 23.9999 42C24.3978 42 24.7793 42.158 25.0606 42.4393C25.3419 42.7206 25.4999 43.1022 25.4999 43.5V46.5C25.4999 46.8978 25.3419 47.2794 25.0606 47.5607C24.7793 47.842 24.3978 48 23.9999 48ZM11.9999 45C11.702 45.0017 11.4103 44.9147 11.162 44.75C10.9137 44.5853 10.7201 44.3504 10.6059 44.0752C10.4916 43.8001 10.4619 43.4971 10.5205 43.205C10.5791 42.9129 10.7234 42.6448 10.9349 42.435L12.4349 40.935C12.5748 40.7951 12.7408 40.6842 12.9236 40.6085C13.1063 40.5328 13.3021 40.4939 13.4999 40.4939C13.6977 40.4939 13.8936 40.5328 14.0763 40.6085C14.259 40.6842 14.4251 40.7951 14.5649 40.935C14.7048 41.0749 14.8157 41.2409 14.8914 41.4236C14.9671 41.6064 15.0061 41.8022 15.0061 42C15.0061 42.1978 14.9671 42.3936 14.8914 42.5764C14.8157 42.7591 14.7048 42.9251 14.5649 43.065C12.9749 44.655 12.7799 45 11.9999 45ZM35.9999 45C35.2049 45 34.9949 44.61 33.4349 43.065C33.1525 42.7825 32.9938 42.3995 32.9938 42C32.9938 41.6005 33.1525 41.2175 33.4349 40.935C33.7174 40.6525 34.1005 40.4939 34.4999 40.4939C34.8994 40.4939 35.2825 40.6525 35.5649 40.935L37.0649 42.435C37.2765 42.6448 37.4207 42.9129 37.4794 43.205C37.538 43.4971 37.5082 43.8001 37.394 44.0752C37.2797 44.3504 37.0861 44.5853 36.8379 44.75C36.5896 44.9147 36.2979 45.0017 35.9999 45Z" fill="#151415"/>
<path d="M31.395 19.7251C31.14 19.0201 31.245 19.2601 24.795 15.2251C24.5566 15.0761 24.2811 14.9971 24 14.9971C23.7188 14.9971 23.4434 15.0761 23.205 15.2251C16.755 19.2601 16.92 19.0501 16.65 19.6201C16.38 20.1901 16.5 19.6201 16.5 27.7501C16.4995 28.005 16.5639 28.2558 16.6873 28.4789C16.8106 28.702 16.9888 28.89 17.205 29.0251C23.85 33.1801 23.085 32.7001 23.34 32.8351C23.5425 32.9454 23.7694 33.0031 24 33.0031C24.2305 33.0031 24.4575 32.9454 24.66 32.8351C24.945 32.6851 24.27 33.1051 30.795 29.0251C31.0111 28.89 31.1893 28.702 31.3127 28.4789C31.436 28.2558 31.5005 28.005 31.5 27.7501C31.5 19.6051 31.5 20.1301 31.395 19.7251ZM24 18.2251L27.165 20.2051L24 22.2301L20.835 20.2501L24 18.2251ZM19.5 22.9501L22.5 24.8251V28.8001L19.5 27.0001V22.9501ZM25.5 28.8001V24.8251L28.5 22.9501V27.0001L25.5 28.8001Z" fill="#550055"/>
</g>
<defs>
<clipPath id="clip0_85_6455">
<rect width="48" height="48" fill="white"/>
</clipPath>
</defs>
</svg>
