<svg width="48" height="48" viewBox="0 0 48 48" fill="none" xmlns="http://www.w3.org/2000/svg">
<path d="M37.9949 46.5H10.0049C9.60706 46.5 9.22553 46.342 8.94422 46.0607C8.66292 45.7794 8.50488 45.3978 8.50488 45V3C8.50488 2.60218 8.66292 2.22064 8.94422 1.93934C9.22553 1.65804 9.60706 1.5 10.0049 1.5H33.1349C35.5799 1.5 39.4949 5.25 39.4949 7.575V45C39.4949 45.3978 39.3368 45.7794 39.0555 46.0607C38.7742 46.342 38.3927 46.5 37.9949 46.5ZM11.5049 43.5H36.4949V7.575C35.7573 6.21511 34.5693 5.15441 33.1349 4.575H11.5049V43.5ZM33.7499 39H14.2499C13.8521 39 13.4705 38.842 13.1892 38.5607C12.9079 38.2794 12.7499 37.8978 12.7499 37.5C12.7499 37.1022 12.9079 36.7206 13.1892 36.4393C13.4705 36.158 13.8521 36 14.2499 36H33.7499C34.1477 36 34.5292 36.158 34.8105 36.4393C35.0918 36.7206 35.2499 37.1022 35.2499 37.5C35.2499 37.8978 35.0918 38.2794 34.8105 38.5607C34.5292 38.842 34.1477 39 33.7499 39ZM33.7499 34.5H14.2499C13.8521 34.5 13.4705 34.342 13.1892 34.0607C12.9079 33.7794 12.7499 33.3978 12.7499 33C12.7499 32.6022 12.9079 32.2206 13.1892 31.9393C13.4705 31.658 13.8521 31.5 14.2499 31.5H33.7499C34.1477 31.5 34.5292 31.658 34.8105 31.9393C35.0918 32.2206 35.2499 32.6022 35.2499 33C35.2499 33.3978 35.0918 33.7794 34.8105 34.0607C34.5292 34.342 34.1477 34.5 33.7499 34.5ZM33.7499 30H14.2499C13.8521 30 13.4705 29.842 13.1892 29.5607C12.9079 29.2794 12.7499 28.8978 12.7499 28.5C12.7499 28.1022 12.9079 27.7206 13.1892 27.4393C13.4705 27.158 13.8521 27 14.2499 27H33.7499C34.1477 27 34.5292 27.158 34.8105 27.4393C35.0918 27.7206 35.2499 28.1022 35.2499 28.5C35.2499 28.8978 35.0918 29.2794 34.8105 29.5607C34.5292 29.842 34.1477 30 33.7499 30ZM33.7499 25.5H14.2499C13.8521 25.5 13.4705 25.342 13.1892 25.0607C12.9079 24.7794 12.7499 24.3978 12.7499 24C12.7499 23.6022 12.9079 23.2206 13.1892 22.9393C13.4705 22.658 13.8521 22.5 14.2499 22.5H33.7499C34.1477 22.5 34.5292 22.658 34.8105 22.9393C35.0918 23.2206 35.2499 23.6022 35.2499 24C35.2499 24.3978 35.0918 24.7794 34.8105 25.0607C34.5292 25.342 34.1477 25.5 33.7499 25.5ZM33.7499 21H14.2499C13.8521 21 13.4705 20.842 13.1892 20.5607C12.9079 20.2794 12.7499 19.8978 12.7499 19.5C12.7499 19.1022 12.9079 18.7206 13.1892 18.4393C13.4705 18.158 13.8521 18 14.2499 18H33.7499C34.1477 18 34.5292 18.158 34.8105 18.4393C35.0918 18.7206 35.2499 19.1022 35.2499 19.5C35.2499 19.8978 35.0918 20.2794 34.8105 20.5607C34.5292 20.842 34.1477 21 33.7499 21ZM33.7499 16.5H14.2499C13.8521 16.5 13.4705 16.342 13.1892 16.0607C12.9079 15.7794 12.7499 15.3978 12.7499 15C12.7499 14.6022 12.9079 14.2206 13.1892 13.9393C13.4705 13.658 13.8521 13.5 14.2499 13.5H33.7499C34.1477 13.5 34.5292 13.658 34.8105 13.9393C35.0918 14.2206 35.2499 14.6022 35.2499 15C35.2499 15.3978 35.0918 15.7794 34.8105 16.0607C34.5292 16.342 34.1477 16.5 33.7499 16.5ZM30.7499 12H17.2499C16.8521 12 16.4705 11.842 16.1892 11.5607C15.9079 11.2794 15.7499 10.8978 15.7499 10.5C15.7499 10.1022 15.9079 9.72064 16.1892 9.43934C16.4705 9.15804 16.8521 9 17.2499 9H30.7499C31.1477 9 31.5292 9.15804 31.8105 9.43934C32.0918 9.72064 32.2499 10.1022 32.2499 10.5C32.2499 10.8978 32.0918 11.2794 31.8105 11.5607C31.5292 11.842 31.1477 12 30.7499 12Z" fill="#550055"/>
</svg>
