<svg width="34" height="34" viewBox="0 0 34 34" fill="none" xmlns="http://www.w3.org/2000/svg">
<g id="USWDS Components">
<g id="Icons">
<g id="Fill">
<path id="Vector" fill-rule="evenodd" clip-rule="evenodd" d="M17 0.333336C7.79998 0.333336 0.333313 7.8 0.333313 17C0.333313 26.2 7.79998 33.6667 17 33.6667C26.2 33.6667 33.6666 26.2 33.6666 17C33.6666 7.8 26.2 0.333336 17 0.333336ZM18.6666 28.6667H15.3333V25.3333H18.6666V28.6667ZM22.1166 15.75L20.6166 17.2833C19.4166 18.5 18.6666 19.5 18.6666 22H15.3333V21.1667C15.3333 19.3333 16.0833 17.6667 17.2833 16.45L19.35 14.35C19.9666 13.75 20.3333 12.9167 20.3333 12C20.3333 10.1667 18.8333 8.66667 17 8.66667C15.1666 8.66667 13.6666 10.1667 13.6666 12H10.3333C10.3333 8.31667 13.3166 5.33334 17 5.33334C20.6833 5.33334 23.6666 8.31667 23.6666 12C23.6666 13.4667 23.0666 14.8 22.1166 15.75Z" fill="#FDFDFD"/>
</g>
</g>
</g>
</svg>
