<svg width="38" height="24" viewBox="0 0 38 24" fill="none" xmlns="http://www.w3.org/2000/svg">
<g id="USWDS Components">
<g id="Icons">
<g id="Fill">
<path id="Vector" fill-rule="evenodd" clip-rule="evenodd" d="M25.6667 10.3333C28.4334 10.3333 30.65 8.10001 30.65 5.33334C30.65 2.56668 28.4334 0.333344 25.6667 0.333344C22.9 0.333344 20.6667 2.56668 20.6667 5.33334C20.6667 8.10001 22.9 10.3333 25.6667 10.3333ZM12.3334 10.3333C15.1 10.3333 17.3167 8.10001 17.3167 5.33334C17.3167 2.56668 15.1 0.333344 12.3334 0.333344C9.56669 0.333344 7.33335 2.56668 7.33335 5.33334C7.33335 8.10001 9.56669 10.3333 12.3334 10.3333ZM12.3334 13.6667C8.45002 13.6667 0.666687 15.6167 0.666687 19.5V23.6667H24V19.5C24 15.6167 16.2167 13.6667 12.3334 13.6667ZM25.6667 13.6667C25.1834 13.6667 24.6334 13.7 24.05 13.75C25.9834 15.15 27.3334 17.0333 27.3334 19.5V23.6667H37.3334V19.5C37.3334 15.6167 29.55 13.6667 25.6667 13.6667Z" fill="#FDFDFD"/>
</g>
</g>
</g>
</svg>
