<svg width="32" height="32" viewBox="0 0 32 32" fill="none" xmlns="http://www.w3.org/2000/svg">
<g id="USWDS Components">
<g id="Icons">
<g id="Fill">
<path id="Vector" fill-rule="evenodd" clip-rule="evenodd" d="M27.9 17.5667C27.9666 17.0667 28 16.55 28 16C28 15.4667 27.9666 14.9334 27.8833 14.4334L31.2666 11.8C31.5666 11.5667 31.65 11.1167 31.4666 10.7834L28.2666 5.25004C28.0666 4.88337 27.65 4.7667 27.2833 4.88337L23.3 6.48337C22.4666 5.85004 21.5833 5.3167 20.6 4.9167L20 0.683371C19.9333 0.283371 19.6 3.8147e-05 19.2 3.8147e-05H12.8C12.4 3.8147e-05 12.0833 0.283371 12.0166 0.683371L11.4166 4.9167C10.4333 5.3167 9.53331 5.8667 8.71665 6.48337L4.73331 4.88337C4.36665 4.75004 3.94998 4.88337 3.74998 5.25004L0.566646 10.7834C0.366646 11.1334 0.433313 11.5667 0.766646 11.8L4.14998 14.4334C4.06665 14.9334 3.99998 15.4834 3.99998 16C3.99998 16.5167 4.03331 17.0667 4.11665 17.5667L0.733313 20.2C0.433313 20.4334 0.349979 20.8834 0.533313 21.2167L3.73331 26.75C3.93331 27.1167 4.34998 27.2334 4.71665 27.1167L8.69998 25.5167C9.53331 26.15 10.4166 26.6834 11.4 27.0834L12 31.3167C12.0833 31.7167 12.4 32 12.8 32H19.2C19.6 32 19.9333 31.7167 19.9833 31.3167L20.5833 27.0834C21.5666 26.6834 22.4666 26.15 23.2833 25.5167L27.2666 27.1167C27.6333 27.25 28.05 27.1167 28.25 26.75L31.45 21.2167C31.65 20.85 31.5666 20.4334 31.25 20.2L27.9 17.5667ZM16 22C12.7 22 9.99998 19.3 9.99998 16C9.99998 12.7 12.7 10 16 10C19.3 10 22 12.7 22 16C22 19.3 19.3 22 16 22Z" fill="#FDFDFD"/>
</g>
</g>
</g>
</svg>
